%TF.GenerationSoftware,KiCad,Pcbnew,(5.1.9)-1*%
%TF.CreationDate,2021-03-03T00:59:23+01:00*%
%TF.ProjectId,Hands of Svarog,48616e64-7320-46f6-9620-537661726f67,rev?*%
%TF.SameCoordinates,Original*%
%TF.FileFunction,Copper,L2,Bot*%
%TF.FilePolarity,Positive*%
%FSLAX46Y46*%
G04 Gerber Fmt 4.6, Leading zero omitted, Abs format (unit mm)*
G04 Created by KiCad (PCBNEW (5.1.9)-1) date 2021-03-03 00:59:23*
%MOMM*%
%LPD*%
G01*
G04 APERTURE LIST*
%TA.AperFunction,SMDPad,CuDef*%
%ADD10C,1.524000*%
%TD*%
%TA.AperFunction,ComponentPad*%
%ADD11C,1.930400*%
%TD*%
%TA.AperFunction,WasherPad*%
%ADD12C,3.200000*%
%TD*%
%TA.AperFunction,ComponentPad*%
%ADD13C,1.803400*%
%TD*%
%TA.AperFunction,ComponentPad*%
%ADD14C,2.667000*%
%TD*%
%TA.AperFunction,ComponentPad*%
%ADD15R,1.524000X1.524000*%
%TD*%
%TA.AperFunction,ComponentPad*%
%ADD16C,1.524000*%
%TD*%
%TA.AperFunction,ViaPad*%
%ADD17C,0.800000*%
%TD*%
%TA.AperFunction,Conductor*%
%ADD18C,0.250000*%
%TD*%
%TA.AperFunction,Conductor*%
%ADD19C,0.500000*%
%TD*%
%TA.AperFunction,Conductor*%
%ADD20C,0.127000*%
%TD*%
%TA.AperFunction,Conductor*%
%ADD21C,0.100000*%
%TD*%
G04 APERTURE END LIST*
D10*
%TO.P,J1,HOLE*%
%TO.N,N/C*%
X99559837Y-36816800D03*
D11*
%TO.P,J1,T*%
%TO.N,Net-(J1-PadT)*%
X99559837Y-31609800D03*
%TO.P,J1,S*%
%TO.N,GND*%
X99559837Y-42582600D03*
%TO.P,J1,TN*%
X99559837Y-40169600D03*
%TD*%
D10*
%TO.P,J2,HOLE*%
%TO.N,N/C*%
X99559837Y-52056800D03*
D11*
%TO.P,J2,T*%
%TO.N,Net-(J2-PadT)*%
X99559837Y-57263800D03*
%TO.P,J2,S*%
%TO.N,GND*%
X99559837Y-46291000D03*
%TO.P,J2,TN*%
X99559837Y-48704000D03*
%TD*%
D10*
%TO.P,J3,HOLE*%
%TO.N,N/C*%
X99559837Y-69836800D03*
D11*
%TO.P,J3,T*%
%TO.N,Net-(J3-PadT)*%
X99559837Y-64629800D03*
%TO.P,J3,S*%
%TO.N,GND*%
X99559837Y-75602600D03*
%TO.P,J3,TN*%
X99559837Y-73189600D03*
%TD*%
D10*
%TO.P,J4,HOLE*%
%TO.N,N/C*%
X99559837Y-85076800D03*
D11*
%TO.P,J4,T*%
%TO.N,Net-(J4-PadT)*%
X99559837Y-90283800D03*
%TO.P,J4,S*%
%TO.N,GND*%
X99559837Y-79311000D03*
%TO.P,J4,TN*%
X99559837Y-81724000D03*
%TD*%
%TO.P,J5,T*%
%TO.N,Net-(C7-Pad2)*%
X83049837Y-133667000D03*
%TO.P,J5,S*%
%TO.N,GND*%
X83049837Y-122694200D03*
%TO.P,J5,R*%
%TO.N,Net-(C8-Pad2)*%
X83049837Y-125107200D03*
D12*
%TO.P,J5,*%
%TO.N,*%
X83049837Y-128460000D03*
%TD*%
D13*
%TO.P,RV2,3*%
%TO.N,Net-(J2-PadT)*%
X80509837Y-58851300D03*
%TO.P,RV2,2*%
%TO.N,Net-(R2-Pad2)*%
X83049837Y-58851300D03*
%TO.P,RV2,1*%
%TO.N,GND*%
X85589837Y-58851300D03*
D14*
%TO.P,RV2,4*%
%TO.N,N/C*%
X87444037Y-51840900D03*
%TO.P,RV2,5*%
X78655637Y-51840900D03*
%TD*%
D15*
%TO.P,J7,1*%
%TO.N,Net-(D2-Pad1)*%
X92575000Y-131355600D03*
D16*
%TO.P,J7,2*%
X90035000Y-131355600D03*
%TO.P,J7,3*%
%TO.N,GND*%
X92575000Y-128815600D03*
%TO.P,J7,4*%
X90035000Y-128815600D03*
%TO.P,J7,5*%
X92575000Y-126275600D03*
%TO.P,J7,6*%
X90035000Y-126275600D03*
%TO.P,J7,7*%
X92575000Y-123735600D03*
%TO.P,J7,8*%
X90035000Y-123735600D03*
%TO.P,J7,9*%
%TO.N,Net-(D1-Pad2)*%
X92575000Y-121195600D03*
%TO.P,J7,10*%
X90035000Y-121195600D03*
%TD*%
D14*
%TO.P,RV1,5*%
%TO.N,N/C*%
X78655637Y-37032699D03*
%TO.P,RV1,4*%
X87444037Y-37032699D03*
D13*
%TO.P,RV1,1*%
%TO.N,GND*%
X85589837Y-44043099D03*
%TO.P,RV1,2*%
%TO.N,Net-(R1-Pad2)*%
X83049837Y-44043099D03*
%TO.P,RV1,3*%
%TO.N,Net-(J1-PadT)*%
X80509837Y-44043099D03*
%TD*%
D14*
%TO.P,RV3,5*%
%TO.N,N/C*%
X78655637Y-70052699D03*
%TO.P,RV3,4*%
X87444037Y-70052699D03*
D13*
%TO.P,RV3,1*%
%TO.N,GND*%
X85589837Y-77063099D03*
%TO.P,RV3,2*%
%TO.N,Net-(R3-Pad2)*%
X83049837Y-77063099D03*
%TO.P,RV3,3*%
%TO.N,Net-(J3-PadT)*%
X80509837Y-77063099D03*
%TD*%
%TO.P,RV4,3*%
%TO.N,Net-(J4-PadT)*%
X80509837Y-91871300D03*
%TO.P,RV4,2*%
%TO.N,Net-(R4-Pad2)*%
X83049837Y-91871300D03*
%TO.P,RV4,1*%
%TO.N,GND*%
X85589837Y-91871300D03*
D14*
%TO.P,RV4,4*%
%TO.N,N/C*%
X87444037Y-84860900D03*
%TO.P,RV4,5*%
X78655637Y-84860900D03*
%TD*%
%TO.P,RV5,5*%
%TO.N,N/C*%
X95165637Y-107443343D03*
%TO.P,RV5,4*%
X103954037Y-107443343D03*
D13*
%TO.P,RV5,1*%
%TO.N,Net-(R12-Pad2)*%
X102099837Y-114453743D03*
%TO.P,RV5,2*%
%TO.N,GND*%
X99559837Y-114453743D03*
%TO.P,RV5,3*%
%TO.N,Net-(R11-Pad2)*%
X97019837Y-114453743D03*
%TD*%
D14*
%TO.P,RV6,5*%
%TO.N,N/C*%
X78655637Y-107443343D03*
%TO.P,RV6,4*%
X87444037Y-107443343D03*
D13*
%TO.P,RV6,1*%
%TO.N,Net-(R10-Pad1)*%
X85589837Y-114453743D03*
%TO.P,RV6,2*%
%TO.N,GND*%
X83049837Y-114453743D03*
%TO.P,RV6,3*%
%TO.N,Net-(R13-Pad2)*%
X80509837Y-114453743D03*
%TD*%
D17*
%TO.N,Net-(C1-Pad2)*%
X78503400Y-40626800D03*
X78909798Y-61073800D03*
%TO.N,Net-(C1-Pad1)*%
X97299400Y-33591000D03*
X97096200Y-37553400D03*
%TO.N,Net-(C2-Pad2)*%
X85742400Y-55384200D03*
X87045800Y-119786400D03*
%TO.N,Net-(C3-Pad2)*%
X80383000Y-60692800D03*
X80432752Y-116432016D03*
%TO.N,Net-(C4-Pad2)*%
X94480000Y-83121000D03*
X94429200Y-74993000D03*
X95623000Y-104228400D03*
X86885400Y-74764400D03*
X85386800Y-67296800D03*
X81457798Y-116459000D03*
X78396515Y-103964008D03*
%TO.N,Net-(C5-Pad2)*%
X97223200Y-57086000D03*
X97248600Y-64680600D03*
%TO.N,Net-(C6-Pad2)*%
X91660600Y-79895200D03*
X91609800Y-86575400D03*
%TO.N,Net-(C7-Pad1)*%
X88663400Y-72580000D03*
X89518754Y-101324966D03*
%TO.N,Net-(C7-Pad2)*%
X77597000Y-103047800D03*
%TO.N,Net-(C8-Pad2)*%
X89247600Y-102907600D03*
%TO.N,Net-(C8-Pad1)*%
X103649400Y-94601800D03*
X102833010Y-98665800D03*
%TO.N,Net-(J1-PadT)*%
X78681200Y-33845000D03*
%TO.N,Net-(J3-PadT)*%
X102430200Y-77202800D03*
%TO.N,Net-(J4-PadT)*%
X99687000Y-95440000D03*
%TO.N,Net-(R1-Pad2)*%
X85539200Y-34505400D03*
%TO.N,Net-(R2-Pad2)*%
X87749000Y-39864800D03*
%TO.N,Net-(R3-Pad1)*%
X89323800Y-45681400D03*
X89400000Y-49897800D03*
X88841200Y-55206400D03*
X89222200Y-82130400D03*
%TO.N,Net-(R3-Pad2)*%
X87469600Y-55104800D03*
X87508810Y-67652400D03*
X84396200Y-68617600D03*
%TO.N,Net-(R11-Pad2)*%
X81158810Y-61810400D03*
X96520000Y-111556800D03*
X82067400Y-111099600D03*
%TO.N,Net-(R12-Pad2)*%
X78122400Y-72707000D03*
X78006990Y-96684024D03*
X101549200Y-96926400D03*
%TO.N,Net-(R13-Pad2)*%
X81661000Y-119303800D03*
%TO.N,+12V*%
X97096200Y-120205000D03*
X93870400Y-45249600D03*
X94734000Y-65798200D03*
X94708600Y-86600800D03*
%TO.N,-12V*%
X98188400Y-126199400D03*
X90517600Y-39077400D03*
X90517600Y-83298800D03*
X90517600Y-63918600D03*
%TD*%
D18*
%TO.N,Net-(C1-Pad2)*%
X78909798Y-55739802D02*
X78909798Y-61073800D01*
X80586200Y-54063400D02*
X78909798Y-55739802D01*
X80586200Y-49262800D02*
X80586200Y-54063400D01*
X78503400Y-47180000D02*
X80586200Y-49262800D01*
X78503400Y-40626800D02*
X78503400Y-47180000D01*
%TO.N,Net-(C1-Pad1)*%
X97299400Y-37350200D02*
X97096200Y-37553400D01*
X97299400Y-33591000D02*
X97299400Y-37350200D01*
%TO.N,Net-(C2-Pad2)*%
X87019590Y-56661390D02*
X87019590Y-67068622D01*
X85778822Y-71014812D02*
X87799800Y-73035790D01*
X88714200Y-102121610D02*
X85735211Y-105100599D01*
X85742400Y-55384200D02*
X87019590Y-56661390D01*
X85778822Y-68309390D02*
X85778822Y-71014812D01*
X88714200Y-86045319D02*
X88714200Y-102121610D01*
X85735211Y-111179401D02*
X87045800Y-112489990D01*
X87045800Y-112489990D02*
X87045800Y-119786400D01*
X89102538Y-85656981D02*
X88714200Y-86045319D01*
X87019590Y-67068622D02*
X85778822Y-68309390D01*
X89102538Y-84064819D02*
X89102538Y-85656981D01*
X87799800Y-82762081D02*
X89102538Y-84064819D01*
X85735211Y-105100599D02*
X85735211Y-111179401D01*
X87799800Y-73035790D02*
X87799800Y-82762081D01*
%TO.N,Net-(C3-Pad2)*%
X80008416Y-116432016D02*
X80432752Y-116432016D01*
X79081222Y-115504822D02*
X80008416Y-116432016D01*
X78747189Y-103256778D02*
X81214160Y-105723749D01*
X81214160Y-105723749D02*
X81214160Y-108612224D01*
X78747189Y-88819400D02*
X78747189Y-103256778D01*
X80956986Y-86609604D02*
X78747189Y-88819400D01*
X80956987Y-82223200D02*
X80956986Y-86609604D01*
X78572411Y-79838622D02*
X80956987Y-82223200D01*
X78572411Y-73779578D02*
X78572411Y-79838622D01*
X81214160Y-108612224D02*
X79081222Y-110745162D01*
X79081222Y-110745162D02*
X79081222Y-115504822D01*
X78307389Y-62768411D02*
X78307389Y-66802192D01*
X80364787Y-71987203D02*
X78572411Y-73779578D01*
X78307389Y-66802192D02*
X80364787Y-68859589D01*
X80383000Y-60692800D02*
X78307389Y-62768411D01*
X80364787Y-68859589D02*
X80364787Y-71987203D01*
%TO.N,Net-(C4-Pad2)*%
X94480000Y-75043800D02*
X94429200Y-74993000D01*
X94480000Y-83121000D02*
X94480000Y-75043800D01*
X95623000Y-84264000D02*
X95623000Y-104228400D01*
X94480000Y-83121000D02*
X95623000Y-84264000D01*
X85328811Y-73207811D02*
X85328811Y-67354789D01*
X86885400Y-74764400D02*
X85328811Y-73207811D01*
X85328811Y-67354789D02*
X85386800Y-67296800D01*
X80129188Y-117189199D02*
X78631211Y-115691222D01*
X78631211Y-110558762D02*
X80764149Y-108425824D01*
X78818008Y-103964008D02*
X78396515Y-103964008D01*
X80764149Y-108425824D02*
X80764149Y-105910149D01*
X80764149Y-105910149D02*
X78818008Y-103964008D01*
X78631211Y-115691222D02*
X78631211Y-110558762D01*
X81457798Y-116459000D02*
X80727599Y-117189199D01*
X80727599Y-117189199D02*
X80129188Y-117189199D01*
%TO.N,Net-(C5-Pad2)*%
X97223200Y-64655200D02*
X97248600Y-64680600D01*
X97223200Y-57086000D02*
X97223200Y-64655200D01*
%TO.N,Net-(C6-Pad2)*%
X91660600Y-86524600D02*
X91609800Y-86575400D01*
X91660600Y-79895200D02*
X91660600Y-86524600D01*
%TO.N,Net-(C7-Pad1)*%
X89577800Y-101265920D02*
X89518754Y-101324966D01*
X88263401Y-82236990D02*
X89577800Y-83551389D01*
X88263401Y-72979999D02*
X88263401Y-82236990D01*
X89577800Y-83551389D02*
X89577800Y-101265920D01*
X88663400Y-72580000D02*
X88263401Y-72979999D01*
%TO.N,Net-(C7-Pad2)*%
X77597000Y-104197685D02*
X77597000Y-103047800D01*
X83049837Y-133667000D02*
X78181200Y-128798363D01*
X80314138Y-106264452D02*
X78738696Y-104689010D01*
X78738696Y-104689010D02*
X78088325Y-104689010D01*
X78181200Y-110372362D02*
X80314138Y-108239424D01*
X78181200Y-128798363D02*
X78181200Y-110372362D01*
X80314138Y-108239424D02*
X80314138Y-106264452D01*
X78088325Y-104689010D02*
X77597000Y-104197685D01*
%TO.N,Net-(C8-Pad2)*%
X89247600Y-118909437D02*
X89247600Y-102907600D01*
X83049837Y-125107200D02*
X89247600Y-118909437D01*
%TO.N,Net-(C8-Pad1)*%
X103649400Y-94601800D02*
X103649400Y-97849410D01*
X103649400Y-97849410D02*
X102833010Y-98665800D01*
%TO.N,Net-(J1-PadT)*%
X80332200Y-36218556D02*
X80332200Y-35496000D01*
X80314138Y-36236618D02*
X80332200Y-36218556D01*
X80332200Y-35496000D02*
X78681200Y-33845000D01*
X79240000Y-39610800D02*
X80314138Y-38536662D01*
X80314138Y-38536662D02*
X80314138Y-36236618D01*
X79240000Y-42773262D02*
X79240000Y-39610800D01*
X80509837Y-44043099D02*
X79240000Y-42773262D01*
%TO.N,Net-(J3-PadT)*%
X102430200Y-67500163D02*
X99559837Y-64629800D01*
X102430200Y-77202800D02*
X102430200Y-67500163D01*
%TO.N,Net-(J4-PadT)*%
X99687000Y-90410963D02*
X99559837Y-90283800D01*
X99687000Y-95440000D02*
X99687000Y-90410963D01*
%TO.N,Net-(R1-Pad2)*%
X83443701Y-44043099D02*
X83049837Y-44043099D01*
X85742400Y-41744400D02*
X83443701Y-44043099D01*
X85742400Y-34708600D02*
X85742400Y-41744400D01*
X85539200Y-34505400D02*
X85742400Y-34708600D01*
%TO.N,Net-(R2-Pad2)*%
X87749000Y-47688000D02*
X87749000Y-39864800D01*
X83049837Y-52387163D02*
X87749000Y-47688000D01*
X83049837Y-58851300D02*
X83049837Y-52387163D01*
%TO.N,Net-(R3-Pad1)*%
X89323800Y-49821600D02*
X89400000Y-49897800D01*
X89323800Y-45681400D02*
X89323800Y-49821600D01*
X89654000Y-81698600D02*
X89222200Y-82130400D01*
X89654000Y-56019200D02*
X89654000Y-81698600D01*
X88841200Y-55206400D02*
X89654000Y-56019200D01*
%TO.N,Net-(R3-Pad2)*%
X87469600Y-66407800D02*
X87469600Y-66509400D01*
X87469600Y-55104800D02*
X87469600Y-66407800D01*
X87469600Y-67613190D02*
X87508810Y-67652400D01*
X87469600Y-66407800D02*
X87469600Y-67613190D01*
X84878800Y-69100200D02*
X84396200Y-68617600D01*
X84878800Y-75234136D02*
X84878800Y-69100200D01*
X83049837Y-77063099D02*
X84878800Y-75234136D01*
%TO.N,Net-(R11-Pad2)*%
X81765622Y-82395421D02*
X81576800Y-82206600D01*
X80052800Y-61810400D02*
X81158810Y-61810400D01*
X78757400Y-63105800D02*
X80052800Y-61810400D01*
X80814798Y-68673190D02*
X78757400Y-66615792D01*
X80814798Y-72173602D02*
X80814798Y-68673190D01*
X79022422Y-73965978D02*
X80814798Y-72173602D01*
X78757400Y-66615792D02*
X78757400Y-63105800D01*
X79022422Y-79652222D02*
X79022422Y-73965978D01*
X81576800Y-82206600D02*
X79022422Y-79652222D01*
X97028000Y-114445580D02*
X97019837Y-114453743D01*
X97028000Y-112064800D02*
X97028000Y-114445580D01*
X96520000Y-111556800D02*
X97028000Y-112064800D01*
X81686400Y-105559578D02*
X81686400Y-110718600D01*
X79197200Y-103070378D02*
X81686400Y-105559578D01*
X79197200Y-89005800D02*
X79197200Y-103070378D01*
X81406996Y-86796004D02*
X79197200Y-89005800D01*
X81686400Y-110718600D02*
X82067400Y-111099600D01*
X81406998Y-82376401D02*
X81406996Y-86796004D01*
X81576800Y-82206600D02*
X81406998Y-82376401D01*
%TO.N,Net-(R12-Pad2)*%
X102108000Y-97485200D02*
X101549200Y-96926400D01*
X102108000Y-114445580D02*
X102108000Y-97485200D01*
X102099837Y-114453743D02*
X102108000Y-114445580D01*
X78122400Y-72707000D02*
X78122400Y-80025022D01*
X80506978Y-82409600D02*
X80506978Y-86423202D01*
X78122400Y-80025022D02*
X80506978Y-82409600D01*
X80506978Y-86423202D02*
X78006990Y-88923190D01*
X78006990Y-88923190D02*
X78006990Y-96684024D01*
%TO.N,Net-(R13-Pad2)*%
X82182799Y-118782001D02*
X81661000Y-119303800D01*
X82182799Y-116126705D02*
X82182799Y-118782001D01*
X80509837Y-114453743D02*
X82182799Y-116126705D01*
%TO.N,Net-(R10-Pad1)*%
X85285200Y-104914200D02*
X87989190Y-102210210D01*
X85285200Y-114149106D02*
X85285200Y-104914200D01*
X85589837Y-114453743D02*
X85285200Y-114149106D01*
D19*
%TO.N,+12V*%
X92676600Y-46443400D02*
X93870400Y-45249600D01*
X95267400Y-111162600D02*
X92676600Y-108571800D01*
X95267400Y-118376200D02*
X95267400Y-111162600D01*
X97096200Y-120205000D02*
X95267400Y-118376200D01*
X92702000Y-65798200D02*
X92676600Y-65823600D01*
X94734000Y-65798200D02*
X92702000Y-65798200D01*
X92676600Y-65823600D02*
X92676600Y-46443400D01*
X92752800Y-86600800D02*
X92676600Y-86524600D01*
X94708600Y-86600800D02*
X92752800Y-86600800D01*
X92676600Y-86524600D02*
X92676600Y-65823600D01*
X92676600Y-108571800D02*
X92676600Y-86524600D01*
%TO.N,-12V*%
X90517600Y-63918600D02*
X90517600Y-39077400D01*
X90517600Y-83298800D02*
X90517600Y-63918600D01*
X90517600Y-107886000D02*
X90517600Y-83298800D01*
X90517600Y-108063800D02*
X90517600Y-107886000D01*
X94226000Y-111772200D02*
X90517600Y-108063800D01*
X94226000Y-122237000D02*
X94226000Y-111772200D01*
X98188400Y-126199400D02*
X94226000Y-122237000D01*
%TD*%
D20*
%TO.N,GND*%
X105567501Y-107092026D02*
X105541590Y-106961764D01*
X105417134Y-106661301D01*
X105236452Y-106390892D01*
X105006488Y-106160928D01*
X104736079Y-105980246D01*
X104435616Y-105855790D01*
X104116646Y-105792343D01*
X103791428Y-105792343D01*
X103472458Y-105855790D01*
X103171995Y-105980246D01*
X102901586Y-106160928D01*
X102671622Y-106390892D01*
X102550500Y-106572163D01*
X102550500Y-99325397D01*
X102623723Y-99355727D01*
X102762342Y-99383300D01*
X102903678Y-99383300D01*
X103042297Y-99355727D01*
X103172874Y-99301641D01*
X103290390Y-99223119D01*
X103390329Y-99123180D01*
X103468851Y-99005664D01*
X103522937Y-98875087D01*
X103550510Y-98736468D01*
X103550510Y-98595132D01*
X103547019Y-98577581D01*
X103946925Y-98177675D01*
X103963809Y-98163819D01*
X104009223Y-98108481D01*
X104019105Y-98096440D01*
X104060195Y-98019567D01*
X104073449Y-97975873D01*
X104085497Y-97936155D01*
X104091900Y-97871147D01*
X104091900Y-97871144D01*
X104094041Y-97849410D01*
X104091900Y-97827676D01*
X104091900Y-95169062D01*
X104106780Y-95159119D01*
X104206719Y-95059180D01*
X104285241Y-94941664D01*
X104339327Y-94811087D01*
X104366900Y-94672468D01*
X104366900Y-94531132D01*
X104339327Y-94392513D01*
X104285241Y-94261936D01*
X104206719Y-94144420D01*
X104106780Y-94044481D01*
X103989264Y-93965959D01*
X103858687Y-93911873D01*
X103720068Y-93884300D01*
X103578732Y-93884300D01*
X103440113Y-93911873D01*
X103309536Y-93965959D01*
X103192020Y-94044481D01*
X103092081Y-94144420D01*
X103013559Y-94261936D01*
X102959473Y-94392513D01*
X102931900Y-94531132D01*
X102931900Y-94672468D01*
X102959473Y-94811087D01*
X103013559Y-94941664D01*
X103092081Y-95059180D01*
X103192020Y-95159119D01*
X103206900Y-95169062D01*
X103206901Y-97666119D01*
X102921229Y-97951791D01*
X102903678Y-97948300D01*
X102762342Y-97948300D01*
X102623723Y-97975873D01*
X102550500Y-98006203D01*
X102550500Y-97506937D01*
X102552641Y-97485200D01*
X102544097Y-97398455D01*
X102518795Y-97315043D01*
X102477705Y-97238171D01*
X102436265Y-97187675D01*
X102422409Y-97170791D01*
X102405525Y-97156935D01*
X102263209Y-97014619D01*
X102266700Y-96997068D01*
X102266700Y-96855732D01*
X102239127Y-96717113D01*
X102185041Y-96586536D01*
X102106519Y-96469020D01*
X102006580Y-96369081D01*
X101889064Y-96290559D01*
X101758487Y-96236473D01*
X101619868Y-96208900D01*
X101478532Y-96208900D01*
X101339913Y-96236473D01*
X101209336Y-96290559D01*
X101091820Y-96369081D01*
X100991881Y-96469020D01*
X100913359Y-96586536D01*
X100859273Y-96717113D01*
X100831700Y-96855732D01*
X100831700Y-96997068D01*
X100859273Y-97135687D01*
X100913359Y-97266264D01*
X100991881Y-97383780D01*
X101091820Y-97483719D01*
X101209336Y-97562241D01*
X101339913Y-97616327D01*
X101478532Y-97643900D01*
X101619868Y-97643900D01*
X101637419Y-97640409D01*
X101665501Y-97668491D01*
X101665500Y-113313999D01*
X101522329Y-113373302D01*
X101322642Y-113506729D01*
X101152823Y-113676548D01*
X101019396Y-113876235D01*
X100927490Y-114098116D01*
X100880637Y-114333662D01*
X100880637Y-114573824D01*
X100927490Y-114809370D01*
X101019396Y-115031251D01*
X101152823Y-115230938D01*
X101322642Y-115400757D01*
X101522329Y-115534184D01*
X101744210Y-115626090D01*
X101979756Y-115672943D01*
X102219918Y-115672943D01*
X102455464Y-115626090D01*
X102677345Y-115534184D01*
X102877032Y-115400757D01*
X103046851Y-115230938D01*
X103180278Y-115031251D01*
X103272184Y-114809370D01*
X103319037Y-114573824D01*
X103319037Y-114333662D01*
X103272184Y-114098116D01*
X103180278Y-113876235D01*
X103046851Y-113676548D01*
X102877032Y-113506729D01*
X102677345Y-113373302D01*
X102550500Y-113320761D01*
X102550500Y-108314523D01*
X102671622Y-108495794D01*
X102901586Y-108725758D01*
X103171995Y-108906440D01*
X103472458Y-109030896D01*
X103791428Y-109094343D01*
X104116646Y-109094343D01*
X104435616Y-109030896D01*
X104736079Y-108906440D01*
X105006488Y-108725758D01*
X105236452Y-108495794D01*
X105417134Y-108225385D01*
X105541590Y-107924922D01*
X105567501Y-107794660D01*
X105567501Y-135737500D01*
X77042500Y-135737500D01*
X77042500Y-107796302D01*
X77068084Y-107924922D01*
X77192540Y-108225385D01*
X77373222Y-108495794D01*
X77603186Y-108725758D01*
X77873595Y-108906440D01*
X78174058Y-109030896D01*
X78493028Y-109094343D01*
X78818246Y-109094343D01*
X78837200Y-109090573D01*
X77883676Y-110044097D01*
X77866792Y-110057953D01*
X77852936Y-110074837D01*
X77852935Y-110074838D01*
X77811495Y-110125333D01*
X77770405Y-110202206D01*
X77745104Y-110285617D01*
X77736559Y-110372362D01*
X77738701Y-110394107D01*
X77738700Y-128776629D01*
X77736559Y-128798363D01*
X77738700Y-128820097D01*
X77738700Y-128820099D01*
X77745103Y-128885107D01*
X77751260Y-128905403D01*
X77770405Y-128968519D01*
X77811495Y-129045392D01*
X77835089Y-129074142D01*
X77866791Y-129112772D01*
X77883681Y-129126633D01*
X81884812Y-133127764D01*
X81816431Y-133292850D01*
X81767137Y-133540665D01*
X81767137Y-133793335D01*
X81816431Y-134041150D01*
X81913123Y-134274586D01*
X82053499Y-134484673D01*
X82232164Y-134663338D01*
X82442251Y-134803714D01*
X82675687Y-134900406D01*
X82923502Y-134949700D01*
X83176172Y-134949700D01*
X83423987Y-134900406D01*
X83657423Y-134803714D01*
X83867510Y-134663338D01*
X84046175Y-134484673D01*
X84186551Y-134274586D01*
X84283243Y-134041150D01*
X84332537Y-133793335D01*
X84332537Y-133540665D01*
X84283243Y-133292850D01*
X84186551Y-133059414D01*
X84046175Y-132849327D01*
X83867510Y-132670662D01*
X83657423Y-132530286D01*
X83423987Y-132433594D01*
X83176172Y-132384300D01*
X82923502Y-132384300D01*
X82675687Y-132433594D01*
X82510601Y-132501975D01*
X81257905Y-131249279D01*
X88955500Y-131249279D01*
X88955500Y-131461921D01*
X88996985Y-131670478D01*
X89078360Y-131866935D01*
X89196498Y-132043741D01*
X89346859Y-132194102D01*
X89523665Y-132312240D01*
X89720122Y-132393615D01*
X89928679Y-132435100D01*
X90141321Y-132435100D01*
X90349878Y-132393615D01*
X90546335Y-132312240D01*
X90723141Y-132194102D01*
X90873502Y-132043741D01*
X90991640Y-131866935D01*
X91073015Y-131670478D01*
X91114500Y-131461921D01*
X91114500Y-131249279D01*
X91073015Y-131040722D01*
X90991640Y-130844265D01*
X90873502Y-130667459D01*
X90799643Y-130593600D01*
X91493964Y-130593600D01*
X91493964Y-132117600D01*
X91500094Y-132179841D01*
X91518249Y-132239690D01*
X91547731Y-132294847D01*
X91587407Y-132343193D01*
X91635753Y-132382869D01*
X91690910Y-132412351D01*
X91750759Y-132430506D01*
X91813000Y-132436636D01*
X93337000Y-132436636D01*
X93399241Y-132430506D01*
X93459090Y-132412351D01*
X93514247Y-132382869D01*
X93562593Y-132343193D01*
X93602269Y-132294847D01*
X93631751Y-132239690D01*
X93649906Y-132179841D01*
X93656036Y-132117600D01*
X93656036Y-130593600D01*
X93649906Y-130531359D01*
X93631751Y-130471510D01*
X93602269Y-130416353D01*
X93562593Y-130368007D01*
X93514247Y-130328331D01*
X93459090Y-130298849D01*
X93399241Y-130280694D01*
X93337000Y-130274564D01*
X91813000Y-130274564D01*
X91750759Y-130280694D01*
X91690910Y-130298849D01*
X91635753Y-130328331D01*
X91587407Y-130368007D01*
X91547731Y-130416353D01*
X91518249Y-130471510D01*
X91500094Y-130531359D01*
X91493964Y-130593600D01*
X90799643Y-130593600D01*
X90723141Y-130517098D01*
X90546335Y-130398960D01*
X90349878Y-130317585D01*
X90141321Y-130276100D01*
X89928679Y-130276100D01*
X89720122Y-130317585D01*
X89523665Y-130398960D01*
X89346859Y-130517098D01*
X89196498Y-130667459D01*
X89078360Y-130844265D01*
X88996985Y-131040722D01*
X88955500Y-131249279D01*
X81257905Y-131249279D01*
X78623700Y-128615074D01*
X78623700Y-128271143D01*
X81132337Y-128271143D01*
X81132337Y-128648857D01*
X81206025Y-129019314D01*
X81350571Y-129368277D01*
X81560417Y-129682335D01*
X81827502Y-129949420D01*
X82141560Y-130159266D01*
X82490523Y-130303812D01*
X82860980Y-130377500D01*
X83238694Y-130377500D01*
X83609151Y-130303812D01*
X83958114Y-130159266D01*
X84272172Y-129949420D01*
X84539257Y-129682335D01*
X84614335Y-129569971D01*
X89370432Y-129569971D01*
X89449881Y-129728979D01*
X89639315Y-129825580D01*
X89843955Y-129883368D01*
X90055937Y-129900122D01*
X90267115Y-129875198D01*
X90469372Y-129809555D01*
X90620119Y-129728979D01*
X90699568Y-129569971D01*
X91910432Y-129569971D01*
X91989881Y-129728979D01*
X92179315Y-129825580D01*
X92383955Y-129883368D01*
X92595937Y-129900122D01*
X92807115Y-129875198D01*
X93009372Y-129809555D01*
X93160119Y-129728979D01*
X93239568Y-129569971D01*
X92575000Y-128905403D01*
X91910432Y-129569971D01*
X90699568Y-129569971D01*
X90035000Y-128905403D01*
X89370432Y-129569971D01*
X84614335Y-129569971D01*
X84749103Y-129368277D01*
X84893649Y-129019314D01*
X84930005Y-128836537D01*
X88950478Y-128836537D01*
X88975402Y-129047715D01*
X89041045Y-129249972D01*
X89121621Y-129400719D01*
X89280629Y-129480168D01*
X89945197Y-128815600D01*
X90124803Y-128815600D01*
X90789371Y-129480168D01*
X90948379Y-129400719D01*
X91044980Y-129211285D01*
X91102768Y-129006645D01*
X91116212Y-128836537D01*
X91490478Y-128836537D01*
X91515402Y-129047715D01*
X91581045Y-129249972D01*
X91661621Y-129400719D01*
X91820629Y-129480168D01*
X92485197Y-128815600D01*
X92664803Y-128815600D01*
X93329371Y-129480168D01*
X93488379Y-129400719D01*
X93584980Y-129211285D01*
X93642768Y-129006645D01*
X93659522Y-128794663D01*
X93634598Y-128583485D01*
X93568955Y-128381228D01*
X93488379Y-128230481D01*
X93329371Y-128151032D01*
X92664803Y-128815600D01*
X92485197Y-128815600D01*
X91820629Y-128151032D01*
X91661621Y-128230481D01*
X91565020Y-128419915D01*
X91507232Y-128624555D01*
X91490478Y-128836537D01*
X91116212Y-128836537D01*
X91119522Y-128794663D01*
X91094598Y-128583485D01*
X91028955Y-128381228D01*
X90948379Y-128230481D01*
X90789371Y-128151032D01*
X90124803Y-128815600D01*
X89945197Y-128815600D01*
X89280629Y-128151032D01*
X89121621Y-128230481D01*
X89025020Y-128419915D01*
X88967232Y-128624555D01*
X88950478Y-128836537D01*
X84930005Y-128836537D01*
X84967337Y-128648857D01*
X84967337Y-128271143D01*
X84925583Y-128061229D01*
X89370432Y-128061229D01*
X90035000Y-128725797D01*
X90699568Y-128061229D01*
X91910432Y-128061229D01*
X92575000Y-128725797D01*
X93239568Y-128061229D01*
X93160119Y-127902221D01*
X92970685Y-127805620D01*
X92766045Y-127747832D01*
X92554063Y-127731078D01*
X92342885Y-127756002D01*
X92140628Y-127821645D01*
X91989881Y-127902221D01*
X91910432Y-128061229D01*
X90699568Y-128061229D01*
X90620119Y-127902221D01*
X90430685Y-127805620D01*
X90226045Y-127747832D01*
X90014063Y-127731078D01*
X89802885Y-127756002D01*
X89600628Y-127821645D01*
X89449881Y-127902221D01*
X89370432Y-128061229D01*
X84925583Y-128061229D01*
X84893649Y-127900686D01*
X84749103Y-127551723D01*
X84539257Y-127237665D01*
X84331563Y-127029971D01*
X89370432Y-127029971D01*
X89449881Y-127188979D01*
X89639315Y-127285580D01*
X89843955Y-127343368D01*
X90055937Y-127360122D01*
X90267115Y-127335198D01*
X90469372Y-127269555D01*
X90620119Y-127188979D01*
X90699568Y-127029971D01*
X91910432Y-127029971D01*
X91989881Y-127188979D01*
X92179315Y-127285580D01*
X92383955Y-127343368D01*
X92595937Y-127360122D01*
X92807115Y-127335198D01*
X93009372Y-127269555D01*
X93160119Y-127188979D01*
X93239568Y-127029971D01*
X92575000Y-126365403D01*
X91910432Y-127029971D01*
X90699568Y-127029971D01*
X90035000Y-126365403D01*
X89370432Y-127029971D01*
X84331563Y-127029971D01*
X84272172Y-126970580D01*
X83958114Y-126760734D01*
X83609151Y-126616188D01*
X83238694Y-126542500D01*
X82860980Y-126542500D01*
X82490523Y-126616188D01*
X82141560Y-126760734D01*
X81827502Y-126970580D01*
X81560417Y-127237665D01*
X81350571Y-127551723D01*
X81206025Y-127900686D01*
X81132337Y-128271143D01*
X78623700Y-128271143D01*
X78623700Y-124980865D01*
X81767137Y-124980865D01*
X81767137Y-125233535D01*
X81816431Y-125481350D01*
X81913123Y-125714786D01*
X82053499Y-125924873D01*
X82232164Y-126103538D01*
X82442251Y-126243914D01*
X82675687Y-126340606D01*
X82923502Y-126389900D01*
X83176172Y-126389900D01*
X83423987Y-126340606D01*
X83530379Y-126296537D01*
X88950478Y-126296537D01*
X88975402Y-126507715D01*
X89041045Y-126709972D01*
X89121621Y-126860719D01*
X89280629Y-126940168D01*
X89945197Y-126275600D01*
X90124803Y-126275600D01*
X90789371Y-126940168D01*
X90948379Y-126860719D01*
X91044980Y-126671285D01*
X91102768Y-126466645D01*
X91116212Y-126296537D01*
X91490478Y-126296537D01*
X91515402Y-126507715D01*
X91581045Y-126709972D01*
X91661621Y-126860719D01*
X91820629Y-126940168D01*
X92485197Y-126275600D01*
X92664803Y-126275600D01*
X93329371Y-126940168D01*
X93488379Y-126860719D01*
X93584980Y-126671285D01*
X93642768Y-126466645D01*
X93659522Y-126254663D01*
X93634598Y-126043485D01*
X93568955Y-125841228D01*
X93488379Y-125690481D01*
X93329371Y-125611032D01*
X92664803Y-126275600D01*
X92485197Y-126275600D01*
X91820629Y-125611032D01*
X91661621Y-125690481D01*
X91565020Y-125879915D01*
X91507232Y-126084555D01*
X91490478Y-126296537D01*
X91116212Y-126296537D01*
X91119522Y-126254663D01*
X91094598Y-126043485D01*
X91028955Y-125841228D01*
X90948379Y-125690481D01*
X90789371Y-125611032D01*
X90124803Y-126275600D01*
X89945197Y-126275600D01*
X89280629Y-125611032D01*
X89121621Y-125690481D01*
X89025020Y-125879915D01*
X88967232Y-126084555D01*
X88950478Y-126296537D01*
X83530379Y-126296537D01*
X83657423Y-126243914D01*
X83867510Y-126103538D01*
X84046175Y-125924873D01*
X84186551Y-125714786D01*
X84266724Y-125521229D01*
X89370432Y-125521229D01*
X90035000Y-126185797D01*
X90699568Y-125521229D01*
X91910432Y-125521229D01*
X92575000Y-126185797D01*
X93239568Y-125521229D01*
X93160119Y-125362221D01*
X92970685Y-125265620D01*
X92766045Y-125207832D01*
X92554063Y-125191078D01*
X92342885Y-125216002D01*
X92140628Y-125281645D01*
X91989881Y-125362221D01*
X91910432Y-125521229D01*
X90699568Y-125521229D01*
X90620119Y-125362221D01*
X90430685Y-125265620D01*
X90226045Y-125207832D01*
X90014063Y-125191078D01*
X89802885Y-125216002D01*
X89600628Y-125281645D01*
X89449881Y-125362221D01*
X89370432Y-125521229D01*
X84266724Y-125521229D01*
X84283243Y-125481350D01*
X84332537Y-125233535D01*
X84332537Y-124980865D01*
X84283243Y-124733050D01*
X84214862Y-124567964D01*
X84292855Y-124489971D01*
X89370432Y-124489971D01*
X89449881Y-124648979D01*
X89639315Y-124745580D01*
X89843955Y-124803368D01*
X90055937Y-124820122D01*
X90267115Y-124795198D01*
X90469372Y-124729555D01*
X90620119Y-124648979D01*
X90699568Y-124489971D01*
X91910432Y-124489971D01*
X91989881Y-124648979D01*
X92179315Y-124745580D01*
X92383955Y-124803368D01*
X92595937Y-124820122D01*
X92807115Y-124795198D01*
X93009372Y-124729555D01*
X93160119Y-124648979D01*
X93239568Y-124489971D01*
X92575000Y-123825403D01*
X91910432Y-124489971D01*
X90699568Y-124489971D01*
X90035000Y-123825403D01*
X89370432Y-124489971D01*
X84292855Y-124489971D01*
X85026289Y-123756537D01*
X88950478Y-123756537D01*
X88975402Y-123967715D01*
X89041045Y-124169972D01*
X89121621Y-124320719D01*
X89280629Y-124400168D01*
X89945197Y-123735600D01*
X90124803Y-123735600D01*
X90789371Y-124400168D01*
X90948379Y-124320719D01*
X91044980Y-124131285D01*
X91102768Y-123926645D01*
X91116212Y-123756537D01*
X91490478Y-123756537D01*
X91515402Y-123967715D01*
X91581045Y-124169972D01*
X91661621Y-124320719D01*
X91820629Y-124400168D01*
X92485197Y-123735600D01*
X92664803Y-123735600D01*
X93329371Y-124400168D01*
X93488379Y-124320719D01*
X93584980Y-124131285D01*
X93642768Y-123926645D01*
X93659522Y-123714663D01*
X93634598Y-123503485D01*
X93568955Y-123301228D01*
X93488379Y-123150481D01*
X93329371Y-123071032D01*
X92664803Y-123735600D01*
X92485197Y-123735600D01*
X91820629Y-123071032D01*
X91661621Y-123150481D01*
X91565020Y-123339915D01*
X91507232Y-123544555D01*
X91490478Y-123756537D01*
X91116212Y-123756537D01*
X91119522Y-123714663D01*
X91094598Y-123503485D01*
X91028955Y-123301228D01*
X90948379Y-123150481D01*
X90789371Y-123071032D01*
X90124803Y-123735600D01*
X89945197Y-123735600D01*
X89280629Y-123071032D01*
X89121621Y-123150481D01*
X89025020Y-123339915D01*
X88967232Y-123544555D01*
X88950478Y-123756537D01*
X85026289Y-123756537D01*
X85801597Y-122981229D01*
X89370432Y-122981229D01*
X90035000Y-123645797D01*
X90699568Y-122981229D01*
X91910432Y-122981229D01*
X92575000Y-123645797D01*
X93239568Y-122981229D01*
X93160119Y-122822221D01*
X92970685Y-122725620D01*
X92766045Y-122667832D01*
X92554063Y-122651078D01*
X92342885Y-122676002D01*
X92140628Y-122741645D01*
X91989881Y-122822221D01*
X91910432Y-122981229D01*
X90699568Y-122981229D01*
X90620119Y-122822221D01*
X90430685Y-122725620D01*
X90226045Y-122667832D01*
X90014063Y-122651078D01*
X89802885Y-122676002D01*
X89600628Y-122741645D01*
X89449881Y-122822221D01*
X89370432Y-122981229D01*
X85801597Y-122981229D01*
X87693547Y-121089279D01*
X88955500Y-121089279D01*
X88955500Y-121301921D01*
X88996985Y-121510478D01*
X89078360Y-121706935D01*
X89196498Y-121883741D01*
X89346859Y-122034102D01*
X89523665Y-122152240D01*
X89720122Y-122233615D01*
X89928679Y-122275100D01*
X90141321Y-122275100D01*
X90349878Y-122233615D01*
X90546335Y-122152240D01*
X90723141Y-122034102D01*
X90873502Y-121883741D01*
X90991640Y-121706935D01*
X91073015Y-121510478D01*
X91114500Y-121301921D01*
X91114500Y-121089279D01*
X91495500Y-121089279D01*
X91495500Y-121301921D01*
X91536985Y-121510478D01*
X91618360Y-121706935D01*
X91736498Y-121883741D01*
X91886859Y-122034102D01*
X92063665Y-122152240D01*
X92260122Y-122233615D01*
X92468679Y-122275100D01*
X92681321Y-122275100D01*
X92889878Y-122233615D01*
X93086335Y-122152240D01*
X93263141Y-122034102D01*
X93413502Y-121883741D01*
X93531640Y-121706935D01*
X93613015Y-121510478D01*
X93654500Y-121301921D01*
X93654500Y-121089279D01*
X93613015Y-120880722D01*
X93531640Y-120684265D01*
X93413502Y-120507459D01*
X93263141Y-120357098D01*
X93086335Y-120238960D01*
X92889878Y-120157585D01*
X92681321Y-120116100D01*
X92468679Y-120116100D01*
X92260122Y-120157585D01*
X92063665Y-120238960D01*
X91886859Y-120357098D01*
X91736498Y-120507459D01*
X91618360Y-120684265D01*
X91536985Y-120880722D01*
X91495500Y-121089279D01*
X91114500Y-121089279D01*
X91073015Y-120880722D01*
X90991640Y-120684265D01*
X90873502Y-120507459D01*
X90723141Y-120357098D01*
X90546335Y-120238960D01*
X90349878Y-120157585D01*
X90141321Y-120116100D01*
X89928679Y-120116100D01*
X89720122Y-120157585D01*
X89523665Y-120238960D01*
X89346859Y-120357098D01*
X89196498Y-120507459D01*
X89078360Y-120684265D01*
X88996985Y-120880722D01*
X88955500Y-121089279D01*
X87693547Y-121089279D01*
X89545121Y-119237705D01*
X89562009Y-119223846D01*
X89617305Y-119156466D01*
X89658395Y-119079594D01*
X89683697Y-118996182D01*
X89690100Y-118931174D01*
X89690100Y-118931172D01*
X89692241Y-118909438D01*
X89690100Y-118887704D01*
X89690100Y-103474862D01*
X89704980Y-103464919D01*
X89804919Y-103364980D01*
X89883441Y-103247464D01*
X89937527Y-103116887D01*
X89950100Y-103053677D01*
X89950100Y-108035940D01*
X89947356Y-108063800D01*
X89950100Y-108091660D01*
X89950100Y-108091670D01*
X89958312Y-108175048D01*
X89990762Y-108282022D01*
X90043459Y-108380611D01*
X90114376Y-108467024D01*
X90136029Y-108484794D01*
X93658501Y-112007268D01*
X93658500Y-122209139D01*
X93655756Y-122237000D01*
X93658500Y-122264860D01*
X93658500Y-122264870D01*
X93666712Y-122348248D01*
X93699162Y-122455222D01*
X93751859Y-122553811D01*
X93822776Y-122640224D01*
X93844429Y-122657994D01*
X97474475Y-126288041D01*
X97498473Y-126408687D01*
X97552559Y-126539264D01*
X97631081Y-126656780D01*
X97731020Y-126756719D01*
X97848536Y-126835241D01*
X97979113Y-126889327D01*
X98117732Y-126916900D01*
X98259068Y-126916900D01*
X98397687Y-126889327D01*
X98528264Y-126835241D01*
X98645780Y-126756719D01*
X98745719Y-126656780D01*
X98824241Y-126539264D01*
X98878327Y-126408687D01*
X98905900Y-126270068D01*
X98905900Y-126128732D01*
X98878327Y-125990113D01*
X98824241Y-125859536D01*
X98745719Y-125742020D01*
X98645780Y-125642081D01*
X98528264Y-125563559D01*
X98397687Y-125509473D01*
X98277041Y-125485475D01*
X94793500Y-122001935D01*
X94793500Y-118693305D01*
X94864176Y-118779424D01*
X94885829Y-118797194D01*
X96382275Y-120293642D01*
X96406273Y-120414287D01*
X96460359Y-120544864D01*
X96538881Y-120662380D01*
X96638820Y-120762319D01*
X96756336Y-120840841D01*
X96886913Y-120894927D01*
X97025532Y-120922500D01*
X97166868Y-120922500D01*
X97305487Y-120894927D01*
X97436064Y-120840841D01*
X97553580Y-120762319D01*
X97653519Y-120662380D01*
X97732041Y-120544864D01*
X97786127Y-120414287D01*
X97813700Y-120275668D01*
X97813700Y-120134332D01*
X97786127Y-119995713D01*
X97732041Y-119865136D01*
X97653519Y-119747620D01*
X97553580Y-119647681D01*
X97436064Y-119569159D01*
X97305487Y-119515073D01*
X97184842Y-119491075D01*
X95834900Y-118141135D01*
X95834900Y-114746076D01*
X95847490Y-114809370D01*
X95939396Y-115031251D01*
X96072823Y-115230938D01*
X96242642Y-115400757D01*
X96442329Y-115534184D01*
X96664210Y-115626090D01*
X96899756Y-115672943D01*
X97139918Y-115672943D01*
X97375464Y-115626090D01*
X97597345Y-115534184D01*
X97797032Y-115400757D01*
X97890241Y-115307548D01*
X98795834Y-115307548D01*
X98892082Y-115480861D01*
X99105294Y-115591398D01*
X99335973Y-115658215D01*
X99575255Y-115678745D01*
X99813945Y-115652199D01*
X100042870Y-115579597D01*
X100227592Y-115480861D01*
X100323840Y-115307548D01*
X99559837Y-114543546D01*
X98795834Y-115307548D01*
X97890241Y-115307548D01*
X97966851Y-115230938D01*
X98100278Y-115031251D01*
X98192184Y-114809370D01*
X98239037Y-114573824D01*
X98239037Y-114469161D01*
X98334835Y-114469161D01*
X98361381Y-114707851D01*
X98433983Y-114936776D01*
X98532719Y-115121498D01*
X98706032Y-115217746D01*
X99470034Y-114453743D01*
X99649640Y-114453743D01*
X100413642Y-115217746D01*
X100586955Y-115121498D01*
X100697492Y-114908286D01*
X100764309Y-114677607D01*
X100784839Y-114438325D01*
X100758293Y-114199635D01*
X100685691Y-113970710D01*
X100586955Y-113785988D01*
X100413642Y-113689740D01*
X99649640Y-114453743D01*
X99470034Y-114453743D01*
X98706032Y-113689740D01*
X98532719Y-113785988D01*
X98422182Y-113999200D01*
X98355365Y-114229879D01*
X98334835Y-114469161D01*
X98239037Y-114469161D01*
X98239037Y-114333662D01*
X98192184Y-114098116D01*
X98100278Y-113876235D01*
X97966851Y-113676548D01*
X97890241Y-113599938D01*
X98795834Y-113599938D01*
X99559837Y-114363940D01*
X100323840Y-113599938D01*
X100227592Y-113426625D01*
X100014380Y-113316088D01*
X99783701Y-113249271D01*
X99544419Y-113228741D01*
X99305729Y-113255287D01*
X99076804Y-113327889D01*
X98892082Y-113426625D01*
X98795834Y-113599938D01*
X97890241Y-113599938D01*
X97797032Y-113506729D01*
X97597345Y-113373302D01*
X97470500Y-113320761D01*
X97470500Y-112086533D01*
X97472641Y-112064799D01*
X97465315Y-111990424D01*
X97464097Y-111978055D01*
X97438795Y-111894643D01*
X97397705Y-111817771D01*
X97342409Y-111750391D01*
X97325521Y-111736532D01*
X97234009Y-111645020D01*
X97237500Y-111627468D01*
X97237500Y-111486132D01*
X97209927Y-111347513D01*
X97155841Y-111216936D01*
X97077319Y-111099420D01*
X96977380Y-110999481D01*
X96859864Y-110920959D01*
X96729287Y-110866873D01*
X96590668Y-110839300D01*
X96449332Y-110839300D01*
X96310713Y-110866873D01*
X96180136Y-110920959D01*
X96062620Y-110999481D01*
X95962681Y-111099420D01*
X95884159Y-111216936D01*
X95834900Y-111335859D01*
X95834900Y-111190459D01*
X95837644Y-111162599D01*
X95834900Y-111134739D01*
X95834900Y-111134729D01*
X95826688Y-111051351D01*
X95794238Y-110944377D01*
X95741541Y-110845789D01*
X95670624Y-110759376D01*
X95648976Y-110741610D01*
X93244100Y-108336735D01*
X93244100Y-107280734D01*
X93514637Y-107280734D01*
X93514637Y-107605952D01*
X93578084Y-107924922D01*
X93702540Y-108225385D01*
X93883222Y-108495794D01*
X94113186Y-108725758D01*
X94383595Y-108906440D01*
X94684058Y-109030896D01*
X95003028Y-109094343D01*
X95328246Y-109094343D01*
X95647216Y-109030896D01*
X95947679Y-108906440D01*
X96218088Y-108725758D01*
X96448052Y-108495794D01*
X96628734Y-108225385D01*
X96753190Y-107924922D01*
X96816637Y-107605952D01*
X96816637Y-107280734D01*
X96753190Y-106961764D01*
X96628734Y-106661301D01*
X96448052Y-106390892D01*
X96218088Y-106160928D01*
X95947679Y-105980246D01*
X95647216Y-105855790D01*
X95328246Y-105792343D01*
X95003028Y-105792343D01*
X94684058Y-105855790D01*
X94383595Y-105980246D01*
X94113186Y-106160928D01*
X93883222Y-106390892D01*
X93702540Y-106661301D01*
X93578084Y-106961764D01*
X93514637Y-107280734D01*
X93244100Y-107280734D01*
X93244100Y-87168300D01*
X94266457Y-87168300D01*
X94368736Y-87236641D01*
X94499313Y-87290727D01*
X94637932Y-87318300D01*
X94779268Y-87318300D01*
X94917887Y-87290727D01*
X95048464Y-87236641D01*
X95165980Y-87158119D01*
X95180500Y-87143599D01*
X95180501Y-103661138D01*
X95165620Y-103671081D01*
X95065681Y-103771020D01*
X94987159Y-103888536D01*
X94933073Y-104019113D01*
X94905500Y-104157732D01*
X94905500Y-104299068D01*
X94933073Y-104437687D01*
X94987159Y-104568264D01*
X95065681Y-104685780D01*
X95165620Y-104785719D01*
X95283136Y-104864241D01*
X95413713Y-104918327D01*
X95552332Y-104945900D01*
X95693668Y-104945900D01*
X95832287Y-104918327D01*
X95962864Y-104864241D01*
X96080380Y-104785719D01*
X96180319Y-104685780D01*
X96258841Y-104568264D01*
X96312927Y-104437687D01*
X96340500Y-104299068D01*
X96340500Y-104157732D01*
X96312927Y-104019113D01*
X96258841Y-103888536D01*
X96180319Y-103771020D01*
X96080380Y-103671081D01*
X96065500Y-103661138D01*
X96065500Y-90157465D01*
X98277137Y-90157465D01*
X98277137Y-90410135D01*
X98326431Y-90657950D01*
X98423123Y-90891386D01*
X98563499Y-91101473D01*
X98742164Y-91280138D01*
X98952251Y-91420514D01*
X99185687Y-91517206D01*
X99244501Y-91528905D01*
X99244500Y-94872738D01*
X99229620Y-94882681D01*
X99129681Y-94982620D01*
X99051159Y-95100136D01*
X98997073Y-95230713D01*
X98969500Y-95369332D01*
X98969500Y-95510668D01*
X98997073Y-95649287D01*
X99051159Y-95779864D01*
X99129681Y-95897380D01*
X99229620Y-95997319D01*
X99347136Y-96075841D01*
X99477713Y-96129927D01*
X99616332Y-96157500D01*
X99757668Y-96157500D01*
X99896287Y-96129927D01*
X100026864Y-96075841D01*
X100144380Y-95997319D01*
X100244319Y-95897380D01*
X100322841Y-95779864D01*
X100376927Y-95649287D01*
X100404500Y-95510668D01*
X100404500Y-95369332D01*
X100376927Y-95230713D01*
X100322841Y-95100136D01*
X100244319Y-94982620D01*
X100144380Y-94882681D01*
X100129500Y-94872738D01*
X100129500Y-91436222D01*
X100167423Y-91420514D01*
X100377510Y-91280138D01*
X100556175Y-91101473D01*
X100696551Y-90891386D01*
X100793243Y-90657950D01*
X100842537Y-90410135D01*
X100842537Y-90157465D01*
X100793243Y-89909650D01*
X100696551Y-89676214D01*
X100556175Y-89466127D01*
X100377510Y-89287462D01*
X100167423Y-89147086D01*
X99933987Y-89050394D01*
X99686172Y-89001100D01*
X99433502Y-89001100D01*
X99185687Y-89050394D01*
X98952251Y-89147086D01*
X98742164Y-89287462D01*
X98563499Y-89466127D01*
X98423123Y-89676214D01*
X98326431Y-89909650D01*
X98277137Y-90157465D01*
X96065500Y-90157465D01*
X96065500Y-84970479D01*
X98480337Y-84970479D01*
X98480337Y-85183121D01*
X98521822Y-85391678D01*
X98603197Y-85588135D01*
X98721335Y-85764941D01*
X98871696Y-85915302D01*
X99048502Y-86033440D01*
X99244959Y-86114815D01*
X99453516Y-86156300D01*
X99666158Y-86156300D01*
X99874715Y-86114815D01*
X100071172Y-86033440D01*
X100247978Y-85915302D01*
X100398339Y-85764941D01*
X100516477Y-85588135D01*
X100597852Y-85391678D01*
X100639337Y-85183121D01*
X100639337Y-84970479D01*
X100597852Y-84761922D01*
X100516477Y-84565465D01*
X100398339Y-84388659D01*
X100247978Y-84238298D01*
X100071172Y-84120160D01*
X99874715Y-84038785D01*
X99666158Y-83997300D01*
X99453516Y-83997300D01*
X99244959Y-84038785D01*
X99048502Y-84120160D01*
X98871696Y-84238298D01*
X98721335Y-84388659D01*
X98603197Y-84565465D01*
X98521822Y-84761922D01*
X98480337Y-84970479D01*
X96065500Y-84970479D01*
X96065500Y-84285733D01*
X96067641Y-84263999D01*
X96064782Y-84234975D01*
X96059097Y-84177255D01*
X96033795Y-84093843D01*
X96006662Y-84043082D01*
X95992705Y-84016970D01*
X95951265Y-83966475D01*
X95937409Y-83949591D01*
X95920526Y-83935736D01*
X95194009Y-83209219D01*
X95197500Y-83191668D01*
X95197500Y-83050332D01*
X95169927Y-82911713D01*
X95115841Y-82781136D01*
X95037319Y-82663620D01*
X94996688Y-82622989D01*
X98750650Y-82622989D01*
X98854530Y-82802805D01*
X99078546Y-82919675D01*
X99321059Y-82990596D01*
X99572747Y-83012842D01*
X99823940Y-82985559D01*
X100064983Y-82909795D01*
X100265144Y-82802805D01*
X100369024Y-82622989D01*
X99559837Y-81813803D01*
X98750650Y-82622989D01*
X94996688Y-82622989D01*
X94937380Y-82563681D01*
X94922500Y-82553738D01*
X94922500Y-81736910D01*
X98270995Y-81736910D01*
X98298278Y-81988103D01*
X98374042Y-82229146D01*
X98481032Y-82429307D01*
X98660848Y-82533187D01*
X99470034Y-81724000D01*
X99649640Y-81724000D01*
X100458826Y-82533187D01*
X100638642Y-82429307D01*
X100755512Y-82205291D01*
X100826433Y-81962778D01*
X100848679Y-81711090D01*
X100821396Y-81459897D01*
X100745632Y-81218854D01*
X100638642Y-81018693D01*
X100458826Y-80914813D01*
X99649640Y-81724000D01*
X99470034Y-81724000D01*
X98660848Y-80914813D01*
X98481032Y-81018693D01*
X98364162Y-81242709D01*
X98293241Y-81485222D01*
X98270995Y-81736910D01*
X94922500Y-81736910D01*
X94922500Y-80209989D01*
X98750650Y-80209989D01*
X98854530Y-80389805D01*
X99078546Y-80506675D01*
X99118153Y-80518258D01*
X99054691Y-80538205D01*
X98854530Y-80645195D01*
X98750650Y-80825011D01*
X99559837Y-81634197D01*
X100369024Y-80825011D01*
X100265144Y-80645195D01*
X100041128Y-80528325D01*
X100001521Y-80516742D01*
X100064983Y-80496795D01*
X100265144Y-80389805D01*
X100369024Y-80209989D01*
X99559837Y-79400803D01*
X98750650Y-80209989D01*
X94922500Y-80209989D01*
X94922500Y-79323910D01*
X98270995Y-79323910D01*
X98298278Y-79575103D01*
X98374042Y-79816146D01*
X98481032Y-80016307D01*
X98660848Y-80120187D01*
X99470034Y-79311000D01*
X99649640Y-79311000D01*
X100458826Y-80120187D01*
X100638642Y-80016307D01*
X100755512Y-79792291D01*
X100826433Y-79549778D01*
X100848679Y-79298090D01*
X100821396Y-79046897D01*
X100745632Y-78805854D01*
X100638642Y-78605693D01*
X100458826Y-78501813D01*
X99649640Y-79311000D01*
X99470034Y-79311000D01*
X98660848Y-78501813D01*
X98481032Y-78605693D01*
X98364162Y-78829709D01*
X98293241Y-79072222D01*
X98270995Y-79323910D01*
X94922500Y-79323910D01*
X94922500Y-78412011D01*
X98750650Y-78412011D01*
X99559837Y-79221197D01*
X100369024Y-78412011D01*
X100265144Y-78232195D01*
X100041128Y-78115325D01*
X99798615Y-78044404D01*
X99546927Y-78022158D01*
X99295734Y-78049441D01*
X99054691Y-78125205D01*
X98854530Y-78232195D01*
X98750650Y-78412011D01*
X94922500Y-78412011D01*
X94922500Y-76501589D01*
X98750650Y-76501589D01*
X98854530Y-76681405D01*
X99078546Y-76798275D01*
X99321059Y-76869196D01*
X99572747Y-76891442D01*
X99823940Y-76864159D01*
X100064983Y-76788395D01*
X100265144Y-76681405D01*
X100369024Y-76501589D01*
X99559837Y-75692403D01*
X98750650Y-76501589D01*
X94922500Y-76501589D01*
X94922500Y-75615510D01*
X98270995Y-75615510D01*
X98298278Y-75866703D01*
X98374042Y-76107746D01*
X98481032Y-76307907D01*
X98660848Y-76411787D01*
X99470034Y-75602600D01*
X99649640Y-75602600D01*
X100458826Y-76411787D01*
X100638642Y-76307907D01*
X100755512Y-76083891D01*
X100826433Y-75841378D01*
X100848679Y-75589690D01*
X100821396Y-75338497D01*
X100745632Y-75097454D01*
X100638642Y-74897293D01*
X100458826Y-74793413D01*
X99649640Y-75602600D01*
X99470034Y-75602600D01*
X98660848Y-74793413D01*
X98481032Y-74897293D01*
X98364162Y-75121309D01*
X98293241Y-75363822D01*
X98270995Y-75615510D01*
X94922500Y-75615510D01*
X94922500Y-75514399D01*
X94986519Y-75450380D01*
X95065041Y-75332864D01*
X95119127Y-75202287D01*
X95146700Y-75063668D01*
X95146700Y-74922332D01*
X95119127Y-74783713D01*
X95065041Y-74653136D01*
X94986519Y-74535620D01*
X94886580Y-74435681D01*
X94769064Y-74357159D01*
X94638487Y-74303073D01*
X94499868Y-74275500D01*
X94358532Y-74275500D01*
X94219913Y-74303073D01*
X94089336Y-74357159D01*
X93971820Y-74435681D01*
X93871881Y-74535620D01*
X93793359Y-74653136D01*
X93739273Y-74783713D01*
X93711700Y-74922332D01*
X93711700Y-75063668D01*
X93739273Y-75202287D01*
X93793359Y-75332864D01*
X93871881Y-75450380D01*
X93971820Y-75550319D01*
X94037501Y-75594206D01*
X94037500Y-82553738D01*
X94022620Y-82563681D01*
X93922681Y-82663620D01*
X93844159Y-82781136D01*
X93790073Y-82911713D01*
X93762500Y-83050332D01*
X93762500Y-83191668D01*
X93790073Y-83330287D01*
X93844159Y-83460864D01*
X93922681Y-83578380D01*
X94022620Y-83678319D01*
X94140136Y-83756841D01*
X94270713Y-83810927D01*
X94409332Y-83838500D01*
X94550668Y-83838500D01*
X94568219Y-83835009D01*
X95180500Y-84447290D01*
X95180500Y-86058001D01*
X95165980Y-86043481D01*
X95048464Y-85964959D01*
X94917887Y-85910873D01*
X94779268Y-85883300D01*
X94637932Y-85883300D01*
X94499313Y-85910873D01*
X94368736Y-85964959D01*
X94266457Y-86033300D01*
X93244100Y-86033300D01*
X93244100Y-74088589D01*
X98750650Y-74088589D01*
X98854530Y-74268405D01*
X99078546Y-74385275D01*
X99118153Y-74396858D01*
X99054691Y-74416805D01*
X98854530Y-74523795D01*
X98750650Y-74703611D01*
X99559837Y-75512797D01*
X100369024Y-74703611D01*
X100265144Y-74523795D01*
X100041128Y-74406925D01*
X100001521Y-74395342D01*
X100064983Y-74375395D01*
X100265144Y-74268405D01*
X100369024Y-74088589D01*
X99559837Y-73279403D01*
X98750650Y-74088589D01*
X93244100Y-74088589D01*
X93244100Y-73202510D01*
X98270995Y-73202510D01*
X98298278Y-73453703D01*
X98374042Y-73694746D01*
X98481032Y-73894907D01*
X98660848Y-73998787D01*
X99470034Y-73189600D01*
X99649640Y-73189600D01*
X100458826Y-73998787D01*
X100638642Y-73894907D01*
X100755512Y-73670891D01*
X100826433Y-73428378D01*
X100848679Y-73176690D01*
X100821396Y-72925497D01*
X100745632Y-72684454D01*
X100638642Y-72484293D01*
X100458826Y-72380413D01*
X99649640Y-73189600D01*
X99470034Y-73189600D01*
X98660848Y-72380413D01*
X98481032Y-72484293D01*
X98364162Y-72708309D01*
X98293241Y-72950822D01*
X98270995Y-73202510D01*
X93244100Y-73202510D01*
X93244100Y-72290611D01*
X98750650Y-72290611D01*
X99559837Y-73099797D01*
X100369024Y-72290611D01*
X100265144Y-72110795D01*
X100041128Y-71993925D01*
X99798615Y-71923004D01*
X99546927Y-71900758D01*
X99295734Y-71928041D01*
X99054691Y-72003805D01*
X98854530Y-72110795D01*
X98750650Y-72290611D01*
X93244100Y-72290611D01*
X93244100Y-69730479D01*
X98480337Y-69730479D01*
X98480337Y-69943121D01*
X98521822Y-70151678D01*
X98603197Y-70348135D01*
X98721335Y-70524941D01*
X98871696Y-70675302D01*
X99048502Y-70793440D01*
X99244959Y-70874815D01*
X99453516Y-70916300D01*
X99666158Y-70916300D01*
X99874715Y-70874815D01*
X100071172Y-70793440D01*
X100247978Y-70675302D01*
X100398339Y-70524941D01*
X100516477Y-70348135D01*
X100597852Y-70151678D01*
X100639337Y-69943121D01*
X100639337Y-69730479D01*
X100597852Y-69521922D01*
X100516477Y-69325465D01*
X100398339Y-69148659D01*
X100247978Y-68998298D01*
X100071172Y-68880160D01*
X99874715Y-68798785D01*
X99666158Y-68757300D01*
X99453516Y-68757300D01*
X99244959Y-68798785D01*
X99048502Y-68880160D01*
X98871696Y-68998298D01*
X98721335Y-69148659D01*
X98603197Y-69325465D01*
X98521822Y-69521922D01*
X98480337Y-69730479D01*
X93244100Y-69730479D01*
X93244100Y-66365700D01*
X94291857Y-66365700D01*
X94394136Y-66434041D01*
X94524713Y-66488127D01*
X94663332Y-66515700D01*
X94804668Y-66515700D01*
X94943287Y-66488127D01*
X95073864Y-66434041D01*
X95191380Y-66355519D01*
X95291319Y-66255580D01*
X95369841Y-66138064D01*
X95423927Y-66007487D01*
X95451500Y-65868868D01*
X95451500Y-65727532D01*
X95423927Y-65588913D01*
X95369841Y-65458336D01*
X95291319Y-65340820D01*
X95191380Y-65240881D01*
X95073864Y-65162359D01*
X94943287Y-65108273D01*
X94804668Y-65080700D01*
X94663332Y-65080700D01*
X94524713Y-65108273D01*
X94394136Y-65162359D01*
X94291857Y-65230700D01*
X93244100Y-65230700D01*
X93244100Y-57015332D01*
X96505700Y-57015332D01*
X96505700Y-57156668D01*
X96533273Y-57295287D01*
X96587359Y-57425864D01*
X96665881Y-57543380D01*
X96765820Y-57643319D01*
X96780700Y-57653262D01*
X96780701Y-64133800D01*
X96691281Y-64223220D01*
X96612759Y-64340736D01*
X96558673Y-64471313D01*
X96531100Y-64609932D01*
X96531100Y-64751268D01*
X96558673Y-64889887D01*
X96612759Y-65020464D01*
X96691281Y-65137980D01*
X96791220Y-65237919D01*
X96908736Y-65316441D01*
X97039313Y-65370527D01*
X97177932Y-65398100D01*
X97319268Y-65398100D01*
X97457887Y-65370527D01*
X97588464Y-65316441D01*
X97705980Y-65237919D01*
X97805919Y-65137980D01*
X97884441Y-65020464D01*
X97938527Y-64889887D01*
X97966100Y-64751268D01*
X97966100Y-64609932D01*
X97944923Y-64503465D01*
X98277137Y-64503465D01*
X98277137Y-64756135D01*
X98326431Y-65003950D01*
X98423123Y-65237386D01*
X98563499Y-65447473D01*
X98742164Y-65626138D01*
X98952251Y-65766514D01*
X99185687Y-65863206D01*
X99433502Y-65912500D01*
X99686172Y-65912500D01*
X99933987Y-65863206D01*
X100099073Y-65794825D01*
X101987701Y-67683453D01*
X101987700Y-76635538D01*
X101972820Y-76645481D01*
X101872881Y-76745420D01*
X101794359Y-76862936D01*
X101740273Y-76993513D01*
X101712700Y-77132132D01*
X101712700Y-77273468D01*
X101740273Y-77412087D01*
X101794359Y-77542664D01*
X101872881Y-77660180D01*
X101972820Y-77760119D01*
X102090336Y-77838641D01*
X102220913Y-77892727D01*
X102359532Y-77920300D01*
X102500868Y-77920300D01*
X102639487Y-77892727D01*
X102770064Y-77838641D01*
X102887580Y-77760119D01*
X102987519Y-77660180D01*
X103066041Y-77542664D01*
X103120127Y-77412087D01*
X103147700Y-77273468D01*
X103147700Y-77132132D01*
X103120127Y-76993513D01*
X103066041Y-76862936D01*
X102987519Y-76745420D01*
X102887580Y-76645481D01*
X102872700Y-76635538D01*
X102872700Y-67521896D01*
X102874841Y-67500162D01*
X102871570Y-67466956D01*
X102866297Y-67413418D01*
X102840995Y-67330006D01*
X102799905Y-67253134D01*
X102744609Y-67185754D01*
X102727719Y-67171893D01*
X100724862Y-65169036D01*
X100793243Y-65003950D01*
X100842537Y-64756135D01*
X100842537Y-64503465D01*
X100793243Y-64255650D01*
X100696551Y-64022214D01*
X100556175Y-63812127D01*
X100377510Y-63633462D01*
X100167423Y-63493086D01*
X99933987Y-63396394D01*
X99686172Y-63347100D01*
X99433502Y-63347100D01*
X99185687Y-63396394D01*
X98952251Y-63493086D01*
X98742164Y-63633462D01*
X98563499Y-63812127D01*
X98423123Y-64022214D01*
X98326431Y-64255650D01*
X98277137Y-64503465D01*
X97944923Y-64503465D01*
X97938527Y-64471313D01*
X97884441Y-64340736D01*
X97805919Y-64223220D01*
X97705980Y-64123281D01*
X97665700Y-64096367D01*
X97665700Y-57653262D01*
X97680580Y-57643319D01*
X97780519Y-57543380D01*
X97859041Y-57425864D01*
X97913127Y-57295287D01*
X97940700Y-57156668D01*
X97940700Y-57137465D01*
X98277137Y-57137465D01*
X98277137Y-57390135D01*
X98326431Y-57637950D01*
X98423123Y-57871386D01*
X98563499Y-58081473D01*
X98742164Y-58260138D01*
X98952251Y-58400514D01*
X99185687Y-58497206D01*
X99433502Y-58546500D01*
X99686172Y-58546500D01*
X99933987Y-58497206D01*
X100167423Y-58400514D01*
X100377510Y-58260138D01*
X100556175Y-58081473D01*
X100696551Y-57871386D01*
X100793243Y-57637950D01*
X100842537Y-57390135D01*
X100842537Y-57137465D01*
X100793243Y-56889650D01*
X100696551Y-56656214D01*
X100556175Y-56446127D01*
X100377510Y-56267462D01*
X100167423Y-56127086D01*
X99933987Y-56030394D01*
X99686172Y-55981100D01*
X99433502Y-55981100D01*
X99185687Y-56030394D01*
X98952251Y-56127086D01*
X98742164Y-56267462D01*
X98563499Y-56446127D01*
X98423123Y-56656214D01*
X98326431Y-56889650D01*
X98277137Y-57137465D01*
X97940700Y-57137465D01*
X97940700Y-57015332D01*
X97913127Y-56876713D01*
X97859041Y-56746136D01*
X97780519Y-56628620D01*
X97680580Y-56528681D01*
X97563064Y-56450159D01*
X97432487Y-56396073D01*
X97293868Y-56368500D01*
X97152532Y-56368500D01*
X97013913Y-56396073D01*
X96883336Y-56450159D01*
X96765820Y-56528681D01*
X96665881Y-56628620D01*
X96587359Y-56746136D01*
X96533273Y-56876713D01*
X96505700Y-57015332D01*
X93244100Y-57015332D01*
X93244100Y-51950479D01*
X98480337Y-51950479D01*
X98480337Y-52163121D01*
X98521822Y-52371678D01*
X98603197Y-52568135D01*
X98721335Y-52744941D01*
X98871696Y-52895302D01*
X99048502Y-53013440D01*
X99244959Y-53094815D01*
X99453516Y-53136300D01*
X99666158Y-53136300D01*
X99874715Y-53094815D01*
X100071172Y-53013440D01*
X100247978Y-52895302D01*
X100398339Y-52744941D01*
X100516477Y-52568135D01*
X100597852Y-52371678D01*
X100639337Y-52163121D01*
X100639337Y-51950479D01*
X100597852Y-51741922D01*
X100516477Y-51545465D01*
X100398339Y-51368659D01*
X100247978Y-51218298D01*
X100071172Y-51100160D01*
X99874715Y-51018785D01*
X99666158Y-50977300D01*
X99453516Y-50977300D01*
X99244959Y-51018785D01*
X99048502Y-51100160D01*
X98871696Y-51218298D01*
X98721335Y-51368659D01*
X98603197Y-51545465D01*
X98521822Y-51741922D01*
X98480337Y-51950479D01*
X93244100Y-51950479D01*
X93244100Y-49602989D01*
X98750650Y-49602989D01*
X98854530Y-49782805D01*
X99078546Y-49899675D01*
X99321059Y-49970596D01*
X99572747Y-49992842D01*
X99823940Y-49965559D01*
X100064983Y-49889795D01*
X100265144Y-49782805D01*
X100369024Y-49602989D01*
X99559837Y-48793803D01*
X98750650Y-49602989D01*
X93244100Y-49602989D01*
X93244100Y-48716910D01*
X98270995Y-48716910D01*
X98298278Y-48968103D01*
X98374042Y-49209146D01*
X98481032Y-49409307D01*
X98660848Y-49513187D01*
X99470034Y-48704000D01*
X99649640Y-48704000D01*
X100458826Y-49513187D01*
X100638642Y-49409307D01*
X100755512Y-49185291D01*
X100826433Y-48942778D01*
X100848679Y-48691090D01*
X100821396Y-48439897D01*
X100745632Y-48198854D01*
X100638642Y-47998693D01*
X100458826Y-47894813D01*
X99649640Y-48704000D01*
X99470034Y-48704000D01*
X98660848Y-47894813D01*
X98481032Y-47998693D01*
X98364162Y-48222709D01*
X98293241Y-48465222D01*
X98270995Y-48716910D01*
X93244100Y-48716910D01*
X93244100Y-47189989D01*
X98750650Y-47189989D01*
X98854530Y-47369805D01*
X99078546Y-47486675D01*
X99118153Y-47498258D01*
X99054691Y-47518205D01*
X98854530Y-47625195D01*
X98750650Y-47805011D01*
X99559837Y-48614197D01*
X100369024Y-47805011D01*
X100265144Y-47625195D01*
X100041128Y-47508325D01*
X100001521Y-47496742D01*
X100064983Y-47476795D01*
X100265144Y-47369805D01*
X100369024Y-47189989D01*
X99559837Y-46380803D01*
X98750650Y-47189989D01*
X93244100Y-47189989D01*
X93244100Y-46678465D01*
X93618655Y-46303910D01*
X98270995Y-46303910D01*
X98298278Y-46555103D01*
X98374042Y-46796146D01*
X98481032Y-46996307D01*
X98660848Y-47100187D01*
X99470034Y-46291000D01*
X99649640Y-46291000D01*
X100458826Y-47100187D01*
X100638642Y-46996307D01*
X100755512Y-46772291D01*
X100826433Y-46529778D01*
X100848679Y-46278090D01*
X100821396Y-46026897D01*
X100745632Y-45785854D01*
X100638642Y-45585693D01*
X100458826Y-45481813D01*
X99649640Y-46291000D01*
X99470034Y-46291000D01*
X98660848Y-45481813D01*
X98481032Y-45585693D01*
X98364162Y-45809709D01*
X98293241Y-46052222D01*
X98270995Y-46303910D01*
X93618655Y-46303910D01*
X93959041Y-45963525D01*
X94079687Y-45939527D01*
X94210264Y-45885441D01*
X94327780Y-45806919D01*
X94427719Y-45706980D01*
X94506241Y-45589464D01*
X94560327Y-45458887D01*
X94573629Y-45392011D01*
X98750650Y-45392011D01*
X99559837Y-46201197D01*
X100369024Y-45392011D01*
X100265144Y-45212195D01*
X100041128Y-45095325D01*
X99798615Y-45024404D01*
X99546927Y-45002158D01*
X99295734Y-45029441D01*
X99054691Y-45105205D01*
X98854530Y-45212195D01*
X98750650Y-45392011D01*
X94573629Y-45392011D01*
X94587900Y-45320268D01*
X94587900Y-45178932D01*
X94560327Y-45040313D01*
X94506241Y-44909736D01*
X94427719Y-44792220D01*
X94327780Y-44692281D01*
X94210264Y-44613759D01*
X94079687Y-44559673D01*
X93941068Y-44532100D01*
X93799732Y-44532100D01*
X93661113Y-44559673D01*
X93530536Y-44613759D01*
X93413020Y-44692281D01*
X93313081Y-44792220D01*
X93234559Y-44909736D01*
X93180473Y-45040313D01*
X93156475Y-45160959D01*
X92295025Y-46022410D01*
X92273377Y-46040176D01*
X92255611Y-46061824D01*
X92255610Y-46061825D01*
X92202459Y-46126589D01*
X92149763Y-46225177D01*
X92117313Y-46332151D01*
X92106356Y-46443400D01*
X92109101Y-46471271D01*
X92109100Y-65795739D01*
X92106356Y-65823600D01*
X92109100Y-65851460D01*
X92109100Y-65851470D01*
X92109101Y-65851480D01*
X92109100Y-79331948D01*
X92000464Y-79259359D01*
X91869887Y-79205273D01*
X91731268Y-79177700D01*
X91589932Y-79177700D01*
X91451313Y-79205273D01*
X91320736Y-79259359D01*
X91203220Y-79337881D01*
X91103281Y-79437820D01*
X91085100Y-79465030D01*
X91085100Y-64360743D01*
X91153441Y-64258464D01*
X91207527Y-64127887D01*
X91235100Y-63989268D01*
X91235100Y-63847932D01*
X91207527Y-63709313D01*
X91153441Y-63578736D01*
X91085100Y-63476457D01*
X91085100Y-43481589D01*
X98750650Y-43481589D01*
X98854530Y-43661405D01*
X99078546Y-43778275D01*
X99321059Y-43849196D01*
X99572747Y-43871442D01*
X99823940Y-43844159D01*
X100064983Y-43768395D01*
X100265144Y-43661405D01*
X100369024Y-43481589D01*
X99559837Y-42672403D01*
X98750650Y-43481589D01*
X91085100Y-43481589D01*
X91085100Y-42595510D01*
X98270995Y-42595510D01*
X98298278Y-42846703D01*
X98374042Y-43087746D01*
X98481032Y-43287907D01*
X98660848Y-43391787D01*
X99470034Y-42582600D01*
X99649640Y-42582600D01*
X100458826Y-43391787D01*
X100638642Y-43287907D01*
X100755512Y-43063891D01*
X100826433Y-42821378D01*
X100848679Y-42569690D01*
X100821396Y-42318497D01*
X100745632Y-42077454D01*
X100638642Y-41877293D01*
X100458826Y-41773413D01*
X99649640Y-42582600D01*
X99470034Y-42582600D01*
X98660848Y-41773413D01*
X98481032Y-41877293D01*
X98364162Y-42101309D01*
X98293241Y-42343822D01*
X98270995Y-42595510D01*
X91085100Y-42595510D01*
X91085100Y-41068589D01*
X98750650Y-41068589D01*
X98854530Y-41248405D01*
X99078546Y-41365275D01*
X99118153Y-41376858D01*
X99054691Y-41396805D01*
X98854530Y-41503795D01*
X98750650Y-41683611D01*
X99559837Y-42492797D01*
X100369024Y-41683611D01*
X100265144Y-41503795D01*
X100041128Y-41386925D01*
X100001521Y-41375342D01*
X100064983Y-41355395D01*
X100265144Y-41248405D01*
X100369024Y-41068589D01*
X99559837Y-40259403D01*
X98750650Y-41068589D01*
X91085100Y-41068589D01*
X91085100Y-40182510D01*
X98270995Y-40182510D01*
X98298278Y-40433703D01*
X98374042Y-40674746D01*
X98481032Y-40874907D01*
X98660848Y-40978787D01*
X99470034Y-40169600D01*
X99649640Y-40169600D01*
X100458826Y-40978787D01*
X100638642Y-40874907D01*
X100755512Y-40650891D01*
X100826433Y-40408378D01*
X100848679Y-40156690D01*
X100821396Y-39905497D01*
X100745632Y-39664454D01*
X100638642Y-39464293D01*
X100458826Y-39360413D01*
X99649640Y-40169600D01*
X99470034Y-40169600D01*
X98660848Y-39360413D01*
X98481032Y-39464293D01*
X98364162Y-39688309D01*
X98293241Y-39930822D01*
X98270995Y-40182510D01*
X91085100Y-40182510D01*
X91085100Y-39519543D01*
X91153441Y-39417264D01*
X91207527Y-39286687D01*
X91210724Y-39270611D01*
X98750650Y-39270611D01*
X99559837Y-40079797D01*
X100369024Y-39270611D01*
X100265144Y-39090795D01*
X100041128Y-38973925D01*
X99798615Y-38903004D01*
X99546927Y-38880758D01*
X99295734Y-38908041D01*
X99054691Y-38983805D01*
X98854530Y-39090795D01*
X98750650Y-39270611D01*
X91210724Y-39270611D01*
X91235100Y-39148068D01*
X91235100Y-39006732D01*
X91207527Y-38868113D01*
X91153441Y-38737536D01*
X91074919Y-38620020D01*
X90974980Y-38520081D01*
X90857464Y-38441559D01*
X90726887Y-38387473D01*
X90588268Y-38359900D01*
X90446932Y-38359900D01*
X90308313Y-38387473D01*
X90177736Y-38441559D01*
X90060220Y-38520081D01*
X89960281Y-38620020D01*
X89881759Y-38737536D01*
X89827673Y-38868113D01*
X89800100Y-39006732D01*
X89800100Y-39148068D01*
X89827673Y-39286687D01*
X89881759Y-39417264D01*
X89950101Y-39519545D01*
X89950101Y-45327258D01*
X89881119Y-45224020D01*
X89781180Y-45124081D01*
X89663664Y-45045559D01*
X89533087Y-44991473D01*
X89394468Y-44963900D01*
X89253132Y-44963900D01*
X89114513Y-44991473D01*
X88983936Y-45045559D01*
X88866420Y-45124081D01*
X88766481Y-45224020D01*
X88687959Y-45341536D01*
X88633873Y-45472113D01*
X88606300Y-45610732D01*
X88606300Y-45752068D01*
X88633873Y-45890687D01*
X88687959Y-46021264D01*
X88766481Y-46138780D01*
X88866420Y-46238719D01*
X88881300Y-46248662D01*
X88881301Y-49401800D01*
X88842681Y-49440420D01*
X88764159Y-49557936D01*
X88710073Y-49688513D01*
X88682500Y-49827132D01*
X88682500Y-49968468D01*
X88710073Y-50107087D01*
X88764159Y-50237664D01*
X88842681Y-50355180D01*
X88942620Y-50455119D01*
X89060136Y-50533641D01*
X89190713Y-50587727D01*
X89329332Y-50615300D01*
X89470668Y-50615300D01*
X89609287Y-50587727D01*
X89739864Y-50533641D01*
X89857380Y-50455119D01*
X89950101Y-50362398D01*
X89950100Y-55689510D01*
X89555209Y-55294619D01*
X89558700Y-55277068D01*
X89558700Y-55135732D01*
X89531127Y-54997113D01*
X89477041Y-54866536D01*
X89398519Y-54749020D01*
X89298580Y-54649081D01*
X89181064Y-54570559D01*
X89050487Y-54516473D01*
X88911868Y-54488900D01*
X88770532Y-54488900D01*
X88631913Y-54516473D01*
X88501336Y-54570559D01*
X88383820Y-54649081D01*
X88283881Y-54749020D01*
X88205359Y-54866536D01*
X88170502Y-54950689D01*
X88159527Y-54895513D01*
X88105441Y-54764936D01*
X88026919Y-54647420D01*
X87926980Y-54547481D01*
X87809464Y-54468959D01*
X87678887Y-54414873D01*
X87540268Y-54387300D01*
X87398932Y-54387300D01*
X87260313Y-54414873D01*
X87129736Y-54468959D01*
X87012220Y-54547481D01*
X86912281Y-54647420D01*
X86833759Y-54764936D01*
X86779673Y-54895513D01*
X86752100Y-55034132D01*
X86752100Y-55175468D01*
X86779673Y-55314087D01*
X86833759Y-55444664D01*
X86912281Y-55562180D01*
X87012220Y-55662119D01*
X87027100Y-55672062D01*
X87027100Y-56043111D01*
X86456409Y-55472420D01*
X86459900Y-55454868D01*
X86459900Y-55313532D01*
X86432327Y-55174913D01*
X86378241Y-55044336D01*
X86299719Y-54926820D01*
X86199780Y-54826881D01*
X86082264Y-54748359D01*
X85951687Y-54694273D01*
X85813068Y-54666700D01*
X85671732Y-54666700D01*
X85533113Y-54694273D01*
X85402536Y-54748359D01*
X85285020Y-54826881D01*
X85185081Y-54926820D01*
X85106559Y-55044336D01*
X85052473Y-55174913D01*
X85024900Y-55313532D01*
X85024900Y-55454868D01*
X85052473Y-55593487D01*
X85106559Y-55724064D01*
X85185081Y-55841580D01*
X85285020Y-55941519D01*
X85402536Y-56020041D01*
X85533113Y-56074127D01*
X85671732Y-56101700D01*
X85813068Y-56101700D01*
X85830620Y-56098209D01*
X86577090Y-56844679D01*
X86577090Y-58161406D01*
X86443642Y-58087297D01*
X85679640Y-58851300D01*
X86443642Y-59615303D01*
X86577090Y-59541194D01*
X86577091Y-66885331D01*
X86104300Y-67358122D01*
X86104300Y-67226132D01*
X86076727Y-67087513D01*
X86022641Y-66956936D01*
X85944119Y-66839420D01*
X85844180Y-66739481D01*
X85726664Y-66660959D01*
X85596087Y-66606873D01*
X85457468Y-66579300D01*
X85316132Y-66579300D01*
X85177513Y-66606873D01*
X85046936Y-66660959D01*
X84929420Y-66739481D01*
X84829481Y-66839420D01*
X84750959Y-66956936D01*
X84696873Y-67087513D01*
X84669300Y-67226132D01*
X84669300Y-67367468D01*
X84696873Y-67506087D01*
X84750959Y-67636664D01*
X84829481Y-67754180D01*
X84886312Y-67811011D01*
X84886312Y-68093013D01*
X84853580Y-68060281D01*
X84736064Y-67981759D01*
X84605487Y-67927673D01*
X84466868Y-67900100D01*
X84325532Y-67900100D01*
X84186913Y-67927673D01*
X84056336Y-67981759D01*
X83938820Y-68060281D01*
X83838881Y-68160220D01*
X83760359Y-68277736D01*
X83706273Y-68408313D01*
X83678700Y-68546932D01*
X83678700Y-68688268D01*
X83706273Y-68826887D01*
X83760359Y-68957464D01*
X83838881Y-69074980D01*
X83938820Y-69174919D01*
X84056336Y-69253441D01*
X84186913Y-69307527D01*
X84325532Y-69335100D01*
X84436301Y-69335100D01*
X84436300Y-75050847D01*
X83540473Y-75946674D01*
X83405464Y-75890752D01*
X83169918Y-75843899D01*
X82929756Y-75843899D01*
X82694210Y-75890752D01*
X82472329Y-75982658D01*
X82272642Y-76116085D01*
X82102823Y-76285904D01*
X81969396Y-76485591D01*
X81877490Y-76707472D01*
X81830637Y-76943018D01*
X81830637Y-77183180D01*
X81877490Y-77418726D01*
X81969396Y-77640607D01*
X82102823Y-77840294D01*
X82272642Y-78010113D01*
X82472329Y-78143540D01*
X82694210Y-78235446D01*
X82929756Y-78282299D01*
X83169918Y-78282299D01*
X83405464Y-78235446D01*
X83627345Y-78143540D01*
X83827032Y-78010113D01*
X83920241Y-77916904D01*
X84825834Y-77916904D01*
X84922082Y-78090217D01*
X85135294Y-78200754D01*
X85365973Y-78267571D01*
X85605255Y-78288101D01*
X85843945Y-78261555D01*
X86072870Y-78188953D01*
X86257592Y-78090217D01*
X86353840Y-77916904D01*
X85589837Y-77152902D01*
X84825834Y-77916904D01*
X83920241Y-77916904D01*
X83996851Y-77840294D01*
X84130278Y-77640607D01*
X84222184Y-77418726D01*
X84269037Y-77183180D01*
X84269037Y-77078517D01*
X84364835Y-77078517D01*
X84391381Y-77317207D01*
X84463983Y-77546132D01*
X84562719Y-77730854D01*
X84736032Y-77827102D01*
X85500034Y-77063099D01*
X85679640Y-77063099D01*
X86443642Y-77827102D01*
X86616955Y-77730854D01*
X86727492Y-77517642D01*
X86794309Y-77286963D01*
X86814839Y-77047681D01*
X86788293Y-76808991D01*
X86715691Y-76580066D01*
X86616955Y-76395344D01*
X86443642Y-76299096D01*
X85679640Y-77063099D01*
X85500034Y-77063099D01*
X84736032Y-76299096D01*
X84562719Y-76395344D01*
X84452182Y-76608556D01*
X84385365Y-76839235D01*
X84364835Y-77078517D01*
X84269037Y-77078517D01*
X84269037Y-76943018D01*
X84222184Y-76707472D01*
X84166262Y-76572463D01*
X84529431Y-76209294D01*
X84825834Y-76209294D01*
X85589837Y-76973296D01*
X86353840Y-76209294D01*
X86257592Y-76035981D01*
X86044380Y-75925444D01*
X85813701Y-75858627D01*
X85574419Y-75838097D01*
X85335729Y-75864643D01*
X85106804Y-75937245D01*
X84922082Y-76035981D01*
X84825834Y-76209294D01*
X84529431Y-76209294D01*
X85176321Y-75562404D01*
X85193209Y-75548545D01*
X85248505Y-75481165D01*
X85289595Y-75404293D01*
X85314897Y-75320881D01*
X85321300Y-75255873D01*
X85321300Y-75255871D01*
X85323441Y-75234137D01*
X85321300Y-75212403D01*
X85321300Y-73826089D01*
X86171391Y-74676180D01*
X86167900Y-74693732D01*
X86167900Y-74835068D01*
X86195473Y-74973687D01*
X86249559Y-75104264D01*
X86328081Y-75221780D01*
X86428020Y-75321719D01*
X86545536Y-75400241D01*
X86676113Y-75454327D01*
X86814732Y-75481900D01*
X86956068Y-75481900D01*
X87094687Y-75454327D01*
X87225264Y-75400241D01*
X87342780Y-75321719D01*
X87357300Y-75307199D01*
X87357301Y-82740336D01*
X87355159Y-82762081D01*
X87363704Y-82848826D01*
X87389005Y-82932237D01*
X87430095Y-83009110D01*
X87450731Y-83034255D01*
X87485392Y-83076490D01*
X87502276Y-83090346D01*
X87625600Y-83213670D01*
X87606646Y-83209900D01*
X87281428Y-83209900D01*
X86962458Y-83273347D01*
X86661995Y-83397803D01*
X86391586Y-83578485D01*
X86161622Y-83808449D01*
X85980940Y-84078858D01*
X85856484Y-84379321D01*
X85793037Y-84698291D01*
X85793037Y-85023509D01*
X85856484Y-85342479D01*
X85980940Y-85642942D01*
X86161622Y-85913351D01*
X86391586Y-86143315D01*
X86661995Y-86323997D01*
X86962458Y-86448453D01*
X87281428Y-86511900D01*
X87606646Y-86511900D01*
X87925616Y-86448453D01*
X88226079Y-86323997D01*
X88271700Y-86293514D01*
X88271701Y-101869625D01*
X88236218Y-101840506D01*
X88159346Y-101799416D01*
X88075934Y-101774114D01*
X87989189Y-101765569D01*
X87902444Y-101774114D01*
X87819033Y-101799416D01*
X87742160Y-101840506D01*
X87691665Y-101881946D01*
X84987676Y-104585935D01*
X84970792Y-104599791D01*
X84956936Y-104616675D01*
X84956935Y-104616676D01*
X84915495Y-104667171D01*
X84874405Y-104744044D01*
X84849104Y-104827455D01*
X84840559Y-104914200D01*
X84842701Y-104935945D01*
X84842700Y-113486645D01*
X84812642Y-113506729D01*
X84642823Y-113676548D01*
X84509396Y-113876235D01*
X84417490Y-114098116D01*
X84370637Y-114333662D01*
X84370637Y-114573824D01*
X84417490Y-114809370D01*
X84509396Y-115031251D01*
X84642823Y-115230938D01*
X84812642Y-115400757D01*
X85012329Y-115534184D01*
X85234210Y-115626090D01*
X85469756Y-115672943D01*
X85709918Y-115672943D01*
X85945464Y-115626090D01*
X86167345Y-115534184D01*
X86367032Y-115400757D01*
X86536851Y-115230938D01*
X86603300Y-115131490D01*
X86603301Y-119219138D01*
X86588420Y-119229081D01*
X86488481Y-119329020D01*
X86409959Y-119446536D01*
X86355873Y-119577113D01*
X86328300Y-119715732D01*
X86328300Y-119857068D01*
X86355873Y-119995687D01*
X86409959Y-120126264D01*
X86488481Y-120243780D01*
X86588420Y-120343719D01*
X86705936Y-120422241D01*
X86836513Y-120476327D01*
X86975132Y-120503900D01*
X87027348Y-120503900D01*
X83988345Y-123542903D01*
X83948828Y-123503386D01*
X84128642Y-123399507D01*
X84245512Y-123175491D01*
X84316433Y-122932978D01*
X84338679Y-122681290D01*
X84311396Y-122430097D01*
X84235632Y-122189054D01*
X84128642Y-121988893D01*
X83948826Y-121885013D01*
X83139640Y-122694200D01*
X83153782Y-122708342D01*
X83063979Y-122798145D01*
X83049837Y-122784003D01*
X82240650Y-123593189D01*
X82344530Y-123773005D01*
X82568546Y-123889875D01*
X82608591Y-123901586D01*
X82442251Y-123970486D01*
X82232164Y-124110862D01*
X82053499Y-124289527D01*
X81913123Y-124499614D01*
X81816431Y-124733050D01*
X81767137Y-124980865D01*
X78623700Y-124980865D01*
X78623700Y-122707110D01*
X81760995Y-122707110D01*
X81788278Y-122958303D01*
X81864042Y-123199346D01*
X81971032Y-123399507D01*
X82150848Y-123503387D01*
X82960034Y-122694200D01*
X82150848Y-121885013D01*
X81971032Y-121988893D01*
X81854162Y-122212909D01*
X81783241Y-122455422D01*
X81760995Y-122707110D01*
X78623700Y-122707110D01*
X78623700Y-121795211D01*
X82240650Y-121795211D01*
X83049837Y-122604397D01*
X83859024Y-121795211D01*
X83755144Y-121615395D01*
X83531128Y-121498525D01*
X83288615Y-121427604D01*
X83036927Y-121405358D01*
X82785734Y-121432641D01*
X82544691Y-121508405D01*
X82344530Y-121615395D01*
X82240650Y-121795211D01*
X78623700Y-121795211D01*
X78623700Y-116309500D01*
X79800918Y-117486718D01*
X79814779Y-117503608D01*
X79882159Y-117558904D01*
X79959031Y-117599994D01*
X80042443Y-117625296D01*
X80107451Y-117631699D01*
X80107453Y-117631699D01*
X80129187Y-117633840D01*
X80150921Y-117631699D01*
X80705865Y-117631699D01*
X80727599Y-117633840D01*
X80749333Y-117631699D01*
X80749336Y-117631699D01*
X80814344Y-117625296D01*
X80897756Y-117599994D01*
X80974628Y-117558904D01*
X81042008Y-117503608D01*
X81055869Y-117486718D01*
X81369578Y-117173009D01*
X81387130Y-117176500D01*
X81528466Y-117176500D01*
X81667085Y-117148927D01*
X81740299Y-117118601D01*
X81740300Y-118588017D01*
X81731668Y-118586300D01*
X81590332Y-118586300D01*
X81451713Y-118613873D01*
X81321136Y-118667959D01*
X81203620Y-118746481D01*
X81103681Y-118846420D01*
X81025159Y-118963936D01*
X80971073Y-119094513D01*
X80943500Y-119233132D01*
X80943500Y-119374468D01*
X80971073Y-119513087D01*
X81025159Y-119643664D01*
X81103681Y-119761180D01*
X81203620Y-119861119D01*
X81321136Y-119939641D01*
X81451713Y-119993727D01*
X81590332Y-120021300D01*
X81731668Y-120021300D01*
X81870287Y-119993727D01*
X82000864Y-119939641D01*
X82118380Y-119861119D01*
X82218319Y-119761180D01*
X82296841Y-119643664D01*
X82350927Y-119513087D01*
X82378500Y-119374468D01*
X82378500Y-119233132D01*
X82375009Y-119215580D01*
X82480318Y-119110271D01*
X82497208Y-119096410D01*
X82552504Y-119029030D01*
X82593594Y-118952158D01*
X82618896Y-118868746D01*
X82625299Y-118803738D01*
X82625299Y-118803736D01*
X82627440Y-118782002D01*
X82625299Y-118760268D01*
X82625299Y-116148442D01*
X82627440Y-116126705D01*
X82618896Y-116039960D01*
X82593594Y-115956548D01*
X82552504Y-115879676D01*
X82511064Y-115829180D01*
X82497208Y-115812296D01*
X82480325Y-115798441D01*
X81989432Y-115307548D01*
X82285834Y-115307548D01*
X82382082Y-115480861D01*
X82595294Y-115591398D01*
X82825973Y-115658215D01*
X83065255Y-115678745D01*
X83303945Y-115652199D01*
X83532870Y-115579597D01*
X83717592Y-115480861D01*
X83813840Y-115307548D01*
X83049837Y-114543546D01*
X82285834Y-115307548D01*
X81989432Y-115307548D01*
X81626262Y-114944378D01*
X81682184Y-114809370D01*
X81729037Y-114573824D01*
X81729037Y-114469161D01*
X81824835Y-114469161D01*
X81851381Y-114707851D01*
X81923983Y-114936776D01*
X82022719Y-115121498D01*
X82196032Y-115217746D01*
X82960034Y-114453743D01*
X83139640Y-114453743D01*
X83903642Y-115217746D01*
X84076955Y-115121498D01*
X84187492Y-114908286D01*
X84254309Y-114677607D01*
X84274839Y-114438325D01*
X84248293Y-114199635D01*
X84175691Y-113970710D01*
X84076955Y-113785988D01*
X83903642Y-113689740D01*
X83139640Y-114453743D01*
X82960034Y-114453743D01*
X82196032Y-113689740D01*
X82022719Y-113785988D01*
X81912182Y-113999200D01*
X81845365Y-114229879D01*
X81824835Y-114469161D01*
X81729037Y-114469161D01*
X81729037Y-114333662D01*
X81682184Y-114098116D01*
X81590278Y-113876235D01*
X81456851Y-113676548D01*
X81380241Y-113599938D01*
X82285834Y-113599938D01*
X83049837Y-114363940D01*
X83813840Y-113599938D01*
X83717592Y-113426625D01*
X83504380Y-113316088D01*
X83273701Y-113249271D01*
X83034419Y-113228741D01*
X82795729Y-113255287D01*
X82566804Y-113327889D01*
X82382082Y-113426625D01*
X82285834Y-113599938D01*
X81380241Y-113599938D01*
X81287032Y-113506729D01*
X81087345Y-113373302D01*
X80865464Y-113281396D01*
X80629918Y-113234543D01*
X80389756Y-113234543D01*
X80154210Y-113281396D01*
X79932329Y-113373302D01*
X79732642Y-113506729D01*
X79562823Y-113676548D01*
X79523722Y-113735067D01*
X79523722Y-110928451D01*
X81243901Y-109208273D01*
X81243901Y-110696855D01*
X81241759Y-110718600D01*
X81250304Y-110805345D01*
X81275605Y-110888756D01*
X81316695Y-110965629D01*
X81353557Y-111010546D01*
X81349900Y-111028932D01*
X81349900Y-111170268D01*
X81377473Y-111308887D01*
X81431559Y-111439464D01*
X81510081Y-111556980D01*
X81610020Y-111656919D01*
X81727536Y-111735441D01*
X81858113Y-111789527D01*
X81996732Y-111817100D01*
X82138068Y-111817100D01*
X82276687Y-111789527D01*
X82407264Y-111735441D01*
X82524780Y-111656919D01*
X82624719Y-111556980D01*
X82703241Y-111439464D01*
X82757327Y-111308887D01*
X82784900Y-111170268D01*
X82784900Y-111028932D01*
X82757327Y-110890313D01*
X82703241Y-110759736D01*
X82624719Y-110642220D01*
X82524780Y-110542281D01*
X82407264Y-110463759D01*
X82276687Y-110409673D01*
X82138068Y-110382100D01*
X82128900Y-110382100D01*
X82128900Y-105581311D01*
X82131041Y-105559577D01*
X82125109Y-105499354D01*
X82122497Y-105472833D01*
X82097195Y-105389421D01*
X82056105Y-105312549D01*
X82000809Y-105245169D01*
X81983921Y-105231310D01*
X79639700Y-102887089D01*
X79639700Y-92725372D01*
X79732642Y-92818314D01*
X79932329Y-92951741D01*
X80154210Y-93043647D01*
X80389756Y-93090500D01*
X80629918Y-93090500D01*
X80865464Y-93043647D01*
X81087345Y-92951741D01*
X81287032Y-92818314D01*
X81456851Y-92648495D01*
X81590278Y-92448808D01*
X81682184Y-92226927D01*
X81729037Y-91991381D01*
X81729037Y-91751219D01*
X81830637Y-91751219D01*
X81830637Y-91991381D01*
X81877490Y-92226927D01*
X81969396Y-92448808D01*
X82102823Y-92648495D01*
X82272642Y-92818314D01*
X82472329Y-92951741D01*
X82694210Y-93043647D01*
X82929756Y-93090500D01*
X83169918Y-93090500D01*
X83405464Y-93043647D01*
X83627345Y-92951741D01*
X83827032Y-92818314D01*
X83920241Y-92725105D01*
X84825834Y-92725105D01*
X84922082Y-92898418D01*
X85135294Y-93008955D01*
X85365973Y-93075772D01*
X85605255Y-93096302D01*
X85843945Y-93069756D01*
X86072870Y-92997154D01*
X86257592Y-92898418D01*
X86353840Y-92725105D01*
X85589837Y-91961103D01*
X84825834Y-92725105D01*
X83920241Y-92725105D01*
X83996851Y-92648495D01*
X84130278Y-92448808D01*
X84222184Y-92226927D01*
X84269037Y-91991381D01*
X84269037Y-91886718D01*
X84364835Y-91886718D01*
X84391381Y-92125408D01*
X84463983Y-92354333D01*
X84562719Y-92539055D01*
X84736032Y-92635303D01*
X85500034Y-91871300D01*
X85679640Y-91871300D01*
X86443642Y-92635303D01*
X86616955Y-92539055D01*
X86727492Y-92325843D01*
X86794309Y-92095164D01*
X86814839Y-91855882D01*
X86788293Y-91617192D01*
X86715691Y-91388267D01*
X86616955Y-91203545D01*
X86443642Y-91107297D01*
X85679640Y-91871300D01*
X85500034Y-91871300D01*
X84736032Y-91107297D01*
X84562719Y-91203545D01*
X84452182Y-91416757D01*
X84385365Y-91647436D01*
X84364835Y-91886718D01*
X84269037Y-91886718D01*
X84269037Y-91751219D01*
X84222184Y-91515673D01*
X84130278Y-91293792D01*
X83996851Y-91094105D01*
X83920241Y-91017495D01*
X84825834Y-91017495D01*
X85589837Y-91781497D01*
X86353840Y-91017495D01*
X86257592Y-90844182D01*
X86044380Y-90733645D01*
X85813701Y-90666828D01*
X85574419Y-90646298D01*
X85335729Y-90672844D01*
X85106804Y-90745446D01*
X84922082Y-90844182D01*
X84825834Y-91017495D01*
X83920241Y-91017495D01*
X83827032Y-90924286D01*
X83627345Y-90790859D01*
X83405464Y-90698953D01*
X83169918Y-90652100D01*
X82929756Y-90652100D01*
X82694210Y-90698953D01*
X82472329Y-90790859D01*
X82272642Y-90924286D01*
X82102823Y-91094105D01*
X81969396Y-91293792D01*
X81877490Y-91515673D01*
X81830637Y-91751219D01*
X81729037Y-91751219D01*
X81682184Y-91515673D01*
X81590278Y-91293792D01*
X81456851Y-91094105D01*
X81287032Y-90924286D01*
X81087345Y-90790859D01*
X80865464Y-90698953D01*
X80629918Y-90652100D01*
X80389756Y-90652100D01*
X80154210Y-90698953D01*
X79932329Y-90790859D01*
X79732642Y-90924286D01*
X79639700Y-91017228D01*
X79639700Y-89189089D01*
X81704520Y-87124269D01*
X81721404Y-87110413D01*
X81743172Y-87083888D01*
X81776700Y-87043034D01*
X81817790Y-86966162D01*
X81843092Y-86882750D01*
X81851637Y-86796005D01*
X81849495Y-86774261D01*
X81849498Y-82831800D01*
X81852368Y-82831517D01*
X81935779Y-82806215D01*
X82012652Y-82765125D01*
X82080031Y-82709828D01*
X82135327Y-82642449D01*
X82176417Y-82565576D01*
X82201719Y-82482164D01*
X82210263Y-82395419D01*
X82201718Y-82308674D01*
X82176416Y-82225263D01*
X82135326Y-82148391D01*
X82093886Y-82097896D01*
X81905073Y-81909085D01*
X81905065Y-81909075D01*
X81905062Y-81909072D01*
X81891209Y-81892192D01*
X81874329Y-81878339D01*
X79464922Y-79468933D01*
X79464922Y-77693775D01*
X79562823Y-77840294D01*
X79732642Y-78010113D01*
X79932329Y-78143540D01*
X80154210Y-78235446D01*
X80389756Y-78282299D01*
X80629918Y-78282299D01*
X80865464Y-78235446D01*
X81087345Y-78143540D01*
X81287032Y-78010113D01*
X81456851Y-77840294D01*
X81590278Y-77640607D01*
X81682184Y-77418726D01*
X81729037Y-77183180D01*
X81729037Y-76943018D01*
X81682184Y-76707472D01*
X81590278Y-76485591D01*
X81456851Y-76285904D01*
X81287032Y-76116085D01*
X81087345Y-75982658D01*
X80865464Y-75890752D01*
X80629918Y-75843899D01*
X80389756Y-75843899D01*
X80154210Y-75890752D01*
X79932329Y-75982658D01*
X79732642Y-76116085D01*
X79562823Y-76285904D01*
X79464922Y-76432423D01*
X79464922Y-74149267D01*
X81112319Y-72501870D01*
X81129207Y-72488011D01*
X81184503Y-72420631D01*
X81225593Y-72343759D01*
X81250895Y-72260347D01*
X81257298Y-72195339D01*
X81257298Y-72195337D01*
X81259439Y-72173603D01*
X81257298Y-72151869D01*
X81257298Y-68694923D01*
X81259439Y-68673189D01*
X81254574Y-68623798D01*
X81250895Y-68586445D01*
X81225593Y-68503033D01*
X81195879Y-68447444D01*
X81184503Y-68426160D01*
X81143063Y-68375665D01*
X81129207Y-68358781D01*
X81112323Y-68344925D01*
X79199900Y-66432503D01*
X79199900Y-63289089D01*
X80236089Y-62252900D01*
X80591548Y-62252900D01*
X80601491Y-62267780D01*
X80701430Y-62367719D01*
X80818946Y-62446241D01*
X80949523Y-62500327D01*
X81088142Y-62527900D01*
X81229478Y-62527900D01*
X81368097Y-62500327D01*
X81498674Y-62446241D01*
X81616190Y-62367719D01*
X81716129Y-62267780D01*
X81794651Y-62150264D01*
X81848737Y-62019687D01*
X81876310Y-61881068D01*
X81876310Y-61739732D01*
X81848737Y-61601113D01*
X81794651Y-61470536D01*
X81716129Y-61353020D01*
X81616190Y-61253081D01*
X81498674Y-61174559D01*
X81368097Y-61120473D01*
X81229478Y-61092900D01*
X81088142Y-61092900D01*
X80961800Y-61118031D01*
X81018841Y-61032664D01*
X81072927Y-60902087D01*
X81100500Y-60763468D01*
X81100500Y-60622132D01*
X81072927Y-60483513D01*
X81018841Y-60352936D01*
X80940319Y-60235420D01*
X80840380Y-60135481D01*
X80722864Y-60056959D01*
X80714795Y-60053617D01*
X80865464Y-60023647D01*
X81087345Y-59931741D01*
X81287032Y-59798314D01*
X81456851Y-59628495D01*
X81590278Y-59428808D01*
X81682184Y-59206927D01*
X81729037Y-58971381D01*
X81729037Y-58731219D01*
X81830637Y-58731219D01*
X81830637Y-58971381D01*
X81877490Y-59206927D01*
X81969396Y-59428808D01*
X82102823Y-59628495D01*
X82272642Y-59798314D01*
X82472329Y-59931741D01*
X82694210Y-60023647D01*
X82929756Y-60070500D01*
X83169918Y-60070500D01*
X83405464Y-60023647D01*
X83627345Y-59931741D01*
X83827032Y-59798314D01*
X83920241Y-59705105D01*
X84825834Y-59705105D01*
X84922082Y-59878418D01*
X85135294Y-59988955D01*
X85365973Y-60055772D01*
X85605255Y-60076302D01*
X85843945Y-60049756D01*
X86072870Y-59977154D01*
X86257592Y-59878418D01*
X86353840Y-59705105D01*
X85589837Y-58941103D01*
X84825834Y-59705105D01*
X83920241Y-59705105D01*
X83996851Y-59628495D01*
X84130278Y-59428808D01*
X84222184Y-59206927D01*
X84269037Y-58971381D01*
X84269037Y-58866718D01*
X84364835Y-58866718D01*
X84391381Y-59105408D01*
X84463983Y-59334333D01*
X84562719Y-59519055D01*
X84736032Y-59615303D01*
X85500034Y-58851300D01*
X84736032Y-58087297D01*
X84562719Y-58183545D01*
X84452182Y-58396757D01*
X84385365Y-58627436D01*
X84364835Y-58866718D01*
X84269037Y-58866718D01*
X84269037Y-58731219D01*
X84222184Y-58495673D01*
X84130278Y-58273792D01*
X83996851Y-58074105D01*
X83920241Y-57997495D01*
X84825834Y-57997495D01*
X85589837Y-58761497D01*
X86353840Y-57997495D01*
X86257592Y-57824182D01*
X86044380Y-57713645D01*
X85813701Y-57646828D01*
X85574419Y-57626298D01*
X85335729Y-57652844D01*
X85106804Y-57725446D01*
X84922082Y-57824182D01*
X84825834Y-57997495D01*
X83920241Y-57997495D01*
X83827032Y-57904286D01*
X83627345Y-57770859D01*
X83492337Y-57714937D01*
X83492337Y-52570452D01*
X84384498Y-51678291D01*
X85793037Y-51678291D01*
X85793037Y-52003509D01*
X85856484Y-52322479D01*
X85980940Y-52622942D01*
X86161622Y-52893351D01*
X86391586Y-53123315D01*
X86661995Y-53303997D01*
X86962458Y-53428453D01*
X87281428Y-53491900D01*
X87606646Y-53491900D01*
X87925616Y-53428453D01*
X88226079Y-53303997D01*
X88496488Y-53123315D01*
X88726452Y-52893351D01*
X88907134Y-52622942D01*
X89031590Y-52322479D01*
X89095037Y-52003509D01*
X89095037Y-51678291D01*
X89031590Y-51359321D01*
X88907134Y-51058858D01*
X88726452Y-50788449D01*
X88496488Y-50558485D01*
X88226079Y-50377803D01*
X87925616Y-50253347D01*
X87606646Y-50189900D01*
X87281428Y-50189900D01*
X86962458Y-50253347D01*
X86661995Y-50377803D01*
X86391586Y-50558485D01*
X86161622Y-50788449D01*
X85980940Y-51058858D01*
X85856484Y-51359321D01*
X85793037Y-51678291D01*
X84384498Y-51678291D01*
X88046526Y-48016264D01*
X88063409Y-48002409D01*
X88077551Y-47985177D01*
X88118705Y-47935030D01*
X88159795Y-47858157D01*
X88175916Y-47805011D01*
X88185097Y-47774745D01*
X88191500Y-47709737D01*
X88191500Y-47709735D01*
X88193641Y-47688001D01*
X88191500Y-47666267D01*
X88191500Y-40432062D01*
X88206380Y-40422119D01*
X88306319Y-40322180D01*
X88384841Y-40204664D01*
X88438927Y-40074087D01*
X88466500Y-39935468D01*
X88466500Y-39794132D01*
X88438927Y-39655513D01*
X88384841Y-39524936D01*
X88306319Y-39407420D01*
X88206380Y-39307481D01*
X88088864Y-39228959D01*
X87958287Y-39174873D01*
X87819668Y-39147300D01*
X87678332Y-39147300D01*
X87539713Y-39174873D01*
X87409136Y-39228959D01*
X87291620Y-39307481D01*
X87191681Y-39407420D01*
X87113159Y-39524936D01*
X87059073Y-39655513D01*
X87031500Y-39794132D01*
X87031500Y-39935468D01*
X87059073Y-40074087D01*
X87113159Y-40204664D01*
X87191681Y-40322180D01*
X87291620Y-40422119D01*
X87306501Y-40432062D01*
X87306500Y-47504710D01*
X82752313Y-52058898D01*
X82735429Y-52072754D01*
X82721573Y-52089638D01*
X82721572Y-52089639D01*
X82680132Y-52140134D01*
X82639042Y-52217007D01*
X82613741Y-52300418D01*
X82605196Y-52387163D01*
X82607338Y-52408908D01*
X82607337Y-57714937D01*
X82472329Y-57770859D01*
X82272642Y-57904286D01*
X82102823Y-58074105D01*
X81969396Y-58273792D01*
X81877490Y-58495673D01*
X81830637Y-58731219D01*
X81729037Y-58731219D01*
X81682184Y-58495673D01*
X81590278Y-58273792D01*
X81456851Y-58074105D01*
X81287032Y-57904286D01*
X81087345Y-57770859D01*
X80865464Y-57678953D01*
X80629918Y-57632100D01*
X80389756Y-57632100D01*
X80154210Y-57678953D01*
X79932329Y-57770859D01*
X79732642Y-57904286D01*
X79562823Y-58074105D01*
X79429396Y-58273792D01*
X79352298Y-58459923D01*
X79352298Y-55923091D01*
X80883719Y-54391670D01*
X80900609Y-54377809D01*
X80955905Y-54310429D01*
X80996995Y-54233557D01*
X81022297Y-54150145D01*
X81028700Y-54085137D01*
X81028700Y-54085135D01*
X81030841Y-54063401D01*
X81028700Y-54041667D01*
X81028700Y-49284534D01*
X81030841Y-49262799D01*
X81025556Y-49209146D01*
X81022297Y-49176055D01*
X80996995Y-49092643D01*
X80955906Y-49015772D01*
X80955905Y-49015770D01*
X80914465Y-48965275D01*
X80900609Y-48948391D01*
X80883726Y-48934536D01*
X78945900Y-46996711D01*
X78945900Y-43104951D01*
X79393412Y-43552464D01*
X79337490Y-43687472D01*
X79290637Y-43923018D01*
X79290637Y-44163180D01*
X79337490Y-44398726D01*
X79429396Y-44620607D01*
X79562823Y-44820294D01*
X79732642Y-44990113D01*
X79932329Y-45123540D01*
X80154210Y-45215446D01*
X80389756Y-45262299D01*
X80629918Y-45262299D01*
X80865464Y-45215446D01*
X81087345Y-45123540D01*
X81287032Y-44990113D01*
X81456851Y-44820294D01*
X81590278Y-44620607D01*
X81682184Y-44398726D01*
X81729037Y-44163180D01*
X81729037Y-43923018D01*
X81830637Y-43923018D01*
X81830637Y-44163180D01*
X81877490Y-44398726D01*
X81969396Y-44620607D01*
X82102823Y-44820294D01*
X82272642Y-44990113D01*
X82472329Y-45123540D01*
X82694210Y-45215446D01*
X82929756Y-45262299D01*
X83169918Y-45262299D01*
X83405464Y-45215446D01*
X83627345Y-45123540D01*
X83827032Y-44990113D01*
X83920241Y-44896904D01*
X84825834Y-44896904D01*
X84922082Y-45070217D01*
X85135294Y-45180754D01*
X85365973Y-45247571D01*
X85605255Y-45268101D01*
X85843945Y-45241555D01*
X86072870Y-45168953D01*
X86257592Y-45070217D01*
X86353840Y-44896904D01*
X85589837Y-44132902D01*
X84825834Y-44896904D01*
X83920241Y-44896904D01*
X83996851Y-44820294D01*
X84130278Y-44620607D01*
X84222184Y-44398726D01*
X84269037Y-44163180D01*
X84269037Y-43923018D01*
X84255853Y-43856736D01*
X84422884Y-43689705D01*
X84385365Y-43819235D01*
X84364835Y-44058517D01*
X84391381Y-44297207D01*
X84463983Y-44526132D01*
X84562719Y-44710854D01*
X84736032Y-44807102D01*
X85500034Y-44043099D01*
X85679640Y-44043099D01*
X86443642Y-44807102D01*
X86616955Y-44710854D01*
X86727492Y-44497642D01*
X86794309Y-44266963D01*
X86814839Y-44027681D01*
X86788293Y-43788991D01*
X86715691Y-43560066D01*
X86616955Y-43375344D01*
X86443642Y-43279096D01*
X85679640Y-44043099D01*
X85500034Y-44043099D01*
X85485892Y-44028957D01*
X85575695Y-43939154D01*
X85589837Y-43953296D01*
X86353840Y-43189294D01*
X86257592Y-43015981D01*
X86044380Y-42905444D01*
X85813701Y-42838627D01*
X85574419Y-42818097D01*
X85335729Y-42844643D01*
X85236465Y-42876124D01*
X86039919Y-42072670D01*
X86056809Y-42058809D01*
X86112105Y-41991429D01*
X86153195Y-41914557D01*
X86178497Y-41831145D01*
X86184900Y-41766137D01*
X86184900Y-41766135D01*
X86187041Y-41744401D01*
X86184900Y-41722667D01*
X86184900Y-38108428D01*
X86391586Y-38315114D01*
X86661995Y-38495796D01*
X86962458Y-38620252D01*
X87281428Y-38683699D01*
X87606646Y-38683699D01*
X87925616Y-38620252D01*
X88226079Y-38495796D01*
X88496488Y-38315114D01*
X88726452Y-38085150D01*
X88907134Y-37814741D01*
X89031590Y-37514278D01*
X89037864Y-37482732D01*
X96378700Y-37482732D01*
X96378700Y-37624068D01*
X96406273Y-37762687D01*
X96460359Y-37893264D01*
X96538881Y-38010780D01*
X96638820Y-38110719D01*
X96756336Y-38189241D01*
X96886913Y-38243327D01*
X97025532Y-38270900D01*
X97166868Y-38270900D01*
X97305487Y-38243327D01*
X97436064Y-38189241D01*
X97553580Y-38110719D01*
X97653519Y-38010780D01*
X97732041Y-37893264D01*
X97786127Y-37762687D01*
X97813700Y-37624068D01*
X97813700Y-37482732D01*
X97786127Y-37344113D01*
X97741900Y-37237338D01*
X97741900Y-36710479D01*
X98480337Y-36710479D01*
X98480337Y-36923121D01*
X98521822Y-37131678D01*
X98603197Y-37328135D01*
X98721335Y-37504941D01*
X98871696Y-37655302D01*
X99048502Y-37773440D01*
X99244959Y-37854815D01*
X99453516Y-37896300D01*
X99666158Y-37896300D01*
X99874715Y-37854815D01*
X100071172Y-37773440D01*
X100247978Y-37655302D01*
X100398339Y-37504941D01*
X100516477Y-37328135D01*
X100597852Y-37131678D01*
X100639337Y-36923121D01*
X100639337Y-36710479D01*
X100597852Y-36501922D01*
X100516477Y-36305465D01*
X100398339Y-36128659D01*
X100247978Y-35978298D01*
X100071172Y-35860160D01*
X99874715Y-35778785D01*
X99666158Y-35737300D01*
X99453516Y-35737300D01*
X99244959Y-35778785D01*
X99048502Y-35860160D01*
X98871696Y-35978298D01*
X98721335Y-36128659D01*
X98603197Y-36305465D01*
X98521822Y-36501922D01*
X98480337Y-36710479D01*
X97741900Y-36710479D01*
X97741900Y-34158262D01*
X97756780Y-34148319D01*
X97856719Y-34048380D01*
X97935241Y-33930864D01*
X97989327Y-33800287D01*
X98016900Y-33661668D01*
X98016900Y-33520332D01*
X97989327Y-33381713D01*
X97935241Y-33251136D01*
X97856719Y-33133620D01*
X97756780Y-33033681D01*
X97639264Y-32955159D01*
X97508687Y-32901073D01*
X97370068Y-32873500D01*
X97228732Y-32873500D01*
X97090113Y-32901073D01*
X96959536Y-32955159D01*
X96842020Y-33033681D01*
X96742081Y-33133620D01*
X96663559Y-33251136D01*
X96609473Y-33381713D01*
X96581900Y-33520332D01*
X96581900Y-33661668D01*
X96609473Y-33800287D01*
X96663559Y-33930864D01*
X96742081Y-34048380D01*
X96842020Y-34148319D01*
X96856900Y-34158262D01*
X96856901Y-36875904D01*
X96756336Y-36917559D01*
X96638820Y-36996081D01*
X96538881Y-37096020D01*
X96460359Y-37213536D01*
X96406273Y-37344113D01*
X96378700Y-37482732D01*
X89037864Y-37482732D01*
X89095037Y-37195308D01*
X89095037Y-36870090D01*
X89031590Y-36551120D01*
X88907134Y-36250657D01*
X88726452Y-35980248D01*
X88496488Y-35750284D01*
X88226079Y-35569602D01*
X87925616Y-35445146D01*
X87606646Y-35381699D01*
X87281428Y-35381699D01*
X86962458Y-35445146D01*
X86661995Y-35569602D01*
X86391586Y-35750284D01*
X86184900Y-35956970D01*
X86184900Y-34821462D01*
X86229127Y-34714687D01*
X86256700Y-34576068D01*
X86256700Y-34434732D01*
X86229127Y-34296113D01*
X86175041Y-34165536D01*
X86096519Y-34048020D01*
X85996580Y-33948081D01*
X85879064Y-33869559D01*
X85748487Y-33815473D01*
X85609868Y-33787900D01*
X85468532Y-33787900D01*
X85329913Y-33815473D01*
X85199336Y-33869559D01*
X85081820Y-33948081D01*
X84981881Y-34048020D01*
X84903359Y-34165536D01*
X84849273Y-34296113D01*
X84821700Y-34434732D01*
X84821700Y-34576068D01*
X84849273Y-34714687D01*
X84903359Y-34845264D01*
X84981881Y-34962780D01*
X85081820Y-35062719D01*
X85199336Y-35141241D01*
X85299900Y-35182895D01*
X85299901Y-41561110D01*
X83789802Y-43071209D01*
X83627345Y-42962658D01*
X83405464Y-42870752D01*
X83169918Y-42823899D01*
X82929756Y-42823899D01*
X82694210Y-42870752D01*
X82472329Y-42962658D01*
X82272642Y-43096085D01*
X82102823Y-43265904D01*
X81969396Y-43465591D01*
X81877490Y-43687472D01*
X81830637Y-43923018D01*
X81729037Y-43923018D01*
X81682184Y-43687472D01*
X81590278Y-43465591D01*
X81456851Y-43265904D01*
X81287032Y-43096085D01*
X81087345Y-42962658D01*
X80865464Y-42870752D01*
X80629918Y-42823899D01*
X80389756Y-42823899D01*
X80154210Y-42870752D01*
X80019202Y-42926674D01*
X79682500Y-42589973D01*
X79682500Y-39794089D01*
X80611664Y-38864926D01*
X80628547Y-38851071D01*
X80683843Y-38783691D01*
X80724933Y-38706819D01*
X80750235Y-38623407D01*
X80756638Y-38558399D01*
X80756638Y-38558398D01*
X80758779Y-38536662D01*
X80756638Y-38514925D01*
X80756638Y-36343737D01*
X80768297Y-36305301D01*
X80774700Y-36240293D01*
X80774700Y-36240292D01*
X80776841Y-36218556D01*
X80774700Y-36196819D01*
X80774700Y-35517737D01*
X80776841Y-35496000D01*
X80768297Y-35409255D01*
X80742995Y-35325843D01*
X80701905Y-35248971D01*
X80660465Y-35198475D01*
X80646609Y-35181591D01*
X80629725Y-35167735D01*
X79395209Y-33933220D01*
X79398700Y-33915668D01*
X79398700Y-33774332D01*
X79371127Y-33635713D01*
X79317041Y-33505136D01*
X79238519Y-33387620D01*
X79138580Y-33287681D01*
X79021064Y-33209159D01*
X78890487Y-33155073D01*
X78751868Y-33127500D01*
X78610532Y-33127500D01*
X78471913Y-33155073D01*
X78341336Y-33209159D01*
X78223820Y-33287681D01*
X78123881Y-33387620D01*
X78045359Y-33505136D01*
X77991273Y-33635713D01*
X77963700Y-33774332D01*
X77963700Y-33915668D01*
X77991273Y-34054287D01*
X78045359Y-34184864D01*
X78123881Y-34302380D01*
X78223820Y-34402319D01*
X78341336Y-34480841D01*
X78471913Y-34534927D01*
X78610532Y-34562500D01*
X78751868Y-34562500D01*
X78769420Y-34559009D01*
X79889701Y-35679291D01*
X79889700Y-35931896D01*
X79708088Y-35750284D01*
X79437679Y-35569602D01*
X79137216Y-35445146D01*
X78818246Y-35381699D01*
X78493028Y-35381699D01*
X78174058Y-35445146D01*
X77873595Y-35569602D01*
X77603186Y-35750284D01*
X77373222Y-35980248D01*
X77192540Y-36250657D01*
X77068084Y-36551120D01*
X77042500Y-36679740D01*
X77042500Y-31483465D01*
X98277137Y-31483465D01*
X98277137Y-31736135D01*
X98326431Y-31983950D01*
X98423123Y-32217386D01*
X98563499Y-32427473D01*
X98742164Y-32606138D01*
X98952251Y-32746514D01*
X99185687Y-32843206D01*
X99433502Y-32892500D01*
X99686172Y-32892500D01*
X99933987Y-32843206D01*
X100167423Y-32746514D01*
X100377510Y-32606138D01*
X100556175Y-32427473D01*
X100696551Y-32217386D01*
X100793243Y-31983950D01*
X100842537Y-31736135D01*
X100842537Y-31483465D01*
X100793243Y-31235650D01*
X100696551Y-31002214D01*
X100556175Y-30792127D01*
X100377510Y-30613462D01*
X100167423Y-30473086D01*
X99933987Y-30376394D01*
X99686172Y-30327100D01*
X99433502Y-30327100D01*
X99185687Y-30376394D01*
X98952251Y-30473086D01*
X98742164Y-30613462D01*
X98563499Y-30792127D01*
X98423123Y-31002214D01*
X98326431Y-31235650D01*
X98277137Y-31483465D01*
X77042500Y-31483465D01*
X77042500Y-29742500D01*
X105567500Y-29742500D01*
X105567501Y-107092026D01*
%TA.AperFunction,Conductor*%
D21*
G36*
X105567501Y-107092026D02*
G01*
X105541590Y-106961764D01*
X105417134Y-106661301D01*
X105236452Y-106390892D01*
X105006488Y-106160928D01*
X104736079Y-105980246D01*
X104435616Y-105855790D01*
X104116646Y-105792343D01*
X103791428Y-105792343D01*
X103472458Y-105855790D01*
X103171995Y-105980246D01*
X102901586Y-106160928D01*
X102671622Y-106390892D01*
X102550500Y-106572163D01*
X102550500Y-99325397D01*
X102623723Y-99355727D01*
X102762342Y-99383300D01*
X102903678Y-99383300D01*
X103042297Y-99355727D01*
X103172874Y-99301641D01*
X103290390Y-99223119D01*
X103390329Y-99123180D01*
X103468851Y-99005664D01*
X103522937Y-98875087D01*
X103550510Y-98736468D01*
X103550510Y-98595132D01*
X103547019Y-98577581D01*
X103946925Y-98177675D01*
X103963809Y-98163819D01*
X104009223Y-98108481D01*
X104019105Y-98096440D01*
X104060195Y-98019567D01*
X104073449Y-97975873D01*
X104085497Y-97936155D01*
X104091900Y-97871147D01*
X104091900Y-97871144D01*
X104094041Y-97849410D01*
X104091900Y-97827676D01*
X104091900Y-95169062D01*
X104106780Y-95159119D01*
X104206719Y-95059180D01*
X104285241Y-94941664D01*
X104339327Y-94811087D01*
X104366900Y-94672468D01*
X104366900Y-94531132D01*
X104339327Y-94392513D01*
X104285241Y-94261936D01*
X104206719Y-94144420D01*
X104106780Y-94044481D01*
X103989264Y-93965959D01*
X103858687Y-93911873D01*
X103720068Y-93884300D01*
X103578732Y-93884300D01*
X103440113Y-93911873D01*
X103309536Y-93965959D01*
X103192020Y-94044481D01*
X103092081Y-94144420D01*
X103013559Y-94261936D01*
X102959473Y-94392513D01*
X102931900Y-94531132D01*
X102931900Y-94672468D01*
X102959473Y-94811087D01*
X103013559Y-94941664D01*
X103092081Y-95059180D01*
X103192020Y-95159119D01*
X103206900Y-95169062D01*
X103206901Y-97666119D01*
X102921229Y-97951791D01*
X102903678Y-97948300D01*
X102762342Y-97948300D01*
X102623723Y-97975873D01*
X102550500Y-98006203D01*
X102550500Y-97506937D01*
X102552641Y-97485200D01*
X102544097Y-97398455D01*
X102518795Y-97315043D01*
X102477705Y-97238171D01*
X102436265Y-97187675D01*
X102422409Y-97170791D01*
X102405525Y-97156935D01*
X102263209Y-97014619D01*
X102266700Y-96997068D01*
X102266700Y-96855732D01*
X102239127Y-96717113D01*
X102185041Y-96586536D01*
X102106519Y-96469020D01*
X102006580Y-96369081D01*
X101889064Y-96290559D01*
X101758487Y-96236473D01*
X101619868Y-96208900D01*
X101478532Y-96208900D01*
X101339913Y-96236473D01*
X101209336Y-96290559D01*
X101091820Y-96369081D01*
X100991881Y-96469020D01*
X100913359Y-96586536D01*
X100859273Y-96717113D01*
X100831700Y-96855732D01*
X100831700Y-96997068D01*
X100859273Y-97135687D01*
X100913359Y-97266264D01*
X100991881Y-97383780D01*
X101091820Y-97483719D01*
X101209336Y-97562241D01*
X101339913Y-97616327D01*
X101478532Y-97643900D01*
X101619868Y-97643900D01*
X101637419Y-97640409D01*
X101665501Y-97668491D01*
X101665500Y-113313999D01*
X101522329Y-113373302D01*
X101322642Y-113506729D01*
X101152823Y-113676548D01*
X101019396Y-113876235D01*
X100927490Y-114098116D01*
X100880637Y-114333662D01*
X100880637Y-114573824D01*
X100927490Y-114809370D01*
X101019396Y-115031251D01*
X101152823Y-115230938D01*
X101322642Y-115400757D01*
X101522329Y-115534184D01*
X101744210Y-115626090D01*
X101979756Y-115672943D01*
X102219918Y-115672943D01*
X102455464Y-115626090D01*
X102677345Y-115534184D01*
X102877032Y-115400757D01*
X103046851Y-115230938D01*
X103180278Y-115031251D01*
X103272184Y-114809370D01*
X103319037Y-114573824D01*
X103319037Y-114333662D01*
X103272184Y-114098116D01*
X103180278Y-113876235D01*
X103046851Y-113676548D01*
X102877032Y-113506729D01*
X102677345Y-113373302D01*
X102550500Y-113320761D01*
X102550500Y-108314523D01*
X102671622Y-108495794D01*
X102901586Y-108725758D01*
X103171995Y-108906440D01*
X103472458Y-109030896D01*
X103791428Y-109094343D01*
X104116646Y-109094343D01*
X104435616Y-109030896D01*
X104736079Y-108906440D01*
X105006488Y-108725758D01*
X105236452Y-108495794D01*
X105417134Y-108225385D01*
X105541590Y-107924922D01*
X105567501Y-107794660D01*
X105567501Y-135737500D01*
X77042500Y-135737500D01*
X77042500Y-107796302D01*
X77068084Y-107924922D01*
X77192540Y-108225385D01*
X77373222Y-108495794D01*
X77603186Y-108725758D01*
X77873595Y-108906440D01*
X78174058Y-109030896D01*
X78493028Y-109094343D01*
X78818246Y-109094343D01*
X78837200Y-109090573D01*
X77883676Y-110044097D01*
X77866792Y-110057953D01*
X77852936Y-110074837D01*
X77852935Y-110074838D01*
X77811495Y-110125333D01*
X77770405Y-110202206D01*
X77745104Y-110285617D01*
X77736559Y-110372362D01*
X77738701Y-110394107D01*
X77738700Y-128776629D01*
X77736559Y-128798363D01*
X77738700Y-128820097D01*
X77738700Y-128820099D01*
X77745103Y-128885107D01*
X77751260Y-128905403D01*
X77770405Y-128968519D01*
X77811495Y-129045392D01*
X77835089Y-129074142D01*
X77866791Y-129112772D01*
X77883681Y-129126633D01*
X81884812Y-133127764D01*
X81816431Y-133292850D01*
X81767137Y-133540665D01*
X81767137Y-133793335D01*
X81816431Y-134041150D01*
X81913123Y-134274586D01*
X82053499Y-134484673D01*
X82232164Y-134663338D01*
X82442251Y-134803714D01*
X82675687Y-134900406D01*
X82923502Y-134949700D01*
X83176172Y-134949700D01*
X83423987Y-134900406D01*
X83657423Y-134803714D01*
X83867510Y-134663338D01*
X84046175Y-134484673D01*
X84186551Y-134274586D01*
X84283243Y-134041150D01*
X84332537Y-133793335D01*
X84332537Y-133540665D01*
X84283243Y-133292850D01*
X84186551Y-133059414D01*
X84046175Y-132849327D01*
X83867510Y-132670662D01*
X83657423Y-132530286D01*
X83423987Y-132433594D01*
X83176172Y-132384300D01*
X82923502Y-132384300D01*
X82675687Y-132433594D01*
X82510601Y-132501975D01*
X81257905Y-131249279D01*
X88955500Y-131249279D01*
X88955500Y-131461921D01*
X88996985Y-131670478D01*
X89078360Y-131866935D01*
X89196498Y-132043741D01*
X89346859Y-132194102D01*
X89523665Y-132312240D01*
X89720122Y-132393615D01*
X89928679Y-132435100D01*
X90141321Y-132435100D01*
X90349878Y-132393615D01*
X90546335Y-132312240D01*
X90723141Y-132194102D01*
X90873502Y-132043741D01*
X90991640Y-131866935D01*
X91073015Y-131670478D01*
X91114500Y-131461921D01*
X91114500Y-131249279D01*
X91073015Y-131040722D01*
X90991640Y-130844265D01*
X90873502Y-130667459D01*
X90799643Y-130593600D01*
X91493964Y-130593600D01*
X91493964Y-132117600D01*
X91500094Y-132179841D01*
X91518249Y-132239690D01*
X91547731Y-132294847D01*
X91587407Y-132343193D01*
X91635753Y-132382869D01*
X91690910Y-132412351D01*
X91750759Y-132430506D01*
X91813000Y-132436636D01*
X93337000Y-132436636D01*
X93399241Y-132430506D01*
X93459090Y-132412351D01*
X93514247Y-132382869D01*
X93562593Y-132343193D01*
X93602269Y-132294847D01*
X93631751Y-132239690D01*
X93649906Y-132179841D01*
X93656036Y-132117600D01*
X93656036Y-130593600D01*
X93649906Y-130531359D01*
X93631751Y-130471510D01*
X93602269Y-130416353D01*
X93562593Y-130368007D01*
X93514247Y-130328331D01*
X93459090Y-130298849D01*
X93399241Y-130280694D01*
X93337000Y-130274564D01*
X91813000Y-130274564D01*
X91750759Y-130280694D01*
X91690910Y-130298849D01*
X91635753Y-130328331D01*
X91587407Y-130368007D01*
X91547731Y-130416353D01*
X91518249Y-130471510D01*
X91500094Y-130531359D01*
X91493964Y-130593600D01*
X90799643Y-130593600D01*
X90723141Y-130517098D01*
X90546335Y-130398960D01*
X90349878Y-130317585D01*
X90141321Y-130276100D01*
X89928679Y-130276100D01*
X89720122Y-130317585D01*
X89523665Y-130398960D01*
X89346859Y-130517098D01*
X89196498Y-130667459D01*
X89078360Y-130844265D01*
X88996985Y-131040722D01*
X88955500Y-131249279D01*
X81257905Y-131249279D01*
X78623700Y-128615074D01*
X78623700Y-128271143D01*
X81132337Y-128271143D01*
X81132337Y-128648857D01*
X81206025Y-129019314D01*
X81350571Y-129368277D01*
X81560417Y-129682335D01*
X81827502Y-129949420D01*
X82141560Y-130159266D01*
X82490523Y-130303812D01*
X82860980Y-130377500D01*
X83238694Y-130377500D01*
X83609151Y-130303812D01*
X83958114Y-130159266D01*
X84272172Y-129949420D01*
X84539257Y-129682335D01*
X84614335Y-129569971D01*
X89370432Y-129569971D01*
X89449881Y-129728979D01*
X89639315Y-129825580D01*
X89843955Y-129883368D01*
X90055937Y-129900122D01*
X90267115Y-129875198D01*
X90469372Y-129809555D01*
X90620119Y-129728979D01*
X90699568Y-129569971D01*
X91910432Y-129569971D01*
X91989881Y-129728979D01*
X92179315Y-129825580D01*
X92383955Y-129883368D01*
X92595937Y-129900122D01*
X92807115Y-129875198D01*
X93009372Y-129809555D01*
X93160119Y-129728979D01*
X93239568Y-129569971D01*
X92575000Y-128905403D01*
X91910432Y-129569971D01*
X90699568Y-129569971D01*
X90035000Y-128905403D01*
X89370432Y-129569971D01*
X84614335Y-129569971D01*
X84749103Y-129368277D01*
X84893649Y-129019314D01*
X84930005Y-128836537D01*
X88950478Y-128836537D01*
X88975402Y-129047715D01*
X89041045Y-129249972D01*
X89121621Y-129400719D01*
X89280629Y-129480168D01*
X89945197Y-128815600D01*
X90124803Y-128815600D01*
X90789371Y-129480168D01*
X90948379Y-129400719D01*
X91044980Y-129211285D01*
X91102768Y-129006645D01*
X91116212Y-128836537D01*
X91490478Y-128836537D01*
X91515402Y-129047715D01*
X91581045Y-129249972D01*
X91661621Y-129400719D01*
X91820629Y-129480168D01*
X92485197Y-128815600D01*
X92664803Y-128815600D01*
X93329371Y-129480168D01*
X93488379Y-129400719D01*
X93584980Y-129211285D01*
X93642768Y-129006645D01*
X93659522Y-128794663D01*
X93634598Y-128583485D01*
X93568955Y-128381228D01*
X93488379Y-128230481D01*
X93329371Y-128151032D01*
X92664803Y-128815600D01*
X92485197Y-128815600D01*
X91820629Y-128151032D01*
X91661621Y-128230481D01*
X91565020Y-128419915D01*
X91507232Y-128624555D01*
X91490478Y-128836537D01*
X91116212Y-128836537D01*
X91119522Y-128794663D01*
X91094598Y-128583485D01*
X91028955Y-128381228D01*
X90948379Y-128230481D01*
X90789371Y-128151032D01*
X90124803Y-128815600D01*
X89945197Y-128815600D01*
X89280629Y-128151032D01*
X89121621Y-128230481D01*
X89025020Y-128419915D01*
X88967232Y-128624555D01*
X88950478Y-128836537D01*
X84930005Y-128836537D01*
X84967337Y-128648857D01*
X84967337Y-128271143D01*
X84925583Y-128061229D01*
X89370432Y-128061229D01*
X90035000Y-128725797D01*
X90699568Y-128061229D01*
X91910432Y-128061229D01*
X92575000Y-128725797D01*
X93239568Y-128061229D01*
X93160119Y-127902221D01*
X92970685Y-127805620D01*
X92766045Y-127747832D01*
X92554063Y-127731078D01*
X92342885Y-127756002D01*
X92140628Y-127821645D01*
X91989881Y-127902221D01*
X91910432Y-128061229D01*
X90699568Y-128061229D01*
X90620119Y-127902221D01*
X90430685Y-127805620D01*
X90226045Y-127747832D01*
X90014063Y-127731078D01*
X89802885Y-127756002D01*
X89600628Y-127821645D01*
X89449881Y-127902221D01*
X89370432Y-128061229D01*
X84925583Y-128061229D01*
X84893649Y-127900686D01*
X84749103Y-127551723D01*
X84539257Y-127237665D01*
X84331563Y-127029971D01*
X89370432Y-127029971D01*
X89449881Y-127188979D01*
X89639315Y-127285580D01*
X89843955Y-127343368D01*
X90055937Y-127360122D01*
X90267115Y-127335198D01*
X90469372Y-127269555D01*
X90620119Y-127188979D01*
X90699568Y-127029971D01*
X91910432Y-127029971D01*
X91989881Y-127188979D01*
X92179315Y-127285580D01*
X92383955Y-127343368D01*
X92595937Y-127360122D01*
X92807115Y-127335198D01*
X93009372Y-127269555D01*
X93160119Y-127188979D01*
X93239568Y-127029971D01*
X92575000Y-126365403D01*
X91910432Y-127029971D01*
X90699568Y-127029971D01*
X90035000Y-126365403D01*
X89370432Y-127029971D01*
X84331563Y-127029971D01*
X84272172Y-126970580D01*
X83958114Y-126760734D01*
X83609151Y-126616188D01*
X83238694Y-126542500D01*
X82860980Y-126542500D01*
X82490523Y-126616188D01*
X82141560Y-126760734D01*
X81827502Y-126970580D01*
X81560417Y-127237665D01*
X81350571Y-127551723D01*
X81206025Y-127900686D01*
X81132337Y-128271143D01*
X78623700Y-128271143D01*
X78623700Y-124980865D01*
X81767137Y-124980865D01*
X81767137Y-125233535D01*
X81816431Y-125481350D01*
X81913123Y-125714786D01*
X82053499Y-125924873D01*
X82232164Y-126103538D01*
X82442251Y-126243914D01*
X82675687Y-126340606D01*
X82923502Y-126389900D01*
X83176172Y-126389900D01*
X83423987Y-126340606D01*
X83530379Y-126296537D01*
X88950478Y-126296537D01*
X88975402Y-126507715D01*
X89041045Y-126709972D01*
X89121621Y-126860719D01*
X89280629Y-126940168D01*
X89945197Y-126275600D01*
X90124803Y-126275600D01*
X90789371Y-126940168D01*
X90948379Y-126860719D01*
X91044980Y-126671285D01*
X91102768Y-126466645D01*
X91116212Y-126296537D01*
X91490478Y-126296537D01*
X91515402Y-126507715D01*
X91581045Y-126709972D01*
X91661621Y-126860719D01*
X91820629Y-126940168D01*
X92485197Y-126275600D01*
X92664803Y-126275600D01*
X93329371Y-126940168D01*
X93488379Y-126860719D01*
X93584980Y-126671285D01*
X93642768Y-126466645D01*
X93659522Y-126254663D01*
X93634598Y-126043485D01*
X93568955Y-125841228D01*
X93488379Y-125690481D01*
X93329371Y-125611032D01*
X92664803Y-126275600D01*
X92485197Y-126275600D01*
X91820629Y-125611032D01*
X91661621Y-125690481D01*
X91565020Y-125879915D01*
X91507232Y-126084555D01*
X91490478Y-126296537D01*
X91116212Y-126296537D01*
X91119522Y-126254663D01*
X91094598Y-126043485D01*
X91028955Y-125841228D01*
X90948379Y-125690481D01*
X90789371Y-125611032D01*
X90124803Y-126275600D01*
X89945197Y-126275600D01*
X89280629Y-125611032D01*
X89121621Y-125690481D01*
X89025020Y-125879915D01*
X88967232Y-126084555D01*
X88950478Y-126296537D01*
X83530379Y-126296537D01*
X83657423Y-126243914D01*
X83867510Y-126103538D01*
X84046175Y-125924873D01*
X84186551Y-125714786D01*
X84266724Y-125521229D01*
X89370432Y-125521229D01*
X90035000Y-126185797D01*
X90699568Y-125521229D01*
X91910432Y-125521229D01*
X92575000Y-126185797D01*
X93239568Y-125521229D01*
X93160119Y-125362221D01*
X92970685Y-125265620D01*
X92766045Y-125207832D01*
X92554063Y-125191078D01*
X92342885Y-125216002D01*
X92140628Y-125281645D01*
X91989881Y-125362221D01*
X91910432Y-125521229D01*
X90699568Y-125521229D01*
X90620119Y-125362221D01*
X90430685Y-125265620D01*
X90226045Y-125207832D01*
X90014063Y-125191078D01*
X89802885Y-125216002D01*
X89600628Y-125281645D01*
X89449881Y-125362221D01*
X89370432Y-125521229D01*
X84266724Y-125521229D01*
X84283243Y-125481350D01*
X84332537Y-125233535D01*
X84332537Y-124980865D01*
X84283243Y-124733050D01*
X84214862Y-124567964D01*
X84292855Y-124489971D01*
X89370432Y-124489971D01*
X89449881Y-124648979D01*
X89639315Y-124745580D01*
X89843955Y-124803368D01*
X90055937Y-124820122D01*
X90267115Y-124795198D01*
X90469372Y-124729555D01*
X90620119Y-124648979D01*
X90699568Y-124489971D01*
X91910432Y-124489971D01*
X91989881Y-124648979D01*
X92179315Y-124745580D01*
X92383955Y-124803368D01*
X92595937Y-124820122D01*
X92807115Y-124795198D01*
X93009372Y-124729555D01*
X93160119Y-124648979D01*
X93239568Y-124489971D01*
X92575000Y-123825403D01*
X91910432Y-124489971D01*
X90699568Y-124489971D01*
X90035000Y-123825403D01*
X89370432Y-124489971D01*
X84292855Y-124489971D01*
X85026289Y-123756537D01*
X88950478Y-123756537D01*
X88975402Y-123967715D01*
X89041045Y-124169972D01*
X89121621Y-124320719D01*
X89280629Y-124400168D01*
X89945197Y-123735600D01*
X90124803Y-123735600D01*
X90789371Y-124400168D01*
X90948379Y-124320719D01*
X91044980Y-124131285D01*
X91102768Y-123926645D01*
X91116212Y-123756537D01*
X91490478Y-123756537D01*
X91515402Y-123967715D01*
X91581045Y-124169972D01*
X91661621Y-124320719D01*
X91820629Y-124400168D01*
X92485197Y-123735600D01*
X92664803Y-123735600D01*
X93329371Y-124400168D01*
X93488379Y-124320719D01*
X93584980Y-124131285D01*
X93642768Y-123926645D01*
X93659522Y-123714663D01*
X93634598Y-123503485D01*
X93568955Y-123301228D01*
X93488379Y-123150481D01*
X93329371Y-123071032D01*
X92664803Y-123735600D01*
X92485197Y-123735600D01*
X91820629Y-123071032D01*
X91661621Y-123150481D01*
X91565020Y-123339915D01*
X91507232Y-123544555D01*
X91490478Y-123756537D01*
X91116212Y-123756537D01*
X91119522Y-123714663D01*
X91094598Y-123503485D01*
X91028955Y-123301228D01*
X90948379Y-123150481D01*
X90789371Y-123071032D01*
X90124803Y-123735600D01*
X89945197Y-123735600D01*
X89280629Y-123071032D01*
X89121621Y-123150481D01*
X89025020Y-123339915D01*
X88967232Y-123544555D01*
X88950478Y-123756537D01*
X85026289Y-123756537D01*
X85801597Y-122981229D01*
X89370432Y-122981229D01*
X90035000Y-123645797D01*
X90699568Y-122981229D01*
X91910432Y-122981229D01*
X92575000Y-123645797D01*
X93239568Y-122981229D01*
X93160119Y-122822221D01*
X92970685Y-122725620D01*
X92766045Y-122667832D01*
X92554063Y-122651078D01*
X92342885Y-122676002D01*
X92140628Y-122741645D01*
X91989881Y-122822221D01*
X91910432Y-122981229D01*
X90699568Y-122981229D01*
X90620119Y-122822221D01*
X90430685Y-122725620D01*
X90226045Y-122667832D01*
X90014063Y-122651078D01*
X89802885Y-122676002D01*
X89600628Y-122741645D01*
X89449881Y-122822221D01*
X89370432Y-122981229D01*
X85801597Y-122981229D01*
X87693547Y-121089279D01*
X88955500Y-121089279D01*
X88955500Y-121301921D01*
X88996985Y-121510478D01*
X89078360Y-121706935D01*
X89196498Y-121883741D01*
X89346859Y-122034102D01*
X89523665Y-122152240D01*
X89720122Y-122233615D01*
X89928679Y-122275100D01*
X90141321Y-122275100D01*
X90349878Y-122233615D01*
X90546335Y-122152240D01*
X90723141Y-122034102D01*
X90873502Y-121883741D01*
X90991640Y-121706935D01*
X91073015Y-121510478D01*
X91114500Y-121301921D01*
X91114500Y-121089279D01*
X91495500Y-121089279D01*
X91495500Y-121301921D01*
X91536985Y-121510478D01*
X91618360Y-121706935D01*
X91736498Y-121883741D01*
X91886859Y-122034102D01*
X92063665Y-122152240D01*
X92260122Y-122233615D01*
X92468679Y-122275100D01*
X92681321Y-122275100D01*
X92889878Y-122233615D01*
X93086335Y-122152240D01*
X93263141Y-122034102D01*
X93413502Y-121883741D01*
X93531640Y-121706935D01*
X93613015Y-121510478D01*
X93654500Y-121301921D01*
X93654500Y-121089279D01*
X93613015Y-120880722D01*
X93531640Y-120684265D01*
X93413502Y-120507459D01*
X93263141Y-120357098D01*
X93086335Y-120238960D01*
X92889878Y-120157585D01*
X92681321Y-120116100D01*
X92468679Y-120116100D01*
X92260122Y-120157585D01*
X92063665Y-120238960D01*
X91886859Y-120357098D01*
X91736498Y-120507459D01*
X91618360Y-120684265D01*
X91536985Y-120880722D01*
X91495500Y-121089279D01*
X91114500Y-121089279D01*
X91073015Y-120880722D01*
X90991640Y-120684265D01*
X90873502Y-120507459D01*
X90723141Y-120357098D01*
X90546335Y-120238960D01*
X90349878Y-120157585D01*
X90141321Y-120116100D01*
X89928679Y-120116100D01*
X89720122Y-120157585D01*
X89523665Y-120238960D01*
X89346859Y-120357098D01*
X89196498Y-120507459D01*
X89078360Y-120684265D01*
X88996985Y-120880722D01*
X88955500Y-121089279D01*
X87693547Y-121089279D01*
X89545121Y-119237705D01*
X89562009Y-119223846D01*
X89617305Y-119156466D01*
X89658395Y-119079594D01*
X89683697Y-118996182D01*
X89690100Y-118931174D01*
X89690100Y-118931172D01*
X89692241Y-118909438D01*
X89690100Y-118887704D01*
X89690100Y-103474862D01*
X89704980Y-103464919D01*
X89804919Y-103364980D01*
X89883441Y-103247464D01*
X89937527Y-103116887D01*
X89950100Y-103053677D01*
X89950100Y-108035940D01*
X89947356Y-108063800D01*
X89950100Y-108091660D01*
X89950100Y-108091670D01*
X89958312Y-108175048D01*
X89990762Y-108282022D01*
X90043459Y-108380611D01*
X90114376Y-108467024D01*
X90136029Y-108484794D01*
X93658501Y-112007268D01*
X93658500Y-122209139D01*
X93655756Y-122237000D01*
X93658500Y-122264860D01*
X93658500Y-122264870D01*
X93666712Y-122348248D01*
X93699162Y-122455222D01*
X93751859Y-122553811D01*
X93822776Y-122640224D01*
X93844429Y-122657994D01*
X97474475Y-126288041D01*
X97498473Y-126408687D01*
X97552559Y-126539264D01*
X97631081Y-126656780D01*
X97731020Y-126756719D01*
X97848536Y-126835241D01*
X97979113Y-126889327D01*
X98117732Y-126916900D01*
X98259068Y-126916900D01*
X98397687Y-126889327D01*
X98528264Y-126835241D01*
X98645780Y-126756719D01*
X98745719Y-126656780D01*
X98824241Y-126539264D01*
X98878327Y-126408687D01*
X98905900Y-126270068D01*
X98905900Y-126128732D01*
X98878327Y-125990113D01*
X98824241Y-125859536D01*
X98745719Y-125742020D01*
X98645780Y-125642081D01*
X98528264Y-125563559D01*
X98397687Y-125509473D01*
X98277041Y-125485475D01*
X94793500Y-122001935D01*
X94793500Y-118693305D01*
X94864176Y-118779424D01*
X94885829Y-118797194D01*
X96382275Y-120293642D01*
X96406273Y-120414287D01*
X96460359Y-120544864D01*
X96538881Y-120662380D01*
X96638820Y-120762319D01*
X96756336Y-120840841D01*
X96886913Y-120894927D01*
X97025532Y-120922500D01*
X97166868Y-120922500D01*
X97305487Y-120894927D01*
X97436064Y-120840841D01*
X97553580Y-120762319D01*
X97653519Y-120662380D01*
X97732041Y-120544864D01*
X97786127Y-120414287D01*
X97813700Y-120275668D01*
X97813700Y-120134332D01*
X97786127Y-119995713D01*
X97732041Y-119865136D01*
X97653519Y-119747620D01*
X97553580Y-119647681D01*
X97436064Y-119569159D01*
X97305487Y-119515073D01*
X97184842Y-119491075D01*
X95834900Y-118141135D01*
X95834900Y-114746076D01*
X95847490Y-114809370D01*
X95939396Y-115031251D01*
X96072823Y-115230938D01*
X96242642Y-115400757D01*
X96442329Y-115534184D01*
X96664210Y-115626090D01*
X96899756Y-115672943D01*
X97139918Y-115672943D01*
X97375464Y-115626090D01*
X97597345Y-115534184D01*
X97797032Y-115400757D01*
X97890241Y-115307548D01*
X98795834Y-115307548D01*
X98892082Y-115480861D01*
X99105294Y-115591398D01*
X99335973Y-115658215D01*
X99575255Y-115678745D01*
X99813945Y-115652199D01*
X100042870Y-115579597D01*
X100227592Y-115480861D01*
X100323840Y-115307548D01*
X99559837Y-114543546D01*
X98795834Y-115307548D01*
X97890241Y-115307548D01*
X97966851Y-115230938D01*
X98100278Y-115031251D01*
X98192184Y-114809370D01*
X98239037Y-114573824D01*
X98239037Y-114469161D01*
X98334835Y-114469161D01*
X98361381Y-114707851D01*
X98433983Y-114936776D01*
X98532719Y-115121498D01*
X98706032Y-115217746D01*
X99470034Y-114453743D01*
X99649640Y-114453743D01*
X100413642Y-115217746D01*
X100586955Y-115121498D01*
X100697492Y-114908286D01*
X100764309Y-114677607D01*
X100784839Y-114438325D01*
X100758293Y-114199635D01*
X100685691Y-113970710D01*
X100586955Y-113785988D01*
X100413642Y-113689740D01*
X99649640Y-114453743D01*
X99470034Y-114453743D01*
X98706032Y-113689740D01*
X98532719Y-113785988D01*
X98422182Y-113999200D01*
X98355365Y-114229879D01*
X98334835Y-114469161D01*
X98239037Y-114469161D01*
X98239037Y-114333662D01*
X98192184Y-114098116D01*
X98100278Y-113876235D01*
X97966851Y-113676548D01*
X97890241Y-113599938D01*
X98795834Y-113599938D01*
X99559837Y-114363940D01*
X100323840Y-113599938D01*
X100227592Y-113426625D01*
X100014380Y-113316088D01*
X99783701Y-113249271D01*
X99544419Y-113228741D01*
X99305729Y-113255287D01*
X99076804Y-113327889D01*
X98892082Y-113426625D01*
X98795834Y-113599938D01*
X97890241Y-113599938D01*
X97797032Y-113506729D01*
X97597345Y-113373302D01*
X97470500Y-113320761D01*
X97470500Y-112086533D01*
X97472641Y-112064799D01*
X97465315Y-111990424D01*
X97464097Y-111978055D01*
X97438795Y-111894643D01*
X97397705Y-111817771D01*
X97342409Y-111750391D01*
X97325521Y-111736532D01*
X97234009Y-111645020D01*
X97237500Y-111627468D01*
X97237500Y-111486132D01*
X97209927Y-111347513D01*
X97155841Y-111216936D01*
X97077319Y-111099420D01*
X96977380Y-110999481D01*
X96859864Y-110920959D01*
X96729287Y-110866873D01*
X96590668Y-110839300D01*
X96449332Y-110839300D01*
X96310713Y-110866873D01*
X96180136Y-110920959D01*
X96062620Y-110999481D01*
X95962681Y-111099420D01*
X95884159Y-111216936D01*
X95834900Y-111335859D01*
X95834900Y-111190459D01*
X95837644Y-111162599D01*
X95834900Y-111134739D01*
X95834900Y-111134729D01*
X95826688Y-111051351D01*
X95794238Y-110944377D01*
X95741541Y-110845789D01*
X95670624Y-110759376D01*
X95648976Y-110741610D01*
X93244100Y-108336735D01*
X93244100Y-107280734D01*
X93514637Y-107280734D01*
X93514637Y-107605952D01*
X93578084Y-107924922D01*
X93702540Y-108225385D01*
X93883222Y-108495794D01*
X94113186Y-108725758D01*
X94383595Y-108906440D01*
X94684058Y-109030896D01*
X95003028Y-109094343D01*
X95328246Y-109094343D01*
X95647216Y-109030896D01*
X95947679Y-108906440D01*
X96218088Y-108725758D01*
X96448052Y-108495794D01*
X96628734Y-108225385D01*
X96753190Y-107924922D01*
X96816637Y-107605952D01*
X96816637Y-107280734D01*
X96753190Y-106961764D01*
X96628734Y-106661301D01*
X96448052Y-106390892D01*
X96218088Y-106160928D01*
X95947679Y-105980246D01*
X95647216Y-105855790D01*
X95328246Y-105792343D01*
X95003028Y-105792343D01*
X94684058Y-105855790D01*
X94383595Y-105980246D01*
X94113186Y-106160928D01*
X93883222Y-106390892D01*
X93702540Y-106661301D01*
X93578084Y-106961764D01*
X93514637Y-107280734D01*
X93244100Y-107280734D01*
X93244100Y-87168300D01*
X94266457Y-87168300D01*
X94368736Y-87236641D01*
X94499313Y-87290727D01*
X94637932Y-87318300D01*
X94779268Y-87318300D01*
X94917887Y-87290727D01*
X95048464Y-87236641D01*
X95165980Y-87158119D01*
X95180500Y-87143599D01*
X95180501Y-103661138D01*
X95165620Y-103671081D01*
X95065681Y-103771020D01*
X94987159Y-103888536D01*
X94933073Y-104019113D01*
X94905500Y-104157732D01*
X94905500Y-104299068D01*
X94933073Y-104437687D01*
X94987159Y-104568264D01*
X95065681Y-104685780D01*
X95165620Y-104785719D01*
X95283136Y-104864241D01*
X95413713Y-104918327D01*
X95552332Y-104945900D01*
X95693668Y-104945900D01*
X95832287Y-104918327D01*
X95962864Y-104864241D01*
X96080380Y-104785719D01*
X96180319Y-104685780D01*
X96258841Y-104568264D01*
X96312927Y-104437687D01*
X96340500Y-104299068D01*
X96340500Y-104157732D01*
X96312927Y-104019113D01*
X96258841Y-103888536D01*
X96180319Y-103771020D01*
X96080380Y-103671081D01*
X96065500Y-103661138D01*
X96065500Y-90157465D01*
X98277137Y-90157465D01*
X98277137Y-90410135D01*
X98326431Y-90657950D01*
X98423123Y-90891386D01*
X98563499Y-91101473D01*
X98742164Y-91280138D01*
X98952251Y-91420514D01*
X99185687Y-91517206D01*
X99244501Y-91528905D01*
X99244500Y-94872738D01*
X99229620Y-94882681D01*
X99129681Y-94982620D01*
X99051159Y-95100136D01*
X98997073Y-95230713D01*
X98969500Y-95369332D01*
X98969500Y-95510668D01*
X98997073Y-95649287D01*
X99051159Y-95779864D01*
X99129681Y-95897380D01*
X99229620Y-95997319D01*
X99347136Y-96075841D01*
X99477713Y-96129927D01*
X99616332Y-96157500D01*
X99757668Y-96157500D01*
X99896287Y-96129927D01*
X100026864Y-96075841D01*
X100144380Y-95997319D01*
X100244319Y-95897380D01*
X100322841Y-95779864D01*
X100376927Y-95649287D01*
X100404500Y-95510668D01*
X100404500Y-95369332D01*
X100376927Y-95230713D01*
X100322841Y-95100136D01*
X100244319Y-94982620D01*
X100144380Y-94882681D01*
X100129500Y-94872738D01*
X100129500Y-91436222D01*
X100167423Y-91420514D01*
X100377510Y-91280138D01*
X100556175Y-91101473D01*
X100696551Y-90891386D01*
X100793243Y-90657950D01*
X100842537Y-90410135D01*
X100842537Y-90157465D01*
X100793243Y-89909650D01*
X100696551Y-89676214D01*
X100556175Y-89466127D01*
X100377510Y-89287462D01*
X100167423Y-89147086D01*
X99933987Y-89050394D01*
X99686172Y-89001100D01*
X99433502Y-89001100D01*
X99185687Y-89050394D01*
X98952251Y-89147086D01*
X98742164Y-89287462D01*
X98563499Y-89466127D01*
X98423123Y-89676214D01*
X98326431Y-89909650D01*
X98277137Y-90157465D01*
X96065500Y-90157465D01*
X96065500Y-84970479D01*
X98480337Y-84970479D01*
X98480337Y-85183121D01*
X98521822Y-85391678D01*
X98603197Y-85588135D01*
X98721335Y-85764941D01*
X98871696Y-85915302D01*
X99048502Y-86033440D01*
X99244959Y-86114815D01*
X99453516Y-86156300D01*
X99666158Y-86156300D01*
X99874715Y-86114815D01*
X100071172Y-86033440D01*
X100247978Y-85915302D01*
X100398339Y-85764941D01*
X100516477Y-85588135D01*
X100597852Y-85391678D01*
X100639337Y-85183121D01*
X100639337Y-84970479D01*
X100597852Y-84761922D01*
X100516477Y-84565465D01*
X100398339Y-84388659D01*
X100247978Y-84238298D01*
X100071172Y-84120160D01*
X99874715Y-84038785D01*
X99666158Y-83997300D01*
X99453516Y-83997300D01*
X99244959Y-84038785D01*
X99048502Y-84120160D01*
X98871696Y-84238298D01*
X98721335Y-84388659D01*
X98603197Y-84565465D01*
X98521822Y-84761922D01*
X98480337Y-84970479D01*
X96065500Y-84970479D01*
X96065500Y-84285733D01*
X96067641Y-84263999D01*
X96064782Y-84234975D01*
X96059097Y-84177255D01*
X96033795Y-84093843D01*
X96006662Y-84043082D01*
X95992705Y-84016970D01*
X95951265Y-83966475D01*
X95937409Y-83949591D01*
X95920526Y-83935736D01*
X95194009Y-83209219D01*
X95197500Y-83191668D01*
X95197500Y-83050332D01*
X95169927Y-82911713D01*
X95115841Y-82781136D01*
X95037319Y-82663620D01*
X94996688Y-82622989D01*
X98750650Y-82622989D01*
X98854530Y-82802805D01*
X99078546Y-82919675D01*
X99321059Y-82990596D01*
X99572747Y-83012842D01*
X99823940Y-82985559D01*
X100064983Y-82909795D01*
X100265144Y-82802805D01*
X100369024Y-82622989D01*
X99559837Y-81813803D01*
X98750650Y-82622989D01*
X94996688Y-82622989D01*
X94937380Y-82563681D01*
X94922500Y-82553738D01*
X94922500Y-81736910D01*
X98270995Y-81736910D01*
X98298278Y-81988103D01*
X98374042Y-82229146D01*
X98481032Y-82429307D01*
X98660848Y-82533187D01*
X99470034Y-81724000D01*
X99649640Y-81724000D01*
X100458826Y-82533187D01*
X100638642Y-82429307D01*
X100755512Y-82205291D01*
X100826433Y-81962778D01*
X100848679Y-81711090D01*
X100821396Y-81459897D01*
X100745632Y-81218854D01*
X100638642Y-81018693D01*
X100458826Y-80914813D01*
X99649640Y-81724000D01*
X99470034Y-81724000D01*
X98660848Y-80914813D01*
X98481032Y-81018693D01*
X98364162Y-81242709D01*
X98293241Y-81485222D01*
X98270995Y-81736910D01*
X94922500Y-81736910D01*
X94922500Y-80209989D01*
X98750650Y-80209989D01*
X98854530Y-80389805D01*
X99078546Y-80506675D01*
X99118153Y-80518258D01*
X99054691Y-80538205D01*
X98854530Y-80645195D01*
X98750650Y-80825011D01*
X99559837Y-81634197D01*
X100369024Y-80825011D01*
X100265144Y-80645195D01*
X100041128Y-80528325D01*
X100001521Y-80516742D01*
X100064983Y-80496795D01*
X100265144Y-80389805D01*
X100369024Y-80209989D01*
X99559837Y-79400803D01*
X98750650Y-80209989D01*
X94922500Y-80209989D01*
X94922500Y-79323910D01*
X98270995Y-79323910D01*
X98298278Y-79575103D01*
X98374042Y-79816146D01*
X98481032Y-80016307D01*
X98660848Y-80120187D01*
X99470034Y-79311000D01*
X99649640Y-79311000D01*
X100458826Y-80120187D01*
X100638642Y-80016307D01*
X100755512Y-79792291D01*
X100826433Y-79549778D01*
X100848679Y-79298090D01*
X100821396Y-79046897D01*
X100745632Y-78805854D01*
X100638642Y-78605693D01*
X100458826Y-78501813D01*
X99649640Y-79311000D01*
X99470034Y-79311000D01*
X98660848Y-78501813D01*
X98481032Y-78605693D01*
X98364162Y-78829709D01*
X98293241Y-79072222D01*
X98270995Y-79323910D01*
X94922500Y-79323910D01*
X94922500Y-78412011D01*
X98750650Y-78412011D01*
X99559837Y-79221197D01*
X100369024Y-78412011D01*
X100265144Y-78232195D01*
X100041128Y-78115325D01*
X99798615Y-78044404D01*
X99546927Y-78022158D01*
X99295734Y-78049441D01*
X99054691Y-78125205D01*
X98854530Y-78232195D01*
X98750650Y-78412011D01*
X94922500Y-78412011D01*
X94922500Y-76501589D01*
X98750650Y-76501589D01*
X98854530Y-76681405D01*
X99078546Y-76798275D01*
X99321059Y-76869196D01*
X99572747Y-76891442D01*
X99823940Y-76864159D01*
X100064983Y-76788395D01*
X100265144Y-76681405D01*
X100369024Y-76501589D01*
X99559837Y-75692403D01*
X98750650Y-76501589D01*
X94922500Y-76501589D01*
X94922500Y-75615510D01*
X98270995Y-75615510D01*
X98298278Y-75866703D01*
X98374042Y-76107746D01*
X98481032Y-76307907D01*
X98660848Y-76411787D01*
X99470034Y-75602600D01*
X99649640Y-75602600D01*
X100458826Y-76411787D01*
X100638642Y-76307907D01*
X100755512Y-76083891D01*
X100826433Y-75841378D01*
X100848679Y-75589690D01*
X100821396Y-75338497D01*
X100745632Y-75097454D01*
X100638642Y-74897293D01*
X100458826Y-74793413D01*
X99649640Y-75602600D01*
X99470034Y-75602600D01*
X98660848Y-74793413D01*
X98481032Y-74897293D01*
X98364162Y-75121309D01*
X98293241Y-75363822D01*
X98270995Y-75615510D01*
X94922500Y-75615510D01*
X94922500Y-75514399D01*
X94986519Y-75450380D01*
X95065041Y-75332864D01*
X95119127Y-75202287D01*
X95146700Y-75063668D01*
X95146700Y-74922332D01*
X95119127Y-74783713D01*
X95065041Y-74653136D01*
X94986519Y-74535620D01*
X94886580Y-74435681D01*
X94769064Y-74357159D01*
X94638487Y-74303073D01*
X94499868Y-74275500D01*
X94358532Y-74275500D01*
X94219913Y-74303073D01*
X94089336Y-74357159D01*
X93971820Y-74435681D01*
X93871881Y-74535620D01*
X93793359Y-74653136D01*
X93739273Y-74783713D01*
X93711700Y-74922332D01*
X93711700Y-75063668D01*
X93739273Y-75202287D01*
X93793359Y-75332864D01*
X93871881Y-75450380D01*
X93971820Y-75550319D01*
X94037501Y-75594206D01*
X94037500Y-82553738D01*
X94022620Y-82563681D01*
X93922681Y-82663620D01*
X93844159Y-82781136D01*
X93790073Y-82911713D01*
X93762500Y-83050332D01*
X93762500Y-83191668D01*
X93790073Y-83330287D01*
X93844159Y-83460864D01*
X93922681Y-83578380D01*
X94022620Y-83678319D01*
X94140136Y-83756841D01*
X94270713Y-83810927D01*
X94409332Y-83838500D01*
X94550668Y-83838500D01*
X94568219Y-83835009D01*
X95180500Y-84447290D01*
X95180500Y-86058001D01*
X95165980Y-86043481D01*
X95048464Y-85964959D01*
X94917887Y-85910873D01*
X94779268Y-85883300D01*
X94637932Y-85883300D01*
X94499313Y-85910873D01*
X94368736Y-85964959D01*
X94266457Y-86033300D01*
X93244100Y-86033300D01*
X93244100Y-74088589D01*
X98750650Y-74088589D01*
X98854530Y-74268405D01*
X99078546Y-74385275D01*
X99118153Y-74396858D01*
X99054691Y-74416805D01*
X98854530Y-74523795D01*
X98750650Y-74703611D01*
X99559837Y-75512797D01*
X100369024Y-74703611D01*
X100265144Y-74523795D01*
X100041128Y-74406925D01*
X100001521Y-74395342D01*
X100064983Y-74375395D01*
X100265144Y-74268405D01*
X100369024Y-74088589D01*
X99559837Y-73279403D01*
X98750650Y-74088589D01*
X93244100Y-74088589D01*
X93244100Y-73202510D01*
X98270995Y-73202510D01*
X98298278Y-73453703D01*
X98374042Y-73694746D01*
X98481032Y-73894907D01*
X98660848Y-73998787D01*
X99470034Y-73189600D01*
X99649640Y-73189600D01*
X100458826Y-73998787D01*
X100638642Y-73894907D01*
X100755512Y-73670891D01*
X100826433Y-73428378D01*
X100848679Y-73176690D01*
X100821396Y-72925497D01*
X100745632Y-72684454D01*
X100638642Y-72484293D01*
X100458826Y-72380413D01*
X99649640Y-73189600D01*
X99470034Y-73189600D01*
X98660848Y-72380413D01*
X98481032Y-72484293D01*
X98364162Y-72708309D01*
X98293241Y-72950822D01*
X98270995Y-73202510D01*
X93244100Y-73202510D01*
X93244100Y-72290611D01*
X98750650Y-72290611D01*
X99559837Y-73099797D01*
X100369024Y-72290611D01*
X100265144Y-72110795D01*
X100041128Y-71993925D01*
X99798615Y-71923004D01*
X99546927Y-71900758D01*
X99295734Y-71928041D01*
X99054691Y-72003805D01*
X98854530Y-72110795D01*
X98750650Y-72290611D01*
X93244100Y-72290611D01*
X93244100Y-69730479D01*
X98480337Y-69730479D01*
X98480337Y-69943121D01*
X98521822Y-70151678D01*
X98603197Y-70348135D01*
X98721335Y-70524941D01*
X98871696Y-70675302D01*
X99048502Y-70793440D01*
X99244959Y-70874815D01*
X99453516Y-70916300D01*
X99666158Y-70916300D01*
X99874715Y-70874815D01*
X100071172Y-70793440D01*
X100247978Y-70675302D01*
X100398339Y-70524941D01*
X100516477Y-70348135D01*
X100597852Y-70151678D01*
X100639337Y-69943121D01*
X100639337Y-69730479D01*
X100597852Y-69521922D01*
X100516477Y-69325465D01*
X100398339Y-69148659D01*
X100247978Y-68998298D01*
X100071172Y-68880160D01*
X99874715Y-68798785D01*
X99666158Y-68757300D01*
X99453516Y-68757300D01*
X99244959Y-68798785D01*
X99048502Y-68880160D01*
X98871696Y-68998298D01*
X98721335Y-69148659D01*
X98603197Y-69325465D01*
X98521822Y-69521922D01*
X98480337Y-69730479D01*
X93244100Y-69730479D01*
X93244100Y-66365700D01*
X94291857Y-66365700D01*
X94394136Y-66434041D01*
X94524713Y-66488127D01*
X94663332Y-66515700D01*
X94804668Y-66515700D01*
X94943287Y-66488127D01*
X95073864Y-66434041D01*
X95191380Y-66355519D01*
X95291319Y-66255580D01*
X95369841Y-66138064D01*
X95423927Y-66007487D01*
X95451500Y-65868868D01*
X95451500Y-65727532D01*
X95423927Y-65588913D01*
X95369841Y-65458336D01*
X95291319Y-65340820D01*
X95191380Y-65240881D01*
X95073864Y-65162359D01*
X94943287Y-65108273D01*
X94804668Y-65080700D01*
X94663332Y-65080700D01*
X94524713Y-65108273D01*
X94394136Y-65162359D01*
X94291857Y-65230700D01*
X93244100Y-65230700D01*
X93244100Y-57015332D01*
X96505700Y-57015332D01*
X96505700Y-57156668D01*
X96533273Y-57295287D01*
X96587359Y-57425864D01*
X96665881Y-57543380D01*
X96765820Y-57643319D01*
X96780700Y-57653262D01*
X96780701Y-64133800D01*
X96691281Y-64223220D01*
X96612759Y-64340736D01*
X96558673Y-64471313D01*
X96531100Y-64609932D01*
X96531100Y-64751268D01*
X96558673Y-64889887D01*
X96612759Y-65020464D01*
X96691281Y-65137980D01*
X96791220Y-65237919D01*
X96908736Y-65316441D01*
X97039313Y-65370527D01*
X97177932Y-65398100D01*
X97319268Y-65398100D01*
X97457887Y-65370527D01*
X97588464Y-65316441D01*
X97705980Y-65237919D01*
X97805919Y-65137980D01*
X97884441Y-65020464D01*
X97938527Y-64889887D01*
X97966100Y-64751268D01*
X97966100Y-64609932D01*
X97944923Y-64503465D01*
X98277137Y-64503465D01*
X98277137Y-64756135D01*
X98326431Y-65003950D01*
X98423123Y-65237386D01*
X98563499Y-65447473D01*
X98742164Y-65626138D01*
X98952251Y-65766514D01*
X99185687Y-65863206D01*
X99433502Y-65912500D01*
X99686172Y-65912500D01*
X99933987Y-65863206D01*
X100099073Y-65794825D01*
X101987701Y-67683453D01*
X101987700Y-76635538D01*
X101972820Y-76645481D01*
X101872881Y-76745420D01*
X101794359Y-76862936D01*
X101740273Y-76993513D01*
X101712700Y-77132132D01*
X101712700Y-77273468D01*
X101740273Y-77412087D01*
X101794359Y-77542664D01*
X101872881Y-77660180D01*
X101972820Y-77760119D01*
X102090336Y-77838641D01*
X102220913Y-77892727D01*
X102359532Y-77920300D01*
X102500868Y-77920300D01*
X102639487Y-77892727D01*
X102770064Y-77838641D01*
X102887580Y-77760119D01*
X102987519Y-77660180D01*
X103066041Y-77542664D01*
X103120127Y-77412087D01*
X103147700Y-77273468D01*
X103147700Y-77132132D01*
X103120127Y-76993513D01*
X103066041Y-76862936D01*
X102987519Y-76745420D01*
X102887580Y-76645481D01*
X102872700Y-76635538D01*
X102872700Y-67521896D01*
X102874841Y-67500162D01*
X102871570Y-67466956D01*
X102866297Y-67413418D01*
X102840995Y-67330006D01*
X102799905Y-67253134D01*
X102744609Y-67185754D01*
X102727719Y-67171893D01*
X100724862Y-65169036D01*
X100793243Y-65003950D01*
X100842537Y-64756135D01*
X100842537Y-64503465D01*
X100793243Y-64255650D01*
X100696551Y-64022214D01*
X100556175Y-63812127D01*
X100377510Y-63633462D01*
X100167423Y-63493086D01*
X99933987Y-63396394D01*
X99686172Y-63347100D01*
X99433502Y-63347100D01*
X99185687Y-63396394D01*
X98952251Y-63493086D01*
X98742164Y-63633462D01*
X98563499Y-63812127D01*
X98423123Y-64022214D01*
X98326431Y-64255650D01*
X98277137Y-64503465D01*
X97944923Y-64503465D01*
X97938527Y-64471313D01*
X97884441Y-64340736D01*
X97805919Y-64223220D01*
X97705980Y-64123281D01*
X97665700Y-64096367D01*
X97665700Y-57653262D01*
X97680580Y-57643319D01*
X97780519Y-57543380D01*
X97859041Y-57425864D01*
X97913127Y-57295287D01*
X97940700Y-57156668D01*
X97940700Y-57137465D01*
X98277137Y-57137465D01*
X98277137Y-57390135D01*
X98326431Y-57637950D01*
X98423123Y-57871386D01*
X98563499Y-58081473D01*
X98742164Y-58260138D01*
X98952251Y-58400514D01*
X99185687Y-58497206D01*
X99433502Y-58546500D01*
X99686172Y-58546500D01*
X99933987Y-58497206D01*
X100167423Y-58400514D01*
X100377510Y-58260138D01*
X100556175Y-58081473D01*
X100696551Y-57871386D01*
X100793243Y-57637950D01*
X100842537Y-57390135D01*
X100842537Y-57137465D01*
X100793243Y-56889650D01*
X100696551Y-56656214D01*
X100556175Y-56446127D01*
X100377510Y-56267462D01*
X100167423Y-56127086D01*
X99933987Y-56030394D01*
X99686172Y-55981100D01*
X99433502Y-55981100D01*
X99185687Y-56030394D01*
X98952251Y-56127086D01*
X98742164Y-56267462D01*
X98563499Y-56446127D01*
X98423123Y-56656214D01*
X98326431Y-56889650D01*
X98277137Y-57137465D01*
X97940700Y-57137465D01*
X97940700Y-57015332D01*
X97913127Y-56876713D01*
X97859041Y-56746136D01*
X97780519Y-56628620D01*
X97680580Y-56528681D01*
X97563064Y-56450159D01*
X97432487Y-56396073D01*
X97293868Y-56368500D01*
X97152532Y-56368500D01*
X97013913Y-56396073D01*
X96883336Y-56450159D01*
X96765820Y-56528681D01*
X96665881Y-56628620D01*
X96587359Y-56746136D01*
X96533273Y-56876713D01*
X96505700Y-57015332D01*
X93244100Y-57015332D01*
X93244100Y-51950479D01*
X98480337Y-51950479D01*
X98480337Y-52163121D01*
X98521822Y-52371678D01*
X98603197Y-52568135D01*
X98721335Y-52744941D01*
X98871696Y-52895302D01*
X99048502Y-53013440D01*
X99244959Y-53094815D01*
X99453516Y-53136300D01*
X99666158Y-53136300D01*
X99874715Y-53094815D01*
X100071172Y-53013440D01*
X100247978Y-52895302D01*
X100398339Y-52744941D01*
X100516477Y-52568135D01*
X100597852Y-52371678D01*
X100639337Y-52163121D01*
X100639337Y-51950479D01*
X100597852Y-51741922D01*
X100516477Y-51545465D01*
X100398339Y-51368659D01*
X100247978Y-51218298D01*
X100071172Y-51100160D01*
X99874715Y-51018785D01*
X99666158Y-50977300D01*
X99453516Y-50977300D01*
X99244959Y-51018785D01*
X99048502Y-51100160D01*
X98871696Y-51218298D01*
X98721335Y-51368659D01*
X98603197Y-51545465D01*
X98521822Y-51741922D01*
X98480337Y-51950479D01*
X93244100Y-51950479D01*
X93244100Y-49602989D01*
X98750650Y-49602989D01*
X98854530Y-49782805D01*
X99078546Y-49899675D01*
X99321059Y-49970596D01*
X99572747Y-49992842D01*
X99823940Y-49965559D01*
X100064983Y-49889795D01*
X100265144Y-49782805D01*
X100369024Y-49602989D01*
X99559837Y-48793803D01*
X98750650Y-49602989D01*
X93244100Y-49602989D01*
X93244100Y-48716910D01*
X98270995Y-48716910D01*
X98298278Y-48968103D01*
X98374042Y-49209146D01*
X98481032Y-49409307D01*
X98660848Y-49513187D01*
X99470034Y-48704000D01*
X99649640Y-48704000D01*
X100458826Y-49513187D01*
X100638642Y-49409307D01*
X100755512Y-49185291D01*
X100826433Y-48942778D01*
X100848679Y-48691090D01*
X100821396Y-48439897D01*
X100745632Y-48198854D01*
X100638642Y-47998693D01*
X100458826Y-47894813D01*
X99649640Y-48704000D01*
X99470034Y-48704000D01*
X98660848Y-47894813D01*
X98481032Y-47998693D01*
X98364162Y-48222709D01*
X98293241Y-48465222D01*
X98270995Y-48716910D01*
X93244100Y-48716910D01*
X93244100Y-47189989D01*
X98750650Y-47189989D01*
X98854530Y-47369805D01*
X99078546Y-47486675D01*
X99118153Y-47498258D01*
X99054691Y-47518205D01*
X98854530Y-47625195D01*
X98750650Y-47805011D01*
X99559837Y-48614197D01*
X100369024Y-47805011D01*
X100265144Y-47625195D01*
X100041128Y-47508325D01*
X100001521Y-47496742D01*
X100064983Y-47476795D01*
X100265144Y-47369805D01*
X100369024Y-47189989D01*
X99559837Y-46380803D01*
X98750650Y-47189989D01*
X93244100Y-47189989D01*
X93244100Y-46678465D01*
X93618655Y-46303910D01*
X98270995Y-46303910D01*
X98298278Y-46555103D01*
X98374042Y-46796146D01*
X98481032Y-46996307D01*
X98660848Y-47100187D01*
X99470034Y-46291000D01*
X99649640Y-46291000D01*
X100458826Y-47100187D01*
X100638642Y-46996307D01*
X100755512Y-46772291D01*
X100826433Y-46529778D01*
X100848679Y-46278090D01*
X100821396Y-46026897D01*
X100745632Y-45785854D01*
X100638642Y-45585693D01*
X100458826Y-45481813D01*
X99649640Y-46291000D01*
X99470034Y-46291000D01*
X98660848Y-45481813D01*
X98481032Y-45585693D01*
X98364162Y-45809709D01*
X98293241Y-46052222D01*
X98270995Y-46303910D01*
X93618655Y-46303910D01*
X93959041Y-45963525D01*
X94079687Y-45939527D01*
X94210264Y-45885441D01*
X94327780Y-45806919D01*
X94427719Y-45706980D01*
X94506241Y-45589464D01*
X94560327Y-45458887D01*
X94573629Y-45392011D01*
X98750650Y-45392011D01*
X99559837Y-46201197D01*
X100369024Y-45392011D01*
X100265144Y-45212195D01*
X100041128Y-45095325D01*
X99798615Y-45024404D01*
X99546927Y-45002158D01*
X99295734Y-45029441D01*
X99054691Y-45105205D01*
X98854530Y-45212195D01*
X98750650Y-45392011D01*
X94573629Y-45392011D01*
X94587900Y-45320268D01*
X94587900Y-45178932D01*
X94560327Y-45040313D01*
X94506241Y-44909736D01*
X94427719Y-44792220D01*
X94327780Y-44692281D01*
X94210264Y-44613759D01*
X94079687Y-44559673D01*
X93941068Y-44532100D01*
X93799732Y-44532100D01*
X93661113Y-44559673D01*
X93530536Y-44613759D01*
X93413020Y-44692281D01*
X93313081Y-44792220D01*
X93234559Y-44909736D01*
X93180473Y-45040313D01*
X93156475Y-45160959D01*
X92295025Y-46022410D01*
X92273377Y-46040176D01*
X92255611Y-46061824D01*
X92255610Y-46061825D01*
X92202459Y-46126589D01*
X92149763Y-46225177D01*
X92117313Y-46332151D01*
X92106356Y-46443400D01*
X92109101Y-46471271D01*
X92109100Y-65795739D01*
X92106356Y-65823600D01*
X92109100Y-65851460D01*
X92109100Y-65851470D01*
X92109101Y-65851480D01*
X92109100Y-79331948D01*
X92000464Y-79259359D01*
X91869887Y-79205273D01*
X91731268Y-79177700D01*
X91589932Y-79177700D01*
X91451313Y-79205273D01*
X91320736Y-79259359D01*
X91203220Y-79337881D01*
X91103281Y-79437820D01*
X91085100Y-79465030D01*
X91085100Y-64360743D01*
X91153441Y-64258464D01*
X91207527Y-64127887D01*
X91235100Y-63989268D01*
X91235100Y-63847932D01*
X91207527Y-63709313D01*
X91153441Y-63578736D01*
X91085100Y-63476457D01*
X91085100Y-43481589D01*
X98750650Y-43481589D01*
X98854530Y-43661405D01*
X99078546Y-43778275D01*
X99321059Y-43849196D01*
X99572747Y-43871442D01*
X99823940Y-43844159D01*
X100064983Y-43768395D01*
X100265144Y-43661405D01*
X100369024Y-43481589D01*
X99559837Y-42672403D01*
X98750650Y-43481589D01*
X91085100Y-43481589D01*
X91085100Y-42595510D01*
X98270995Y-42595510D01*
X98298278Y-42846703D01*
X98374042Y-43087746D01*
X98481032Y-43287907D01*
X98660848Y-43391787D01*
X99470034Y-42582600D01*
X99649640Y-42582600D01*
X100458826Y-43391787D01*
X100638642Y-43287907D01*
X100755512Y-43063891D01*
X100826433Y-42821378D01*
X100848679Y-42569690D01*
X100821396Y-42318497D01*
X100745632Y-42077454D01*
X100638642Y-41877293D01*
X100458826Y-41773413D01*
X99649640Y-42582600D01*
X99470034Y-42582600D01*
X98660848Y-41773413D01*
X98481032Y-41877293D01*
X98364162Y-42101309D01*
X98293241Y-42343822D01*
X98270995Y-42595510D01*
X91085100Y-42595510D01*
X91085100Y-41068589D01*
X98750650Y-41068589D01*
X98854530Y-41248405D01*
X99078546Y-41365275D01*
X99118153Y-41376858D01*
X99054691Y-41396805D01*
X98854530Y-41503795D01*
X98750650Y-41683611D01*
X99559837Y-42492797D01*
X100369024Y-41683611D01*
X100265144Y-41503795D01*
X100041128Y-41386925D01*
X100001521Y-41375342D01*
X100064983Y-41355395D01*
X100265144Y-41248405D01*
X100369024Y-41068589D01*
X99559837Y-40259403D01*
X98750650Y-41068589D01*
X91085100Y-41068589D01*
X91085100Y-40182510D01*
X98270995Y-40182510D01*
X98298278Y-40433703D01*
X98374042Y-40674746D01*
X98481032Y-40874907D01*
X98660848Y-40978787D01*
X99470034Y-40169600D01*
X99649640Y-40169600D01*
X100458826Y-40978787D01*
X100638642Y-40874907D01*
X100755512Y-40650891D01*
X100826433Y-40408378D01*
X100848679Y-40156690D01*
X100821396Y-39905497D01*
X100745632Y-39664454D01*
X100638642Y-39464293D01*
X100458826Y-39360413D01*
X99649640Y-40169600D01*
X99470034Y-40169600D01*
X98660848Y-39360413D01*
X98481032Y-39464293D01*
X98364162Y-39688309D01*
X98293241Y-39930822D01*
X98270995Y-40182510D01*
X91085100Y-40182510D01*
X91085100Y-39519543D01*
X91153441Y-39417264D01*
X91207527Y-39286687D01*
X91210724Y-39270611D01*
X98750650Y-39270611D01*
X99559837Y-40079797D01*
X100369024Y-39270611D01*
X100265144Y-39090795D01*
X100041128Y-38973925D01*
X99798615Y-38903004D01*
X99546927Y-38880758D01*
X99295734Y-38908041D01*
X99054691Y-38983805D01*
X98854530Y-39090795D01*
X98750650Y-39270611D01*
X91210724Y-39270611D01*
X91235100Y-39148068D01*
X91235100Y-39006732D01*
X91207527Y-38868113D01*
X91153441Y-38737536D01*
X91074919Y-38620020D01*
X90974980Y-38520081D01*
X90857464Y-38441559D01*
X90726887Y-38387473D01*
X90588268Y-38359900D01*
X90446932Y-38359900D01*
X90308313Y-38387473D01*
X90177736Y-38441559D01*
X90060220Y-38520081D01*
X89960281Y-38620020D01*
X89881759Y-38737536D01*
X89827673Y-38868113D01*
X89800100Y-39006732D01*
X89800100Y-39148068D01*
X89827673Y-39286687D01*
X89881759Y-39417264D01*
X89950101Y-39519545D01*
X89950101Y-45327258D01*
X89881119Y-45224020D01*
X89781180Y-45124081D01*
X89663664Y-45045559D01*
X89533087Y-44991473D01*
X89394468Y-44963900D01*
X89253132Y-44963900D01*
X89114513Y-44991473D01*
X88983936Y-45045559D01*
X88866420Y-45124081D01*
X88766481Y-45224020D01*
X88687959Y-45341536D01*
X88633873Y-45472113D01*
X88606300Y-45610732D01*
X88606300Y-45752068D01*
X88633873Y-45890687D01*
X88687959Y-46021264D01*
X88766481Y-46138780D01*
X88866420Y-46238719D01*
X88881300Y-46248662D01*
X88881301Y-49401800D01*
X88842681Y-49440420D01*
X88764159Y-49557936D01*
X88710073Y-49688513D01*
X88682500Y-49827132D01*
X88682500Y-49968468D01*
X88710073Y-50107087D01*
X88764159Y-50237664D01*
X88842681Y-50355180D01*
X88942620Y-50455119D01*
X89060136Y-50533641D01*
X89190713Y-50587727D01*
X89329332Y-50615300D01*
X89470668Y-50615300D01*
X89609287Y-50587727D01*
X89739864Y-50533641D01*
X89857380Y-50455119D01*
X89950101Y-50362398D01*
X89950100Y-55689510D01*
X89555209Y-55294619D01*
X89558700Y-55277068D01*
X89558700Y-55135732D01*
X89531127Y-54997113D01*
X89477041Y-54866536D01*
X89398519Y-54749020D01*
X89298580Y-54649081D01*
X89181064Y-54570559D01*
X89050487Y-54516473D01*
X88911868Y-54488900D01*
X88770532Y-54488900D01*
X88631913Y-54516473D01*
X88501336Y-54570559D01*
X88383820Y-54649081D01*
X88283881Y-54749020D01*
X88205359Y-54866536D01*
X88170502Y-54950689D01*
X88159527Y-54895513D01*
X88105441Y-54764936D01*
X88026919Y-54647420D01*
X87926980Y-54547481D01*
X87809464Y-54468959D01*
X87678887Y-54414873D01*
X87540268Y-54387300D01*
X87398932Y-54387300D01*
X87260313Y-54414873D01*
X87129736Y-54468959D01*
X87012220Y-54547481D01*
X86912281Y-54647420D01*
X86833759Y-54764936D01*
X86779673Y-54895513D01*
X86752100Y-55034132D01*
X86752100Y-55175468D01*
X86779673Y-55314087D01*
X86833759Y-55444664D01*
X86912281Y-55562180D01*
X87012220Y-55662119D01*
X87027100Y-55672062D01*
X87027100Y-56043111D01*
X86456409Y-55472420D01*
X86459900Y-55454868D01*
X86459900Y-55313532D01*
X86432327Y-55174913D01*
X86378241Y-55044336D01*
X86299719Y-54926820D01*
X86199780Y-54826881D01*
X86082264Y-54748359D01*
X85951687Y-54694273D01*
X85813068Y-54666700D01*
X85671732Y-54666700D01*
X85533113Y-54694273D01*
X85402536Y-54748359D01*
X85285020Y-54826881D01*
X85185081Y-54926820D01*
X85106559Y-55044336D01*
X85052473Y-55174913D01*
X85024900Y-55313532D01*
X85024900Y-55454868D01*
X85052473Y-55593487D01*
X85106559Y-55724064D01*
X85185081Y-55841580D01*
X85285020Y-55941519D01*
X85402536Y-56020041D01*
X85533113Y-56074127D01*
X85671732Y-56101700D01*
X85813068Y-56101700D01*
X85830620Y-56098209D01*
X86577090Y-56844679D01*
X86577090Y-58161406D01*
X86443642Y-58087297D01*
X85679640Y-58851300D01*
X86443642Y-59615303D01*
X86577090Y-59541194D01*
X86577091Y-66885331D01*
X86104300Y-67358122D01*
X86104300Y-67226132D01*
X86076727Y-67087513D01*
X86022641Y-66956936D01*
X85944119Y-66839420D01*
X85844180Y-66739481D01*
X85726664Y-66660959D01*
X85596087Y-66606873D01*
X85457468Y-66579300D01*
X85316132Y-66579300D01*
X85177513Y-66606873D01*
X85046936Y-66660959D01*
X84929420Y-66739481D01*
X84829481Y-66839420D01*
X84750959Y-66956936D01*
X84696873Y-67087513D01*
X84669300Y-67226132D01*
X84669300Y-67367468D01*
X84696873Y-67506087D01*
X84750959Y-67636664D01*
X84829481Y-67754180D01*
X84886312Y-67811011D01*
X84886312Y-68093013D01*
X84853580Y-68060281D01*
X84736064Y-67981759D01*
X84605487Y-67927673D01*
X84466868Y-67900100D01*
X84325532Y-67900100D01*
X84186913Y-67927673D01*
X84056336Y-67981759D01*
X83938820Y-68060281D01*
X83838881Y-68160220D01*
X83760359Y-68277736D01*
X83706273Y-68408313D01*
X83678700Y-68546932D01*
X83678700Y-68688268D01*
X83706273Y-68826887D01*
X83760359Y-68957464D01*
X83838881Y-69074980D01*
X83938820Y-69174919D01*
X84056336Y-69253441D01*
X84186913Y-69307527D01*
X84325532Y-69335100D01*
X84436301Y-69335100D01*
X84436300Y-75050847D01*
X83540473Y-75946674D01*
X83405464Y-75890752D01*
X83169918Y-75843899D01*
X82929756Y-75843899D01*
X82694210Y-75890752D01*
X82472329Y-75982658D01*
X82272642Y-76116085D01*
X82102823Y-76285904D01*
X81969396Y-76485591D01*
X81877490Y-76707472D01*
X81830637Y-76943018D01*
X81830637Y-77183180D01*
X81877490Y-77418726D01*
X81969396Y-77640607D01*
X82102823Y-77840294D01*
X82272642Y-78010113D01*
X82472329Y-78143540D01*
X82694210Y-78235446D01*
X82929756Y-78282299D01*
X83169918Y-78282299D01*
X83405464Y-78235446D01*
X83627345Y-78143540D01*
X83827032Y-78010113D01*
X83920241Y-77916904D01*
X84825834Y-77916904D01*
X84922082Y-78090217D01*
X85135294Y-78200754D01*
X85365973Y-78267571D01*
X85605255Y-78288101D01*
X85843945Y-78261555D01*
X86072870Y-78188953D01*
X86257592Y-78090217D01*
X86353840Y-77916904D01*
X85589837Y-77152902D01*
X84825834Y-77916904D01*
X83920241Y-77916904D01*
X83996851Y-77840294D01*
X84130278Y-77640607D01*
X84222184Y-77418726D01*
X84269037Y-77183180D01*
X84269037Y-77078517D01*
X84364835Y-77078517D01*
X84391381Y-77317207D01*
X84463983Y-77546132D01*
X84562719Y-77730854D01*
X84736032Y-77827102D01*
X85500034Y-77063099D01*
X85679640Y-77063099D01*
X86443642Y-77827102D01*
X86616955Y-77730854D01*
X86727492Y-77517642D01*
X86794309Y-77286963D01*
X86814839Y-77047681D01*
X86788293Y-76808991D01*
X86715691Y-76580066D01*
X86616955Y-76395344D01*
X86443642Y-76299096D01*
X85679640Y-77063099D01*
X85500034Y-77063099D01*
X84736032Y-76299096D01*
X84562719Y-76395344D01*
X84452182Y-76608556D01*
X84385365Y-76839235D01*
X84364835Y-77078517D01*
X84269037Y-77078517D01*
X84269037Y-76943018D01*
X84222184Y-76707472D01*
X84166262Y-76572463D01*
X84529431Y-76209294D01*
X84825834Y-76209294D01*
X85589837Y-76973296D01*
X86353840Y-76209294D01*
X86257592Y-76035981D01*
X86044380Y-75925444D01*
X85813701Y-75858627D01*
X85574419Y-75838097D01*
X85335729Y-75864643D01*
X85106804Y-75937245D01*
X84922082Y-76035981D01*
X84825834Y-76209294D01*
X84529431Y-76209294D01*
X85176321Y-75562404D01*
X85193209Y-75548545D01*
X85248505Y-75481165D01*
X85289595Y-75404293D01*
X85314897Y-75320881D01*
X85321300Y-75255873D01*
X85321300Y-75255871D01*
X85323441Y-75234137D01*
X85321300Y-75212403D01*
X85321300Y-73826089D01*
X86171391Y-74676180D01*
X86167900Y-74693732D01*
X86167900Y-74835068D01*
X86195473Y-74973687D01*
X86249559Y-75104264D01*
X86328081Y-75221780D01*
X86428020Y-75321719D01*
X86545536Y-75400241D01*
X86676113Y-75454327D01*
X86814732Y-75481900D01*
X86956068Y-75481900D01*
X87094687Y-75454327D01*
X87225264Y-75400241D01*
X87342780Y-75321719D01*
X87357300Y-75307199D01*
X87357301Y-82740336D01*
X87355159Y-82762081D01*
X87363704Y-82848826D01*
X87389005Y-82932237D01*
X87430095Y-83009110D01*
X87450731Y-83034255D01*
X87485392Y-83076490D01*
X87502276Y-83090346D01*
X87625600Y-83213670D01*
X87606646Y-83209900D01*
X87281428Y-83209900D01*
X86962458Y-83273347D01*
X86661995Y-83397803D01*
X86391586Y-83578485D01*
X86161622Y-83808449D01*
X85980940Y-84078858D01*
X85856484Y-84379321D01*
X85793037Y-84698291D01*
X85793037Y-85023509D01*
X85856484Y-85342479D01*
X85980940Y-85642942D01*
X86161622Y-85913351D01*
X86391586Y-86143315D01*
X86661995Y-86323997D01*
X86962458Y-86448453D01*
X87281428Y-86511900D01*
X87606646Y-86511900D01*
X87925616Y-86448453D01*
X88226079Y-86323997D01*
X88271700Y-86293514D01*
X88271701Y-101869625D01*
X88236218Y-101840506D01*
X88159346Y-101799416D01*
X88075934Y-101774114D01*
X87989189Y-101765569D01*
X87902444Y-101774114D01*
X87819033Y-101799416D01*
X87742160Y-101840506D01*
X87691665Y-101881946D01*
X84987676Y-104585935D01*
X84970792Y-104599791D01*
X84956936Y-104616675D01*
X84956935Y-104616676D01*
X84915495Y-104667171D01*
X84874405Y-104744044D01*
X84849104Y-104827455D01*
X84840559Y-104914200D01*
X84842701Y-104935945D01*
X84842700Y-113486645D01*
X84812642Y-113506729D01*
X84642823Y-113676548D01*
X84509396Y-113876235D01*
X84417490Y-114098116D01*
X84370637Y-114333662D01*
X84370637Y-114573824D01*
X84417490Y-114809370D01*
X84509396Y-115031251D01*
X84642823Y-115230938D01*
X84812642Y-115400757D01*
X85012329Y-115534184D01*
X85234210Y-115626090D01*
X85469756Y-115672943D01*
X85709918Y-115672943D01*
X85945464Y-115626090D01*
X86167345Y-115534184D01*
X86367032Y-115400757D01*
X86536851Y-115230938D01*
X86603300Y-115131490D01*
X86603301Y-119219138D01*
X86588420Y-119229081D01*
X86488481Y-119329020D01*
X86409959Y-119446536D01*
X86355873Y-119577113D01*
X86328300Y-119715732D01*
X86328300Y-119857068D01*
X86355873Y-119995687D01*
X86409959Y-120126264D01*
X86488481Y-120243780D01*
X86588420Y-120343719D01*
X86705936Y-120422241D01*
X86836513Y-120476327D01*
X86975132Y-120503900D01*
X87027348Y-120503900D01*
X83988345Y-123542903D01*
X83948828Y-123503386D01*
X84128642Y-123399507D01*
X84245512Y-123175491D01*
X84316433Y-122932978D01*
X84338679Y-122681290D01*
X84311396Y-122430097D01*
X84235632Y-122189054D01*
X84128642Y-121988893D01*
X83948826Y-121885013D01*
X83139640Y-122694200D01*
X83153782Y-122708342D01*
X83063979Y-122798145D01*
X83049837Y-122784003D01*
X82240650Y-123593189D01*
X82344530Y-123773005D01*
X82568546Y-123889875D01*
X82608591Y-123901586D01*
X82442251Y-123970486D01*
X82232164Y-124110862D01*
X82053499Y-124289527D01*
X81913123Y-124499614D01*
X81816431Y-124733050D01*
X81767137Y-124980865D01*
X78623700Y-124980865D01*
X78623700Y-122707110D01*
X81760995Y-122707110D01*
X81788278Y-122958303D01*
X81864042Y-123199346D01*
X81971032Y-123399507D01*
X82150848Y-123503387D01*
X82960034Y-122694200D01*
X82150848Y-121885013D01*
X81971032Y-121988893D01*
X81854162Y-122212909D01*
X81783241Y-122455422D01*
X81760995Y-122707110D01*
X78623700Y-122707110D01*
X78623700Y-121795211D01*
X82240650Y-121795211D01*
X83049837Y-122604397D01*
X83859024Y-121795211D01*
X83755144Y-121615395D01*
X83531128Y-121498525D01*
X83288615Y-121427604D01*
X83036927Y-121405358D01*
X82785734Y-121432641D01*
X82544691Y-121508405D01*
X82344530Y-121615395D01*
X82240650Y-121795211D01*
X78623700Y-121795211D01*
X78623700Y-116309500D01*
X79800918Y-117486718D01*
X79814779Y-117503608D01*
X79882159Y-117558904D01*
X79959031Y-117599994D01*
X80042443Y-117625296D01*
X80107451Y-117631699D01*
X80107453Y-117631699D01*
X80129187Y-117633840D01*
X80150921Y-117631699D01*
X80705865Y-117631699D01*
X80727599Y-117633840D01*
X80749333Y-117631699D01*
X80749336Y-117631699D01*
X80814344Y-117625296D01*
X80897756Y-117599994D01*
X80974628Y-117558904D01*
X81042008Y-117503608D01*
X81055869Y-117486718D01*
X81369578Y-117173009D01*
X81387130Y-117176500D01*
X81528466Y-117176500D01*
X81667085Y-117148927D01*
X81740299Y-117118601D01*
X81740300Y-118588017D01*
X81731668Y-118586300D01*
X81590332Y-118586300D01*
X81451713Y-118613873D01*
X81321136Y-118667959D01*
X81203620Y-118746481D01*
X81103681Y-118846420D01*
X81025159Y-118963936D01*
X80971073Y-119094513D01*
X80943500Y-119233132D01*
X80943500Y-119374468D01*
X80971073Y-119513087D01*
X81025159Y-119643664D01*
X81103681Y-119761180D01*
X81203620Y-119861119D01*
X81321136Y-119939641D01*
X81451713Y-119993727D01*
X81590332Y-120021300D01*
X81731668Y-120021300D01*
X81870287Y-119993727D01*
X82000864Y-119939641D01*
X82118380Y-119861119D01*
X82218319Y-119761180D01*
X82296841Y-119643664D01*
X82350927Y-119513087D01*
X82378500Y-119374468D01*
X82378500Y-119233132D01*
X82375009Y-119215580D01*
X82480318Y-119110271D01*
X82497208Y-119096410D01*
X82552504Y-119029030D01*
X82593594Y-118952158D01*
X82618896Y-118868746D01*
X82625299Y-118803738D01*
X82625299Y-118803736D01*
X82627440Y-118782002D01*
X82625299Y-118760268D01*
X82625299Y-116148442D01*
X82627440Y-116126705D01*
X82618896Y-116039960D01*
X82593594Y-115956548D01*
X82552504Y-115879676D01*
X82511064Y-115829180D01*
X82497208Y-115812296D01*
X82480325Y-115798441D01*
X81989432Y-115307548D01*
X82285834Y-115307548D01*
X82382082Y-115480861D01*
X82595294Y-115591398D01*
X82825973Y-115658215D01*
X83065255Y-115678745D01*
X83303945Y-115652199D01*
X83532870Y-115579597D01*
X83717592Y-115480861D01*
X83813840Y-115307548D01*
X83049837Y-114543546D01*
X82285834Y-115307548D01*
X81989432Y-115307548D01*
X81626262Y-114944378D01*
X81682184Y-114809370D01*
X81729037Y-114573824D01*
X81729037Y-114469161D01*
X81824835Y-114469161D01*
X81851381Y-114707851D01*
X81923983Y-114936776D01*
X82022719Y-115121498D01*
X82196032Y-115217746D01*
X82960034Y-114453743D01*
X83139640Y-114453743D01*
X83903642Y-115217746D01*
X84076955Y-115121498D01*
X84187492Y-114908286D01*
X84254309Y-114677607D01*
X84274839Y-114438325D01*
X84248293Y-114199635D01*
X84175691Y-113970710D01*
X84076955Y-113785988D01*
X83903642Y-113689740D01*
X83139640Y-114453743D01*
X82960034Y-114453743D01*
X82196032Y-113689740D01*
X82022719Y-113785988D01*
X81912182Y-113999200D01*
X81845365Y-114229879D01*
X81824835Y-114469161D01*
X81729037Y-114469161D01*
X81729037Y-114333662D01*
X81682184Y-114098116D01*
X81590278Y-113876235D01*
X81456851Y-113676548D01*
X81380241Y-113599938D01*
X82285834Y-113599938D01*
X83049837Y-114363940D01*
X83813840Y-113599938D01*
X83717592Y-113426625D01*
X83504380Y-113316088D01*
X83273701Y-113249271D01*
X83034419Y-113228741D01*
X82795729Y-113255287D01*
X82566804Y-113327889D01*
X82382082Y-113426625D01*
X82285834Y-113599938D01*
X81380241Y-113599938D01*
X81287032Y-113506729D01*
X81087345Y-113373302D01*
X80865464Y-113281396D01*
X80629918Y-113234543D01*
X80389756Y-113234543D01*
X80154210Y-113281396D01*
X79932329Y-113373302D01*
X79732642Y-113506729D01*
X79562823Y-113676548D01*
X79523722Y-113735067D01*
X79523722Y-110928451D01*
X81243901Y-109208273D01*
X81243901Y-110696855D01*
X81241759Y-110718600D01*
X81250304Y-110805345D01*
X81275605Y-110888756D01*
X81316695Y-110965629D01*
X81353557Y-111010546D01*
X81349900Y-111028932D01*
X81349900Y-111170268D01*
X81377473Y-111308887D01*
X81431559Y-111439464D01*
X81510081Y-111556980D01*
X81610020Y-111656919D01*
X81727536Y-111735441D01*
X81858113Y-111789527D01*
X81996732Y-111817100D01*
X82138068Y-111817100D01*
X82276687Y-111789527D01*
X82407264Y-111735441D01*
X82524780Y-111656919D01*
X82624719Y-111556980D01*
X82703241Y-111439464D01*
X82757327Y-111308887D01*
X82784900Y-111170268D01*
X82784900Y-111028932D01*
X82757327Y-110890313D01*
X82703241Y-110759736D01*
X82624719Y-110642220D01*
X82524780Y-110542281D01*
X82407264Y-110463759D01*
X82276687Y-110409673D01*
X82138068Y-110382100D01*
X82128900Y-110382100D01*
X82128900Y-105581311D01*
X82131041Y-105559577D01*
X82125109Y-105499354D01*
X82122497Y-105472833D01*
X82097195Y-105389421D01*
X82056105Y-105312549D01*
X82000809Y-105245169D01*
X81983921Y-105231310D01*
X79639700Y-102887089D01*
X79639700Y-92725372D01*
X79732642Y-92818314D01*
X79932329Y-92951741D01*
X80154210Y-93043647D01*
X80389756Y-93090500D01*
X80629918Y-93090500D01*
X80865464Y-93043647D01*
X81087345Y-92951741D01*
X81287032Y-92818314D01*
X81456851Y-92648495D01*
X81590278Y-92448808D01*
X81682184Y-92226927D01*
X81729037Y-91991381D01*
X81729037Y-91751219D01*
X81830637Y-91751219D01*
X81830637Y-91991381D01*
X81877490Y-92226927D01*
X81969396Y-92448808D01*
X82102823Y-92648495D01*
X82272642Y-92818314D01*
X82472329Y-92951741D01*
X82694210Y-93043647D01*
X82929756Y-93090500D01*
X83169918Y-93090500D01*
X83405464Y-93043647D01*
X83627345Y-92951741D01*
X83827032Y-92818314D01*
X83920241Y-92725105D01*
X84825834Y-92725105D01*
X84922082Y-92898418D01*
X85135294Y-93008955D01*
X85365973Y-93075772D01*
X85605255Y-93096302D01*
X85843945Y-93069756D01*
X86072870Y-92997154D01*
X86257592Y-92898418D01*
X86353840Y-92725105D01*
X85589837Y-91961103D01*
X84825834Y-92725105D01*
X83920241Y-92725105D01*
X83996851Y-92648495D01*
X84130278Y-92448808D01*
X84222184Y-92226927D01*
X84269037Y-91991381D01*
X84269037Y-91886718D01*
X84364835Y-91886718D01*
X84391381Y-92125408D01*
X84463983Y-92354333D01*
X84562719Y-92539055D01*
X84736032Y-92635303D01*
X85500034Y-91871300D01*
X85679640Y-91871300D01*
X86443642Y-92635303D01*
X86616955Y-92539055D01*
X86727492Y-92325843D01*
X86794309Y-92095164D01*
X86814839Y-91855882D01*
X86788293Y-91617192D01*
X86715691Y-91388267D01*
X86616955Y-91203545D01*
X86443642Y-91107297D01*
X85679640Y-91871300D01*
X85500034Y-91871300D01*
X84736032Y-91107297D01*
X84562719Y-91203545D01*
X84452182Y-91416757D01*
X84385365Y-91647436D01*
X84364835Y-91886718D01*
X84269037Y-91886718D01*
X84269037Y-91751219D01*
X84222184Y-91515673D01*
X84130278Y-91293792D01*
X83996851Y-91094105D01*
X83920241Y-91017495D01*
X84825834Y-91017495D01*
X85589837Y-91781497D01*
X86353840Y-91017495D01*
X86257592Y-90844182D01*
X86044380Y-90733645D01*
X85813701Y-90666828D01*
X85574419Y-90646298D01*
X85335729Y-90672844D01*
X85106804Y-90745446D01*
X84922082Y-90844182D01*
X84825834Y-91017495D01*
X83920241Y-91017495D01*
X83827032Y-90924286D01*
X83627345Y-90790859D01*
X83405464Y-90698953D01*
X83169918Y-90652100D01*
X82929756Y-90652100D01*
X82694210Y-90698953D01*
X82472329Y-90790859D01*
X82272642Y-90924286D01*
X82102823Y-91094105D01*
X81969396Y-91293792D01*
X81877490Y-91515673D01*
X81830637Y-91751219D01*
X81729037Y-91751219D01*
X81682184Y-91515673D01*
X81590278Y-91293792D01*
X81456851Y-91094105D01*
X81287032Y-90924286D01*
X81087345Y-90790859D01*
X80865464Y-90698953D01*
X80629918Y-90652100D01*
X80389756Y-90652100D01*
X80154210Y-90698953D01*
X79932329Y-90790859D01*
X79732642Y-90924286D01*
X79639700Y-91017228D01*
X79639700Y-89189089D01*
X81704520Y-87124269D01*
X81721404Y-87110413D01*
X81743172Y-87083888D01*
X81776700Y-87043034D01*
X81817790Y-86966162D01*
X81843092Y-86882750D01*
X81851637Y-86796005D01*
X81849495Y-86774261D01*
X81849498Y-82831800D01*
X81852368Y-82831517D01*
X81935779Y-82806215D01*
X82012652Y-82765125D01*
X82080031Y-82709828D01*
X82135327Y-82642449D01*
X82176417Y-82565576D01*
X82201719Y-82482164D01*
X82210263Y-82395419D01*
X82201718Y-82308674D01*
X82176416Y-82225263D01*
X82135326Y-82148391D01*
X82093886Y-82097896D01*
X81905073Y-81909085D01*
X81905065Y-81909075D01*
X81905062Y-81909072D01*
X81891209Y-81892192D01*
X81874329Y-81878339D01*
X79464922Y-79468933D01*
X79464922Y-77693775D01*
X79562823Y-77840294D01*
X79732642Y-78010113D01*
X79932329Y-78143540D01*
X80154210Y-78235446D01*
X80389756Y-78282299D01*
X80629918Y-78282299D01*
X80865464Y-78235446D01*
X81087345Y-78143540D01*
X81287032Y-78010113D01*
X81456851Y-77840294D01*
X81590278Y-77640607D01*
X81682184Y-77418726D01*
X81729037Y-77183180D01*
X81729037Y-76943018D01*
X81682184Y-76707472D01*
X81590278Y-76485591D01*
X81456851Y-76285904D01*
X81287032Y-76116085D01*
X81087345Y-75982658D01*
X80865464Y-75890752D01*
X80629918Y-75843899D01*
X80389756Y-75843899D01*
X80154210Y-75890752D01*
X79932329Y-75982658D01*
X79732642Y-76116085D01*
X79562823Y-76285904D01*
X79464922Y-76432423D01*
X79464922Y-74149267D01*
X81112319Y-72501870D01*
X81129207Y-72488011D01*
X81184503Y-72420631D01*
X81225593Y-72343759D01*
X81250895Y-72260347D01*
X81257298Y-72195339D01*
X81257298Y-72195337D01*
X81259439Y-72173603D01*
X81257298Y-72151869D01*
X81257298Y-68694923D01*
X81259439Y-68673189D01*
X81254574Y-68623798D01*
X81250895Y-68586445D01*
X81225593Y-68503033D01*
X81195879Y-68447444D01*
X81184503Y-68426160D01*
X81143063Y-68375665D01*
X81129207Y-68358781D01*
X81112323Y-68344925D01*
X79199900Y-66432503D01*
X79199900Y-63289089D01*
X80236089Y-62252900D01*
X80591548Y-62252900D01*
X80601491Y-62267780D01*
X80701430Y-62367719D01*
X80818946Y-62446241D01*
X80949523Y-62500327D01*
X81088142Y-62527900D01*
X81229478Y-62527900D01*
X81368097Y-62500327D01*
X81498674Y-62446241D01*
X81616190Y-62367719D01*
X81716129Y-62267780D01*
X81794651Y-62150264D01*
X81848737Y-62019687D01*
X81876310Y-61881068D01*
X81876310Y-61739732D01*
X81848737Y-61601113D01*
X81794651Y-61470536D01*
X81716129Y-61353020D01*
X81616190Y-61253081D01*
X81498674Y-61174559D01*
X81368097Y-61120473D01*
X81229478Y-61092900D01*
X81088142Y-61092900D01*
X80961800Y-61118031D01*
X81018841Y-61032664D01*
X81072927Y-60902087D01*
X81100500Y-60763468D01*
X81100500Y-60622132D01*
X81072927Y-60483513D01*
X81018841Y-60352936D01*
X80940319Y-60235420D01*
X80840380Y-60135481D01*
X80722864Y-60056959D01*
X80714795Y-60053617D01*
X80865464Y-60023647D01*
X81087345Y-59931741D01*
X81287032Y-59798314D01*
X81456851Y-59628495D01*
X81590278Y-59428808D01*
X81682184Y-59206927D01*
X81729037Y-58971381D01*
X81729037Y-58731219D01*
X81830637Y-58731219D01*
X81830637Y-58971381D01*
X81877490Y-59206927D01*
X81969396Y-59428808D01*
X82102823Y-59628495D01*
X82272642Y-59798314D01*
X82472329Y-59931741D01*
X82694210Y-60023647D01*
X82929756Y-60070500D01*
X83169918Y-60070500D01*
X83405464Y-60023647D01*
X83627345Y-59931741D01*
X83827032Y-59798314D01*
X83920241Y-59705105D01*
X84825834Y-59705105D01*
X84922082Y-59878418D01*
X85135294Y-59988955D01*
X85365973Y-60055772D01*
X85605255Y-60076302D01*
X85843945Y-60049756D01*
X86072870Y-59977154D01*
X86257592Y-59878418D01*
X86353840Y-59705105D01*
X85589837Y-58941103D01*
X84825834Y-59705105D01*
X83920241Y-59705105D01*
X83996851Y-59628495D01*
X84130278Y-59428808D01*
X84222184Y-59206927D01*
X84269037Y-58971381D01*
X84269037Y-58866718D01*
X84364835Y-58866718D01*
X84391381Y-59105408D01*
X84463983Y-59334333D01*
X84562719Y-59519055D01*
X84736032Y-59615303D01*
X85500034Y-58851300D01*
X84736032Y-58087297D01*
X84562719Y-58183545D01*
X84452182Y-58396757D01*
X84385365Y-58627436D01*
X84364835Y-58866718D01*
X84269037Y-58866718D01*
X84269037Y-58731219D01*
X84222184Y-58495673D01*
X84130278Y-58273792D01*
X83996851Y-58074105D01*
X83920241Y-57997495D01*
X84825834Y-57997495D01*
X85589837Y-58761497D01*
X86353840Y-57997495D01*
X86257592Y-57824182D01*
X86044380Y-57713645D01*
X85813701Y-57646828D01*
X85574419Y-57626298D01*
X85335729Y-57652844D01*
X85106804Y-57725446D01*
X84922082Y-57824182D01*
X84825834Y-57997495D01*
X83920241Y-57997495D01*
X83827032Y-57904286D01*
X83627345Y-57770859D01*
X83492337Y-57714937D01*
X83492337Y-52570452D01*
X84384498Y-51678291D01*
X85793037Y-51678291D01*
X85793037Y-52003509D01*
X85856484Y-52322479D01*
X85980940Y-52622942D01*
X86161622Y-52893351D01*
X86391586Y-53123315D01*
X86661995Y-53303997D01*
X86962458Y-53428453D01*
X87281428Y-53491900D01*
X87606646Y-53491900D01*
X87925616Y-53428453D01*
X88226079Y-53303997D01*
X88496488Y-53123315D01*
X88726452Y-52893351D01*
X88907134Y-52622942D01*
X89031590Y-52322479D01*
X89095037Y-52003509D01*
X89095037Y-51678291D01*
X89031590Y-51359321D01*
X88907134Y-51058858D01*
X88726452Y-50788449D01*
X88496488Y-50558485D01*
X88226079Y-50377803D01*
X87925616Y-50253347D01*
X87606646Y-50189900D01*
X87281428Y-50189900D01*
X86962458Y-50253347D01*
X86661995Y-50377803D01*
X86391586Y-50558485D01*
X86161622Y-50788449D01*
X85980940Y-51058858D01*
X85856484Y-51359321D01*
X85793037Y-51678291D01*
X84384498Y-51678291D01*
X88046526Y-48016264D01*
X88063409Y-48002409D01*
X88077551Y-47985177D01*
X88118705Y-47935030D01*
X88159795Y-47858157D01*
X88175916Y-47805011D01*
X88185097Y-47774745D01*
X88191500Y-47709737D01*
X88191500Y-47709735D01*
X88193641Y-47688001D01*
X88191500Y-47666267D01*
X88191500Y-40432062D01*
X88206380Y-40422119D01*
X88306319Y-40322180D01*
X88384841Y-40204664D01*
X88438927Y-40074087D01*
X88466500Y-39935468D01*
X88466500Y-39794132D01*
X88438927Y-39655513D01*
X88384841Y-39524936D01*
X88306319Y-39407420D01*
X88206380Y-39307481D01*
X88088864Y-39228959D01*
X87958287Y-39174873D01*
X87819668Y-39147300D01*
X87678332Y-39147300D01*
X87539713Y-39174873D01*
X87409136Y-39228959D01*
X87291620Y-39307481D01*
X87191681Y-39407420D01*
X87113159Y-39524936D01*
X87059073Y-39655513D01*
X87031500Y-39794132D01*
X87031500Y-39935468D01*
X87059073Y-40074087D01*
X87113159Y-40204664D01*
X87191681Y-40322180D01*
X87291620Y-40422119D01*
X87306501Y-40432062D01*
X87306500Y-47504710D01*
X82752313Y-52058898D01*
X82735429Y-52072754D01*
X82721573Y-52089638D01*
X82721572Y-52089639D01*
X82680132Y-52140134D01*
X82639042Y-52217007D01*
X82613741Y-52300418D01*
X82605196Y-52387163D01*
X82607338Y-52408908D01*
X82607337Y-57714937D01*
X82472329Y-57770859D01*
X82272642Y-57904286D01*
X82102823Y-58074105D01*
X81969396Y-58273792D01*
X81877490Y-58495673D01*
X81830637Y-58731219D01*
X81729037Y-58731219D01*
X81682184Y-58495673D01*
X81590278Y-58273792D01*
X81456851Y-58074105D01*
X81287032Y-57904286D01*
X81087345Y-57770859D01*
X80865464Y-57678953D01*
X80629918Y-57632100D01*
X80389756Y-57632100D01*
X80154210Y-57678953D01*
X79932329Y-57770859D01*
X79732642Y-57904286D01*
X79562823Y-58074105D01*
X79429396Y-58273792D01*
X79352298Y-58459923D01*
X79352298Y-55923091D01*
X80883719Y-54391670D01*
X80900609Y-54377809D01*
X80955905Y-54310429D01*
X80996995Y-54233557D01*
X81022297Y-54150145D01*
X81028700Y-54085137D01*
X81028700Y-54085135D01*
X81030841Y-54063401D01*
X81028700Y-54041667D01*
X81028700Y-49284534D01*
X81030841Y-49262799D01*
X81025556Y-49209146D01*
X81022297Y-49176055D01*
X80996995Y-49092643D01*
X80955906Y-49015772D01*
X80955905Y-49015770D01*
X80914465Y-48965275D01*
X80900609Y-48948391D01*
X80883726Y-48934536D01*
X78945900Y-46996711D01*
X78945900Y-43104951D01*
X79393412Y-43552464D01*
X79337490Y-43687472D01*
X79290637Y-43923018D01*
X79290637Y-44163180D01*
X79337490Y-44398726D01*
X79429396Y-44620607D01*
X79562823Y-44820294D01*
X79732642Y-44990113D01*
X79932329Y-45123540D01*
X80154210Y-45215446D01*
X80389756Y-45262299D01*
X80629918Y-45262299D01*
X80865464Y-45215446D01*
X81087345Y-45123540D01*
X81287032Y-44990113D01*
X81456851Y-44820294D01*
X81590278Y-44620607D01*
X81682184Y-44398726D01*
X81729037Y-44163180D01*
X81729037Y-43923018D01*
X81830637Y-43923018D01*
X81830637Y-44163180D01*
X81877490Y-44398726D01*
X81969396Y-44620607D01*
X82102823Y-44820294D01*
X82272642Y-44990113D01*
X82472329Y-45123540D01*
X82694210Y-45215446D01*
X82929756Y-45262299D01*
X83169918Y-45262299D01*
X83405464Y-45215446D01*
X83627345Y-45123540D01*
X83827032Y-44990113D01*
X83920241Y-44896904D01*
X84825834Y-44896904D01*
X84922082Y-45070217D01*
X85135294Y-45180754D01*
X85365973Y-45247571D01*
X85605255Y-45268101D01*
X85843945Y-45241555D01*
X86072870Y-45168953D01*
X86257592Y-45070217D01*
X86353840Y-44896904D01*
X85589837Y-44132902D01*
X84825834Y-44896904D01*
X83920241Y-44896904D01*
X83996851Y-44820294D01*
X84130278Y-44620607D01*
X84222184Y-44398726D01*
X84269037Y-44163180D01*
X84269037Y-43923018D01*
X84255853Y-43856736D01*
X84422884Y-43689705D01*
X84385365Y-43819235D01*
X84364835Y-44058517D01*
X84391381Y-44297207D01*
X84463983Y-44526132D01*
X84562719Y-44710854D01*
X84736032Y-44807102D01*
X85500034Y-44043099D01*
X85679640Y-44043099D01*
X86443642Y-44807102D01*
X86616955Y-44710854D01*
X86727492Y-44497642D01*
X86794309Y-44266963D01*
X86814839Y-44027681D01*
X86788293Y-43788991D01*
X86715691Y-43560066D01*
X86616955Y-43375344D01*
X86443642Y-43279096D01*
X85679640Y-44043099D01*
X85500034Y-44043099D01*
X85485892Y-44028957D01*
X85575695Y-43939154D01*
X85589837Y-43953296D01*
X86353840Y-43189294D01*
X86257592Y-43015981D01*
X86044380Y-42905444D01*
X85813701Y-42838627D01*
X85574419Y-42818097D01*
X85335729Y-42844643D01*
X85236465Y-42876124D01*
X86039919Y-42072670D01*
X86056809Y-42058809D01*
X86112105Y-41991429D01*
X86153195Y-41914557D01*
X86178497Y-41831145D01*
X86184900Y-41766137D01*
X86184900Y-41766135D01*
X86187041Y-41744401D01*
X86184900Y-41722667D01*
X86184900Y-38108428D01*
X86391586Y-38315114D01*
X86661995Y-38495796D01*
X86962458Y-38620252D01*
X87281428Y-38683699D01*
X87606646Y-38683699D01*
X87925616Y-38620252D01*
X88226079Y-38495796D01*
X88496488Y-38315114D01*
X88726452Y-38085150D01*
X88907134Y-37814741D01*
X89031590Y-37514278D01*
X89037864Y-37482732D01*
X96378700Y-37482732D01*
X96378700Y-37624068D01*
X96406273Y-37762687D01*
X96460359Y-37893264D01*
X96538881Y-38010780D01*
X96638820Y-38110719D01*
X96756336Y-38189241D01*
X96886913Y-38243327D01*
X97025532Y-38270900D01*
X97166868Y-38270900D01*
X97305487Y-38243327D01*
X97436064Y-38189241D01*
X97553580Y-38110719D01*
X97653519Y-38010780D01*
X97732041Y-37893264D01*
X97786127Y-37762687D01*
X97813700Y-37624068D01*
X97813700Y-37482732D01*
X97786127Y-37344113D01*
X97741900Y-37237338D01*
X97741900Y-36710479D01*
X98480337Y-36710479D01*
X98480337Y-36923121D01*
X98521822Y-37131678D01*
X98603197Y-37328135D01*
X98721335Y-37504941D01*
X98871696Y-37655302D01*
X99048502Y-37773440D01*
X99244959Y-37854815D01*
X99453516Y-37896300D01*
X99666158Y-37896300D01*
X99874715Y-37854815D01*
X100071172Y-37773440D01*
X100247978Y-37655302D01*
X100398339Y-37504941D01*
X100516477Y-37328135D01*
X100597852Y-37131678D01*
X100639337Y-36923121D01*
X100639337Y-36710479D01*
X100597852Y-36501922D01*
X100516477Y-36305465D01*
X100398339Y-36128659D01*
X100247978Y-35978298D01*
X100071172Y-35860160D01*
X99874715Y-35778785D01*
X99666158Y-35737300D01*
X99453516Y-35737300D01*
X99244959Y-35778785D01*
X99048502Y-35860160D01*
X98871696Y-35978298D01*
X98721335Y-36128659D01*
X98603197Y-36305465D01*
X98521822Y-36501922D01*
X98480337Y-36710479D01*
X97741900Y-36710479D01*
X97741900Y-34158262D01*
X97756780Y-34148319D01*
X97856719Y-34048380D01*
X97935241Y-33930864D01*
X97989327Y-33800287D01*
X98016900Y-33661668D01*
X98016900Y-33520332D01*
X97989327Y-33381713D01*
X97935241Y-33251136D01*
X97856719Y-33133620D01*
X97756780Y-33033681D01*
X97639264Y-32955159D01*
X97508687Y-32901073D01*
X97370068Y-32873500D01*
X97228732Y-32873500D01*
X97090113Y-32901073D01*
X96959536Y-32955159D01*
X96842020Y-33033681D01*
X96742081Y-33133620D01*
X96663559Y-33251136D01*
X96609473Y-33381713D01*
X96581900Y-33520332D01*
X96581900Y-33661668D01*
X96609473Y-33800287D01*
X96663559Y-33930864D01*
X96742081Y-34048380D01*
X96842020Y-34148319D01*
X96856900Y-34158262D01*
X96856901Y-36875904D01*
X96756336Y-36917559D01*
X96638820Y-36996081D01*
X96538881Y-37096020D01*
X96460359Y-37213536D01*
X96406273Y-37344113D01*
X96378700Y-37482732D01*
X89037864Y-37482732D01*
X89095037Y-37195308D01*
X89095037Y-36870090D01*
X89031590Y-36551120D01*
X88907134Y-36250657D01*
X88726452Y-35980248D01*
X88496488Y-35750284D01*
X88226079Y-35569602D01*
X87925616Y-35445146D01*
X87606646Y-35381699D01*
X87281428Y-35381699D01*
X86962458Y-35445146D01*
X86661995Y-35569602D01*
X86391586Y-35750284D01*
X86184900Y-35956970D01*
X86184900Y-34821462D01*
X86229127Y-34714687D01*
X86256700Y-34576068D01*
X86256700Y-34434732D01*
X86229127Y-34296113D01*
X86175041Y-34165536D01*
X86096519Y-34048020D01*
X85996580Y-33948081D01*
X85879064Y-33869559D01*
X85748487Y-33815473D01*
X85609868Y-33787900D01*
X85468532Y-33787900D01*
X85329913Y-33815473D01*
X85199336Y-33869559D01*
X85081820Y-33948081D01*
X84981881Y-34048020D01*
X84903359Y-34165536D01*
X84849273Y-34296113D01*
X84821700Y-34434732D01*
X84821700Y-34576068D01*
X84849273Y-34714687D01*
X84903359Y-34845264D01*
X84981881Y-34962780D01*
X85081820Y-35062719D01*
X85199336Y-35141241D01*
X85299900Y-35182895D01*
X85299901Y-41561110D01*
X83789802Y-43071209D01*
X83627345Y-42962658D01*
X83405464Y-42870752D01*
X83169918Y-42823899D01*
X82929756Y-42823899D01*
X82694210Y-42870752D01*
X82472329Y-42962658D01*
X82272642Y-43096085D01*
X82102823Y-43265904D01*
X81969396Y-43465591D01*
X81877490Y-43687472D01*
X81830637Y-43923018D01*
X81729037Y-43923018D01*
X81682184Y-43687472D01*
X81590278Y-43465591D01*
X81456851Y-43265904D01*
X81287032Y-43096085D01*
X81087345Y-42962658D01*
X80865464Y-42870752D01*
X80629918Y-42823899D01*
X80389756Y-42823899D01*
X80154210Y-42870752D01*
X80019202Y-42926674D01*
X79682500Y-42589973D01*
X79682500Y-39794089D01*
X80611664Y-38864926D01*
X80628547Y-38851071D01*
X80683843Y-38783691D01*
X80724933Y-38706819D01*
X80750235Y-38623407D01*
X80756638Y-38558399D01*
X80756638Y-38558398D01*
X80758779Y-38536662D01*
X80756638Y-38514925D01*
X80756638Y-36343737D01*
X80768297Y-36305301D01*
X80774700Y-36240293D01*
X80774700Y-36240292D01*
X80776841Y-36218556D01*
X80774700Y-36196819D01*
X80774700Y-35517737D01*
X80776841Y-35496000D01*
X80768297Y-35409255D01*
X80742995Y-35325843D01*
X80701905Y-35248971D01*
X80660465Y-35198475D01*
X80646609Y-35181591D01*
X80629725Y-35167735D01*
X79395209Y-33933220D01*
X79398700Y-33915668D01*
X79398700Y-33774332D01*
X79371127Y-33635713D01*
X79317041Y-33505136D01*
X79238519Y-33387620D01*
X79138580Y-33287681D01*
X79021064Y-33209159D01*
X78890487Y-33155073D01*
X78751868Y-33127500D01*
X78610532Y-33127500D01*
X78471913Y-33155073D01*
X78341336Y-33209159D01*
X78223820Y-33287681D01*
X78123881Y-33387620D01*
X78045359Y-33505136D01*
X77991273Y-33635713D01*
X77963700Y-33774332D01*
X77963700Y-33915668D01*
X77991273Y-34054287D01*
X78045359Y-34184864D01*
X78123881Y-34302380D01*
X78223820Y-34402319D01*
X78341336Y-34480841D01*
X78471913Y-34534927D01*
X78610532Y-34562500D01*
X78751868Y-34562500D01*
X78769420Y-34559009D01*
X79889701Y-35679291D01*
X79889700Y-35931896D01*
X79708088Y-35750284D01*
X79437679Y-35569602D01*
X79137216Y-35445146D01*
X78818246Y-35381699D01*
X78493028Y-35381699D01*
X78174058Y-35445146D01*
X77873595Y-35569602D01*
X77603186Y-35750284D01*
X77373222Y-35980248D01*
X77192540Y-36250657D01*
X77068084Y-36551120D01*
X77042500Y-36679740D01*
X77042500Y-31483465D01*
X98277137Y-31483465D01*
X98277137Y-31736135D01*
X98326431Y-31983950D01*
X98423123Y-32217386D01*
X98563499Y-32427473D01*
X98742164Y-32606138D01*
X98952251Y-32746514D01*
X99185687Y-32843206D01*
X99433502Y-32892500D01*
X99686172Y-32892500D01*
X99933987Y-32843206D01*
X100167423Y-32746514D01*
X100377510Y-32606138D01*
X100556175Y-32427473D01*
X100696551Y-32217386D01*
X100793243Y-31983950D01*
X100842537Y-31736135D01*
X100842537Y-31483465D01*
X100793243Y-31235650D01*
X100696551Y-31002214D01*
X100556175Y-30792127D01*
X100377510Y-30613462D01*
X100167423Y-30473086D01*
X99933987Y-30376394D01*
X99686172Y-30327100D01*
X99433502Y-30327100D01*
X99185687Y-30376394D01*
X98952251Y-30473086D01*
X98742164Y-30613462D01*
X98563499Y-30792127D01*
X98423123Y-31002214D01*
X98326431Y-31235650D01*
X98277137Y-31483465D01*
X77042500Y-31483465D01*
X77042500Y-29742500D01*
X105567500Y-29742500D01*
X105567501Y-107092026D01*
G37*
%TD.AperFunction*%
%TD*%
M02*
