%TF.GenerationSoftware,KiCad,Pcbnew,(5.1.9)-1*%
%TF.CreationDate,2021-03-03T00:59:23+01:00*%
%TF.ProjectId,Hands of Svarog,48616e64-7320-46f6-9620-537661726f67,rev?*%
%TF.SameCoordinates,Original*%
%TF.FileFunction,Legend,Bot*%
%TF.FilePolarity,Positive*%
%FSLAX46Y46*%
G04 Gerber Fmt 4.6, Leading zero omitted, Abs format (unit mm)*
G04 Created by KiCad (PCBNEW (5.1.9)-1) date 2021-03-03 00:59:23*
%MOMM*%
%LPD*%
G01*
G04 APERTURE LIST*
%ADD10C,0.254000*%
%ADD11C,0.127000*%
%ADD12C,0.150000*%
%ADD13C,0.152400*%
G04 APERTURE END LIST*
D10*
%TO.C,J1*%
X95114837Y-41312600D02*
X95114837Y-30644600D01*
X95114837Y-30644600D02*
X104004837Y-30644600D01*
X104004837Y-30644600D02*
X104004837Y-41312600D01*
X104004837Y-41312600D02*
X95114837Y-41312600D01*
D11*
X101134637Y-36804100D02*
G75*
G03*
X101134637Y-36804100I-1574800J0D01*
G01*
X101845837Y-36804100D02*
G75*
G03*
X101845837Y-36804100I-2286000J0D01*
G01*
D10*
%TO.C,J2*%
X104004837Y-47561000D02*
X104004837Y-58229000D01*
X104004837Y-58229000D02*
X95114837Y-58229000D01*
X95114837Y-58229000D02*
X95114837Y-47561000D01*
X95114837Y-47561000D02*
X104004837Y-47561000D01*
D11*
X101134637Y-52069500D02*
G75*
G03*
X101134637Y-52069500I-1574800J0D01*
G01*
X101845837Y-52069500D02*
G75*
G03*
X101845837Y-52069500I-2286000J0D01*
G01*
D10*
%TO.C,J3*%
X95114837Y-74332600D02*
X95114837Y-63664600D01*
X95114837Y-63664600D02*
X104004837Y-63664600D01*
X104004837Y-63664600D02*
X104004837Y-74332600D01*
X104004837Y-74332600D02*
X95114837Y-74332600D01*
D11*
X101134637Y-69824100D02*
G75*
G03*
X101134637Y-69824100I-1574800J0D01*
G01*
X101845837Y-69824100D02*
G75*
G03*
X101845837Y-69824100I-2286000J0D01*
G01*
D10*
%TO.C,J4*%
X104004837Y-80581000D02*
X104004837Y-91249000D01*
X104004837Y-91249000D02*
X95114837Y-91249000D01*
X95114837Y-91249000D02*
X95114837Y-80581000D01*
X95114837Y-80581000D02*
X104004837Y-80581000D01*
D11*
X101134637Y-85089500D02*
G75*
G03*
X101134637Y-85089500I-1574800J0D01*
G01*
X101845837Y-85089500D02*
G75*
G03*
X101845837Y-85089500I-2286000J0D01*
G01*
%TO.C,J5*%
X85335837Y-128472700D02*
G75*
G03*
X85335837Y-128472700I-2286000J0D01*
G01*
X84624637Y-128472700D02*
G75*
G03*
X84624637Y-128472700I-1574800J0D01*
G01*
D10*
X78149837Y-123964200D02*
X87949837Y-123964200D01*
X78104837Y-134632200D02*
X78104837Y-123964200D01*
X87949837Y-134632200D02*
X78149837Y-134632200D01*
X87994837Y-123964200D02*
X87994837Y-134632200D01*
D12*
%TO.C,RV2*%
X84701000Y-53998057D02*
X81399000Y-53998057D01*
D11*
X78195837Y-56831000D02*
X78195837Y-46850800D01*
X78959737Y-46340900D02*
X87139937Y-46340900D01*
X87903837Y-46850800D02*
X87903837Y-56831000D01*
X87139937Y-57340900D02*
X78959737Y-57340900D01*
X86549837Y-51840900D02*
G75*
G03*
X86549837Y-51840900I-3500000J0D01*
G01*
D12*
X81399000Y-53998057D02*
G75*
G02*
X84701000Y-53998057I1651000J2159000D01*
G01*
D11*
X78959737Y-46340900D02*
G75*
G03*
X78195837Y-46850800I-127000J-636900D01*
G01*
X87903837Y-46850800D02*
G75*
G03*
X87139937Y-46340900I-636900J-127000D01*
G01*
X87139937Y-57340900D02*
G75*
G03*
X87903837Y-56831000I127000J636900D01*
G01*
X78195837Y-56831000D02*
G75*
G03*
X78959737Y-57340900I636900J127000D01*
G01*
%TO.C,RV1*%
X86549837Y-37032699D02*
G75*
G03*
X86549837Y-37032699I-3500000J0D01*
G01*
X87139937Y-42532699D02*
X78959737Y-42532699D01*
X87903837Y-32042599D02*
X87903837Y-42022799D01*
X78959737Y-31532699D02*
X87139937Y-31532699D01*
X78195837Y-42022799D02*
X78195837Y-32042599D01*
D12*
X84701000Y-39189856D02*
X81399000Y-39189856D01*
D11*
X78195837Y-42022799D02*
G75*
G03*
X78959737Y-42532699I636900J127000D01*
G01*
X87139937Y-42532699D02*
G75*
G03*
X87903837Y-42022799I127000J636900D01*
G01*
X87903837Y-32042599D02*
G75*
G03*
X87139937Y-31532699I-636900J-127000D01*
G01*
X78959737Y-31532699D02*
G75*
G03*
X78195837Y-32042599I-127000J-636900D01*
G01*
D12*
X81399000Y-39189856D02*
G75*
G02*
X84701000Y-39189856I1651000J2159000D01*
G01*
D11*
%TO.C,RV3*%
X86549837Y-70052699D02*
G75*
G03*
X86549837Y-70052699I-3500000J0D01*
G01*
X87139937Y-75552699D02*
X78959737Y-75552699D01*
X87903837Y-65062599D02*
X87903837Y-75042799D01*
X78959737Y-64552699D02*
X87139937Y-64552699D01*
X78195837Y-75042799D02*
X78195837Y-65062599D01*
D12*
X84701000Y-72209856D02*
X81399000Y-72209856D01*
D11*
X78195837Y-75042799D02*
G75*
G03*
X78959737Y-75552699I636900J127000D01*
G01*
X87139937Y-75552699D02*
G75*
G03*
X87903837Y-75042799I127000J636900D01*
G01*
X87903837Y-65062599D02*
G75*
G03*
X87139937Y-64552699I-636900J-127000D01*
G01*
X78959737Y-64552699D02*
G75*
G03*
X78195837Y-65062599I-127000J-636900D01*
G01*
D12*
X81399000Y-72209856D02*
G75*
G02*
X84701000Y-72209856I1651000J2159000D01*
G01*
%TO.C,RV4*%
X84701000Y-87018057D02*
X81399000Y-87018057D01*
D11*
X78195837Y-89851000D02*
X78195837Y-79870800D01*
X78959737Y-79360900D02*
X87139937Y-79360900D01*
X87903837Y-79870800D02*
X87903837Y-89851000D01*
X87139937Y-90360900D02*
X78959737Y-90360900D01*
X86549837Y-84860900D02*
G75*
G03*
X86549837Y-84860900I-3500000J0D01*
G01*
D12*
X81399000Y-87018057D02*
G75*
G02*
X84701000Y-87018057I1651000J2159000D01*
G01*
D11*
X78959737Y-79360900D02*
G75*
G03*
X78195837Y-79870800I-127000J-636900D01*
G01*
X87903837Y-79870800D02*
G75*
G03*
X87139937Y-79360900I-636900J-127000D01*
G01*
X87139937Y-90360900D02*
G75*
G03*
X87903837Y-89851000I127000J636900D01*
G01*
X78195837Y-89851000D02*
G75*
G03*
X78959737Y-90360900I636900J127000D01*
G01*
%TO.C,RV5*%
X103059837Y-107443343D02*
G75*
G03*
X103059837Y-107443343I-3500000J0D01*
G01*
X103649937Y-112943343D02*
X95469737Y-112943343D01*
X104413837Y-102453243D02*
X104413837Y-112433443D01*
X95469737Y-101943343D02*
X103649937Y-101943343D01*
X94705837Y-112433443D02*
X94705837Y-102453243D01*
D12*
X101211000Y-109600500D02*
X97909000Y-109600500D01*
D11*
X94705837Y-112433443D02*
G75*
G03*
X95469737Y-112943343I636900J127000D01*
G01*
X103649937Y-112943343D02*
G75*
G03*
X104413837Y-112433443I127000J636900D01*
G01*
X104413837Y-102453243D02*
G75*
G03*
X103649937Y-101943343I-636900J-127000D01*
G01*
X95469737Y-101943343D02*
G75*
G03*
X94705837Y-102453243I-127000J-636900D01*
G01*
D12*
X97909000Y-109600500D02*
G75*
G02*
X101211000Y-109600500I1651000J2159000D01*
G01*
D11*
%TO.C,RV6*%
X86549837Y-107443343D02*
G75*
G03*
X86549837Y-107443343I-3500000J0D01*
G01*
X87139937Y-112943343D02*
X78959737Y-112943343D01*
X87903837Y-102453243D02*
X87903837Y-112433443D01*
X78959737Y-101943343D02*
X87139937Y-101943343D01*
X78195837Y-112433443D02*
X78195837Y-102453243D01*
D12*
X84701000Y-109600500D02*
X81399000Y-109600500D01*
D11*
X78195837Y-112433443D02*
G75*
G03*
X78959737Y-112943343I636900J127000D01*
G01*
X87139937Y-112943343D02*
G75*
G03*
X87903837Y-112433443I127000J636900D01*
G01*
X87903837Y-102453243D02*
G75*
G03*
X87139937Y-101943343I-636900J-127000D01*
G01*
X78959737Y-101943343D02*
G75*
G03*
X78195837Y-102453243I-127000J-636900D01*
G01*
D12*
X81399000Y-109600500D02*
G75*
G02*
X84701000Y-109600500I1651000J2159000D01*
G01*
%TO.C,J1*%
D13*
X104018673Y-42396866D02*
X104018673Y-41696866D01*
X103685340Y-42396866D02*
X103685340Y-41696866D01*
X103285340Y-42396866D01*
X103285340Y-41696866D01*
X102585340Y-42396866D02*
X102985340Y-42396866D01*
X102785340Y-42396866D02*
X102785340Y-41696866D01*
X102852006Y-41796866D01*
X102918673Y-41863533D01*
X102985340Y-41896866D01*
%TO.C,J2*%
X104070526Y-59262466D02*
X104070526Y-58562466D01*
X103737193Y-59262466D02*
X103737193Y-58562466D01*
X103337193Y-59262466D01*
X103337193Y-58562466D01*
X103037193Y-58629133D02*
X103003860Y-58595800D01*
X102937193Y-58562466D01*
X102770526Y-58562466D01*
X102703860Y-58595800D01*
X102670526Y-58629133D01*
X102637193Y-58695800D01*
X102637193Y-58762466D01*
X102670526Y-58862466D01*
X103070526Y-59262466D01*
X102637193Y-59262466D01*
%TO.C,J3*%
X104018673Y-75416866D02*
X104018673Y-74716866D01*
X103685340Y-75416866D02*
X103685340Y-74716866D01*
X103285340Y-75416866D01*
X103285340Y-74716866D01*
X103018673Y-74716866D02*
X102585340Y-74716866D01*
X102818673Y-74983533D01*
X102718673Y-74983533D01*
X102652006Y-75016866D01*
X102618673Y-75050200D01*
X102585340Y-75116866D01*
X102585340Y-75283533D01*
X102618673Y-75350200D01*
X102652006Y-75383533D01*
X102718673Y-75416866D01*
X102918673Y-75416866D01*
X102985340Y-75383533D01*
X103018673Y-75350200D01*
%TO.C,J4*%
X104070526Y-92358666D02*
X104070526Y-91658666D01*
X103737193Y-92358666D02*
X103737193Y-91658666D01*
X103337193Y-92358666D01*
X103337193Y-91658666D01*
X102703860Y-91892000D02*
X102703860Y-92358666D01*
X102870526Y-91625333D02*
X103037193Y-92125333D01*
X102603860Y-92125333D01*
%TO.C,J5*%
X87273577Y-122799066D02*
X87140243Y-122799066D01*
X87073577Y-122832400D01*
X87006910Y-122899066D01*
X86973577Y-123032400D01*
X86973577Y-123265733D01*
X87006910Y-123399066D01*
X87073577Y-123465733D01*
X87140243Y-123499066D01*
X87273577Y-123499066D01*
X87340243Y-123465733D01*
X87406910Y-123399066D01*
X87440243Y-123265733D01*
X87440243Y-123032400D01*
X87406910Y-122899066D01*
X87340243Y-122832400D01*
X87273577Y-122799066D01*
X86673577Y-122799066D02*
X86673577Y-123365733D01*
X86640243Y-123432400D01*
X86606910Y-123465733D01*
X86540243Y-123499066D01*
X86406910Y-123499066D01*
X86340243Y-123465733D01*
X86306910Y-123432400D01*
X86273577Y-123365733D01*
X86273577Y-122799066D01*
X86040243Y-122799066D02*
X85640243Y-122799066D01*
X85840243Y-123499066D02*
X85840243Y-122799066D01*
%TO.C,RV2*%
X86497626Y-45761833D02*
X85923102Y-45761833D01*
X86612531Y-46106547D02*
X86210364Y-44900047D01*
X85808198Y-46106547D01*
X84774055Y-46106547D02*
X85463483Y-46106547D01*
X85118769Y-46106547D02*
X85118769Y-44900047D01*
X85233674Y-45072404D01*
X85348579Y-45187309D01*
X85463483Y-45244761D01*
X84027174Y-44900047D02*
X83912269Y-44900047D01*
X83797364Y-44957500D01*
X83739912Y-45014952D01*
X83682460Y-45129857D01*
X83625007Y-45359666D01*
X83625007Y-45646928D01*
X83682460Y-45876738D01*
X83739912Y-45991642D01*
X83797364Y-46049095D01*
X83912269Y-46106547D01*
X84027174Y-46106547D01*
X84142079Y-46049095D01*
X84199531Y-45991642D01*
X84256983Y-45876738D01*
X84314436Y-45646928D01*
X84314436Y-45359666D01*
X84256983Y-45129857D01*
X84199531Y-45014952D01*
X84142079Y-44957500D01*
X84027174Y-44900047D01*
X82878126Y-44900047D02*
X82763221Y-44900047D01*
X82648317Y-44957500D01*
X82590864Y-45014952D01*
X82533412Y-45129857D01*
X82475960Y-45359666D01*
X82475960Y-45646928D01*
X82533412Y-45876738D01*
X82590864Y-45991642D01*
X82648317Y-46049095D01*
X82763221Y-46106547D01*
X82878126Y-46106547D01*
X82993031Y-46049095D01*
X83050483Y-45991642D01*
X83107936Y-45876738D01*
X83165388Y-45646928D01*
X83165388Y-45359666D01*
X83107936Y-45129857D01*
X83050483Y-45014952D01*
X82993031Y-44957500D01*
X82878126Y-44900047D01*
X81958888Y-46106547D02*
X81958888Y-44900047D01*
X81843983Y-45646928D02*
X81499269Y-46106547D01*
X81499269Y-45302214D02*
X81958888Y-45761833D01*
%TO.C,RV1*%
X86497626Y-30979033D02*
X85923102Y-30979033D01*
X86612531Y-31323747D02*
X86210364Y-30117247D01*
X85808198Y-31323747D01*
X84774055Y-31323747D02*
X85463483Y-31323747D01*
X85118769Y-31323747D02*
X85118769Y-30117247D01*
X85233674Y-30289604D01*
X85348579Y-30404509D01*
X85463483Y-30461961D01*
X84027174Y-30117247D02*
X83912269Y-30117247D01*
X83797364Y-30174700D01*
X83739912Y-30232152D01*
X83682460Y-30347057D01*
X83625007Y-30576866D01*
X83625007Y-30864128D01*
X83682460Y-31093938D01*
X83739912Y-31208842D01*
X83797364Y-31266295D01*
X83912269Y-31323747D01*
X84027174Y-31323747D01*
X84142079Y-31266295D01*
X84199531Y-31208842D01*
X84256983Y-31093938D01*
X84314436Y-30864128D01*
X84314436Y-30576866D01*
X84256983Y-30347057D01*
X84199531Y-30232152D01*
X84142079Y-30174700D01*
X84027174Y-30117247D01*
X82878126Y-30117247D02*
X82763221Y-30117247D01*
X82648317Y-30174700D01*
X82590864Y-30232152D01*
X82533412Y-30347057D01*
X82475960Y-30576866D01*
X82475960Y-30864128D01*
X82533412Y-31093938D01*
X82590864Y-31208842D01*
X82648317Y-31266295D01*
X82763221Y-31323747D01*
X82878126Y-31323747D01*
X82993031Y-31266295D01*
X83050483Y-31208842D01*
X83107936Y-31093938D01*
X83165388Y-30864128D01*
X83165388Y-30576866D01*
X83107936Y-30347057D01*
X83050483Y-30232152D01*
X82993031Y-30174700D01*
X82878126Y-30117247D01*
X81958888Y-31323747D02*
X81958888Y-30117247D01*
X81843983Y-30864128D02*
X81499269Y-31323747D01*
X81499269Y-30519414D02*
X81958888Y-30979033D01*
%TO.C,RV3*%
X86497626Y-63973633D02*
X85923102Y-63973633D01*
X86612531Y-64318347D02*
X86210364Y-63111847D01*
X85808198Y-64318347D01*
X84774055Y-64318347D02*
X85463483Y-64318347D01*
X85118769Y-64318347D02*
X85118769Y-63111847D01*
X85233674Y-63284204D01*
X85348579Y-63399109D01*
X85463483Y-63456561D01*
X84027174Y-63111847D02*
X83912269Y-63111847D01*
X83797364Y-63169300D01*
X83739912Y-63226752D01*
X83682460Y-63341657D01*
X83625007Y-63571466D01*
X83625007Y-63858728D01*
X83682460Y-64088538D01*
X83739912Y-64203442D01*
X83797364Y-64260895D01*
X83912269Y-64318347D01*
X84027174Y-64318347D01*
X84142079Y-64260895D01*
X84199531Y-64203442D01*
X84256983Y-64088538D01*
X84314436Y-63858728D01*
X84314436Y-63571466D01*
X84256983Y-63341657D01*
X84199531Y-63226752D01*
X84142079Y-63169300D01*
X84027174Y-63111847D01*
X82878126Y-63111847D02*
X82763221Y-63111847D01*
X82648317Y-63169300D01*
X82590864Y-63226752D01*
X82533412Y-63341657D01*
X82475960Y-63571466D01*
X82475960Y-63858728D01*
X82533412Y-64088538D01*
X82590864Y-64203442D01*
X82648317Y-64260895D01*
X82763221Y-64318347D01*
X82878126Y-64318347D01*
X82993031Y-64260895D01*
X83050483Y-64203442D01*
X83107936Y-64088538D01*
X83165388Y-63858728D01*
X83165388Y-63571466D01*
X83107936Y-63341657D01*
X83050483Y-63226752D01*
X82993031Y-63169300D01*
X82878126Y-63111847D01*
X81958888Y-64318347D02*
X81958888Y-63111847D01*
X81843983Y-63858728D02*
X81499269Y-64318347D01*
X81499269Y-63514014D02*
X81958888Y-63973633D01*
%TO.C,RV4*%
X86497626Y-78832633D02*
X85923102Y-78832633D01*
X86612531Y-79177347D02*
X86210364Y-77970847D01*
X85808198Y-79177347D01*
X84774055Y-79177347D02*
X85463483Y-79177347D01*
X85118769Y-79177347D02*
X85118769Y-77970847D01*
X85233674Y-78143204D01*
X85348579Y-78258109D01*
X85463483Y-78315561D01*
X84027174Y-77970847D02*
X83912269Y-77970847D01*
X83797364Y-78028300D01*
X83739912Y-78085752D01*
X83682460Y-78200657D01*
X83625007Y-78430466D01*
X83625007Y-78717728D01*
X83682460Y-78947538D01*
X83739912Y-79062442D01*
X83797364Y-79119895D01*
X83912269Y-79177347D01*
X84027174Y-79177347D01*
X84142079Y-79119895D01*
X84199531Y-79062442D01*
X84256983Y-78947538D01*
X84314436Y-78717728D01*
X84314436Y-78430466D01*
X84256983Y-78200657D01*
X84199531Y-78085752D01*
X84142079Y-78028300D01*
X84027174Y-77970847D01*
X82878126Y-77970847D02*
X82763221Y-77970847D01*
X82648317Y-78028300D01*
X82590864Y-78085752D01*
X82533412Y-78200657D01*
X82475960Y-78430466D01*
X82475960Y-78717728D01*
X82533412Y-78947538D01*
X82590864Y-79062442D01*
X82648317Y-79119895D01*
X82763221Y-79177347D01*
X82878126Y-79177347D01*
X82993031Y-79119895D01*
X83050483Y-79062442D01*
X83107936Y-78947538D01*
X83165388Y-78717728D01*
X83165388Y-78430466D01*
X83107936Y-78200657D01*
X83050483Y-78085752D01*
X82993031Y-78028300D01*
X82878126Y-77970847D01*
X81958888Y-79177347D02*
X81958888Y-77970847D01*
X81843983Y-78717728D02*
X81499269Y-79177347D01*
X81499269Y-78373014D02*
X81958888Y-78832633D01*
%TO.C,RV5*%
X101469717Y-101075171D02*
X101297360Y-101132623D01*
X101239907Y-101190076D01*
X101182455Y-101304980D01*
X101182455Y-101477338D01*
X101239907Y-101592242D01*
X101297360Y-101649695D01*
X101412264Y-101707147D01*
X101871883Y-101707147D01*
X101871883Y-100500647D01*
X101469717Y-100500647D01*
X101354812Y-100558100D01*
X101297360Y-100615552D01*
X101239907Y-100730457D01*
X101239907Y-100845361D01*
X101297360Y-100960266D01*
X101354812Y-101017719D01*
X101469717Y-101075171D01*
X101871883Y-101075171D01*
X100033407Y-101707147D02*
X100722836Y-101707147D01*
X100378121Y-101707147D02*
X100378121Y-100500647D01*
X100493026Y-100673004D01*
X100607931Y-100787909D01*
X100722836Y-100845361D01*
X99286526Y-100500647D02*
X99171621Y-100500647D01*
X99056717Y-100558100D01*
X98999264Y-100615552D01*
X98941812Y-100730457D01*
X98884360Y-100960266D01*
X98884360Y-101247528D01*
X98941812Y-101477338D01*
X98999264Y-101592242D01*
X99056717Y-101649695D01*
X99171621Y-101707147D01*
X99286526Y-101707147D01*
X99401431Y-101649695D01*
X99458883Y-101592242D01*
X99516336Y-101477338D01*
X99573788Y-101247528D01*
X99573788Y-100960266D01*
X99516336Y-100730457D01*
X99458883Y-100615552D01*
X99401431Y-100558100D01*
X99286526Y-100500647D01*
X98367288Y-101707147D02*
X98367288Y-100500647D01*
X98252383Y-101247528D02*
X97907669Y-101707147D01*
X97907669Y-100902814D02*
X98367288Y-101362433D01*
%TO.C,RV6*%
X83613517Y-101265671D02*
X83441160Y-101323123D01*
X83383707Y-101380576D01*
X83326255Y-101495480D01*
X83326255Y-101667838D01*
X83383707Y-101782742D01*
X83441160Y-101840195D01*
X83556064Y-101897647D01*
X84015683Y-101897647D01*
X84015683Y-100691147D01*
X83613517Y-100691147D01*
X83498612Y-100748600D01*
X83441160Y-100806052D01*
X83383707Y-100920957D01*
X83383707Y-101035861D01*
X83441160Y-101150766D01*
X83498612Y-101208219D01*
X83613517Y-101265671D01*
X84015683Y-101265671D01*
X82177207Y-101897647D02*
X82866636Y-101897647D01*
X82521921Y-101897647D02*
X82521921Y-100691147D01*
X82636826Y-100863504D01*
X82751731Y-100978409D01*
X82866636Y-101035861D01*
X81430326Y-100691147D02*
X81315421Y-100691147D01*
X81200517Y-100748600D01*
X81143064Y-100806052D01*
X81085612Y-100920957D01*
X81028160Y-101150766D01*
X81028160Y-101438028D01*
X81085612Y-101667838D01*
X81143064Y-101782742D01*
X81200517Y-101840195D01*
X81315421Y-101897647D01*
X81430326Y-101897647D01*
X81545231Y-101840195D01*
X81602683Y-101782742D01*
X81660136Y-101667838D01*
X81717588Y-101438028D01*
X81717588Y-101150766D01*
X81660136Y-100920957D01*
X81602683Y-100806052D01*
X81545231Y-100748600D01*
X81430326Y-100691147D01*
X80511088Y-101897647D02*
X80511088Y-100691147D01*
X80396183Y-101438028D02*
X80051469Y-101897647D01*
X80051469Y-101093314D02*
X80511088Y-101552933D01*
%TD*%
M02*
