%TF.GenerationSoftware,KiCad,Pcbnew,(5.1.9)-1*%
%TF.CreationDate,2021-03-03T00:59:23+01:00*%
%TF.ProjectId,Hands of Svarog,48616e64-7320-46f6-9620-537661726f67,rev?*%
%TF.SameCoordinates,Original*%
%TF.FileFunction,Soldermask,Bot*%
%TF.FilePolarity,Negative*%
%FSLAX46Y46*%
G04 Gerber Fmt 4.6, Leading zero omitted, Abs format (unit mm)*
G04 Created by KiCad (PCBNEW (5.1.9)-1) date 2021-03-03 00:59:23*
%MOMM*%
%LPD*%
G01*
G04 APERTURE LIST*
%ADD10C,2.184400*%
%ADD11C,3.200000*%
%ADD12C,1.803400*%
%ADD13C,2.667000*%
%ADD14R,1.524000X1.524000*%
%ADD15C,1.524000*%
G04 APERTURE END LIST*
D10*
%TO.C,J1*%
X99559837Y-31609800D03*
X99559837Y-42582600D03*
X99559837Y-40169600D03*
%TD*%
%TO.C,J2*%
X99559837Y-57263800D03*
X99559837Y-46291000D03*
X99559837Y-48704000D03*
%TD*%
%TO.C,J3*%
X99559837Y-64629800D03*
X99559837Y-75602600D03*
X99559837Y-73189600D03*
%TD*%
%TO.C,J4*%
X99559837Y-90283800D03*
X99559837Y-79311000D03*
X99559837Y-81724000D03*
%TD*%
%TO.C,J5*%
X83049837Y-133667000D03*
X83049837Y-122694200D03*
X83049837Y-125107200D03*
D11*
X83049837Y-128460000D03*
%TD*%
D12*
%TO.C,RV2*%
X80509837Y-58851300D03*
X83049837Y-58851300D03*
X85589837Y-58851300D03*
D13*
X87444037Y-51840900D03*
X78655637Y-51840900D03*
%TD*%
D14*
%TO.C,J7*%
X92575000Y-131355600D03*
D15*
X90035000Y-131355600D03*
X92575000Y-128815600D03*
X90035000Y-128815600D03*
X92575000Y-126275600D03*
X90035000Y-126275600D03*
X92575000Y-123735600D03*
X90035000Y-123735600D03*
X92575000Y-121195600D03*
X90035000Y-121195600D03*
%TD*%
D13*
%TO.C,RV1*%
X78655637Y-37032699D03*
X87444037Y-37032699D03*
D12*
X85589837Y-44043099D03*
X83049837Y-44043099D03*
X80509837Y-44043099D03*
%TD*%
D13*
%TO.C,RV3*%
X78655637Y-70052699D03*
X87444037Y-70052699D03*
D12*
X85589837Y-77063099D03*
X83049837Y-77063099D03*
X80509837Y-77063099D03*
%TD*%
%TO.C,RV4*%
X80509837Y-91871300D03*
X83049837Y-91871300D03*
X85589837Y-91871300D03*
D13*
X87444037Y-84860900D03*
X78655637Y-84860900D03*
%TD*%
%TO.C,RV5*%
X95165637Y-107443343D03*
X103954037Y-107443343D03*
D12*
X102099837Y-114453743D03*
X99559837Y-114453743D03*
X97019837Y-114453743D03*
%TD*%
D13*
%TO.C,RV6*%
X78655637Y-107443343D03*
X87444037Y-107443343D03*
D12*
X85589837Y-114453743D03*
X83049837Y-114453743D03*
X80509837Y-114453743D03*
%TD*%
M02*
