%TF.GenerationSoftware,KiCad,Pcbnew,(5.1.9)-1*%
%TF.CreationDate,2021-03-03T00:59:23+01:00*%
%TF.ProjectId,Hands of Svarog,48616e64-7320-46f6-9620-537661726f67,rev?*%
%TF.SameCoordinates,Original*%
%TF.FileFunction,Soldermask,Top*%
%TF.FilePolarity,Negative*%
%FSLAX46Y46*%
G04 Gerber Fmt 4.6, Leading zero omitted, Abs format (unit mm)*
G04 Created by KiCad (PCBNEW (5.1.9)-1) date 2021-03-03 00:59:23*
%MOMM*%
%LPD*%
G01*
G04 APERTURE LIST*
%ADD10C,2.184400*%
%ADD11C,3.200000*%
%ADD12C,1.803400*%
%ADD13C,2.667000*%
%ADD14R,0.900000X1.200000*%
%ADD15R,1.524000X1.524000*%
%ADD16C,1.524000*%
G04 APERTURE END LIST*
D10*
%TO.C,J1*%
X99559837Y-31609800D03*
X99559837Y-42582600D03*
X99559837Y-40169600D03*
%TD*%
%TO.C,J2*%
X99559837Y-57263800D03*
X99559837Y-46291000D03*
X99559837Y-48704000D03*
%TD*%
%TO.C,J3*%
X99559837Y-64629800D03*
X99559837Y-75602600D03*
X99559837Y-73189600D03*
%TD*%
%TO.C,J4*%
X99559837Y-90283800D03*
X99559837Y-79311000D03*
X99559837Y-81724000D03*
%TD*%
%TO.C,J5*%
X83049837Y-133667000D03*
X83049837Y-122694200D03*
X83049837Y-125107200D03*
D11*
X83049837Y-128460000D03*
%TD*%
D12*
%TO.C,RV2*%
X80509837Y-58851300D03*
X83049837Y-58851300D03*
X85589837Y-58851300D03*
D13*
X87444037Y-51840900D03*
X78655637Y-51840900D03*
%TD*%
%TO.C,C1*%
G36*
G01*
X82449200Y-36358200D02*
X83549200Y-36358200D01*
G75*
G02*
X83799200Y-36608200I0J-250000D01*
G01*
X83799200Y-39108200D01*
G75*
G02*
X83549200Y-39358200I-250000J0D01*
G01*
X82449200Y-39358200D01*
G75*
G02*
X82199200Y-39108200I0J250000D01*
G01*
X82199200Y-36608200D01*
G75*
G02*
X82449200Y-36358200I250000J0D01*
G01*
G37*
G36*
G01*
X82449200Y-31958200D02*
X83549200Y-31958200D01*
G75*
G02*
X83799200Y-32208200I0J-250000D01*
G01*
X83799200Y-34708200D01*
G75*
G02*
X83549200Y-34958200I-250000J0D01*
G01*
X82449200Y-34958200D01*
G75*
G02*
X82199200Y-34708200I0J250000D01*
G01*
X82199200Y-32208200D01*
G75*
G02*
X82449200Y-31958200I250000J0D01*
G01*
G37*
%TD*%
%TO.C,C2*%
G36*
G01*
X82525400Y-48423200D02*
X83625400Y-48423200D01*
G75*
G02*
X83875400Y-48673200I0J-250000D01*
G01*
X83875400Y-51173200D01*
G75*
G02*
X83625400Y-51423200I-250000J0D01*
G01*
X82525400Y-51423200D01*
G75*
G02*
X82275400Y-51173200I0J250000D01*
G01*
X82275400Y-48673200D01*
G75*
G02*
X82525400Y-48423200I250000J0D01*
G01*
G37*
G36*
G01*
X82525400Y-52823200D02*
X83625400Y-52823200D01*
G75*
G02*
X83875400Y-53073200I0J-250000D01*
G01*
X83875400Y-55573200D01*
G75*
G02*
X83625400Y-55823200I-250000J0D01*
G01*
X82525400Y-55823200D01*
G75*
G02*
X82275400Y-55573200I0J250000D01*
G01*
X82275400Y-53073200D01*
G75*
G02*
X82525400Y-52823200I250000J0D01*
G01*
G37*
%TD*%
%TO.C,C3*%
G36*
G01*
X91042100Y-55940000D02*
X91517100Y-55940000D01*
G75*
G02*
X91754600Y-56177500I0J-237500D01*
G01*
X91754600Y-56752500D01*
G75*
G02*
X91517100Y-56990000I-237500J0D01*
G01*
X91042100Y-56990000D01*
G75*
G02*
X90804600Y-56752500I0J237500D01*
G01*
X90804600Y-56177500D01*
G75*
G02*
X91042100Y-55940000I237500J0D01*
G01*
G37*
G36*
G01*
X91042100Y-57690000D02*
X91517100Y-57690000D01*
G75*
G02*
X91754600Y-57927500I0J-237500D01*
G01*
X91754600Y-58502500D01*
G75*
G02*
X91517100Y-58740000I-237500J0D01*
G01*
X91042100Y-58740000D01*
G75*
G02*
X90804600Y-58502500I0J237500D01*
G01*
X90804600Y-57927500D01*
G75*
G02*
X91042100Y-57690000I237500J0D01*
G01*
G37*
%TD*%
%TO.C,C4*%
G36*
G01*
X93980032Y-78389100D02*
X94455032Y-78389100D01*
G75*
G02*
X94692532Y-78626600I0J-237500D01*
G01*
X94692532Y-79201600D01*
G75*
G02*
X94455032Y-79439100I-237500J0D01*
G01*
X93980032Y-79439100D01*
G75*
G02*
X93742532Y-79201600I0J237500D01*
G01*
X93742532Y-78626600D01*
G75*
G02*
X93980032Y-78389100I237500J0D01*
G01*
G37*
G36*
G01*
X93980032Y-76639100D02*
X94455032Y-76639100D01*
G75*
G02*
X94692532Y-76876600I0J-237500D01*
G01*
X94692532Y-77451600D01*
G75*
G02*
X94455032Y-77689100I-237500J0D01*
G01*
X93980032Y-77689100D01*
G75*
G02*
X93742532Y-77451600I0J237500D01*
G01*
X93742532Y-76876600D01*
G75*
G02*
X93980032Y-76639100I237500J0D01*
G01*
G37*
%TD*%
%TO.C,C5*%
G36*
G01*
X93361966Y-71990200D02*
X93836966Y-71990200D01*
G75*
G02*
X94074466Y-72227700I0J-237500D01*
G01*
X94074466Y-72802700D01*
G75*
G02*
X93836966Y-73040200I-237500J0D01*
G01*
X93361966Y-73040200D01*
G75*
G02*
X93124466Y-72802700I0J237500D01*
G01*
X93124466Y-72227700D01*
G75*
G02*
X93361966Y-71990200I237500J0D01*
G01*
G37*
G36*
G01*
X93361966Y-70240200D02*
X93836966Y-70240200D01*
G75*
G02*
X94074466Y-70477700I0J-237500D01*
G01*
X94074466Y-71052700D01*
G75*
G02*
X93836966Y-71290200I-237500J0D01*
G01*
X93361966Y-71290200D01*
G75*
G02*
X93124466Y-71052700I0J237500D01*
G01*
X93124466Y-70477700D01*
G75*
G02*
X93361966Y-70240200I237500J0D01*
G01*
G37*
%TD*%
%TO.C,C6*%
G36*
G01*
X93980032Y-90992000D02*
X94455032Y-90992000D01*
G75*
G02*
X94692532Y-91229500I0J-237500D01*
G01*
X94692532Y-91804500D01*
G75*
G02*
X94455032Y-92042000I-237500J0D01*
G01*
X93980032Y-92042000D01*
G75*
G02*
X93742532Y-91804500I0J237500D01*
G01*
X93742532Y-91229500D01*
G75*
G02*
X93980032Y-90992000I237500J0D01*
G01*
G37*
G36*
G01*
X93980032Y-92742000D02*
X94455032Y-92742000D01*
G75*
G02*
X94692532Y-92979500I0J-237500D01*
G01*
X94692532Y-93554500D01*
G75*
G02*
X94455032Y-93792000I-237500J0D01*
G01*
X93980032Y-93792000D01*
G75*
G02*
X93742532Y-93554500I0J237500D01*
G01*
X93742532Y-92979500D01*
G75*
G02*
X93980032Y-92742000I237500J0D01*
G01*
G37*
%TD*%
%TO.C,C7*%
G36*
G01*
X88126200Y-99799400D02*
X88126200Y-101799400D01*
G75*
G02*
X87876200Y-102049400I-250000J0D01*
G01*
X84876200Y-102049400D01*
G75*
G02*
X84626200Y-101799400I0J250000D01*
G01*
X84626200Y-99799400D01*
G75*
G02*
X84876200Y-99549400I250000J0D01*
G01*
X87876200Y-99549400D01*
G75*
G02*
X88126200Y-99799400I0J-250000D01*
G01*
G37*
G36*
G01*
X81626200Y-99799400D02*
X81626200Y-101799400D01*
G75*
G02*
X81376200Y-102049400I-250000J0D01*
G01*
X78376200Y-102049400D01*
G75*
G02*
X78126200Y-101799400I0J250000D01*
G01*
X78126200Y-99799400D01*
G75*
G02*
X78376200Y-99549400I250000J0D01*
G01*
X81376200Y-99549400D01*
G75*
G02*
X81626200Y-99799400I0J-250000D01*
G01*
G37*
%TD*%
%TO.C,C8*%
G36*
G01*
X98136200Y-99799400D02*
X98136200Y-101799400D01*
G75*
G02*
X97886200Y-102049400I-250000J0D01*
G01*
X94886200Y-102049400D01*
G75*
G02*
X94636200Y-101799400I0J250000D01*
G01*
X94636200Y-99799400D01*
G75*
G02*
X94886200Y-99549400I250000J0D01*
G01*
X97886200Y-99549400D01*
G75*
G02*
X98136200Y-99799400I0J-250000D01*
G01*
G37*
G36*
G01*
X104636200Y-99799400D02*
X104636200Y-101799400D01*
G75*
G02*
X104386200Y-102049400I-250000J0D01*
G01*
X101386200Y-102049400D01*
G75*
G02*
X101136200Y-101799400I0J250000D01*
G01*
X101136200Y-99799400D01*
G75*
G02*
X101386200Y-99549400I250000J0D01*
G01*
X104386200Y-99549400D01*
G75*
G02*
X104636200Y-99799400I0J-250000D01*
G01*
G37*
%TD*%
%TO.C,C9*%
G36*
G01*
X101961800Y-122787000D02*
X101961800Y-121687000D01*
G75*
G02*
X102211800Y-121437000I250000J0D01*
G01*
X104711800Y-121437000D01*
G75*
G02*
X104961800Y-121687000I0J-250000D01*
G01*
X104961800Y-122787000D01*
G75*
G02*
X104711800Y-123037000I-250000J0D01*
G01*
X102211800Y-123037000D01*
G75*
G02*
X101961800Y-122787000I0J250000D01*
G01*
G37*
G36*
G01*
X97561800Y-122787000D02*
X97561800Y-121687000D01*
G75*
G02*
X97811800Y-121437000I250000J0D01*
G01*
X100311800Y-121437000D01*
G75*
G02*
X100561800Y-121687000I0J-250000D01*
G01*
X100561800Y-122787000D01*
G75*
G02*
X100311800Y-123037000I-250000J0D01*
G01*
X97811800Y-123037000D01*
G75*
G02*
X97561800Y-122787000I0J250000D01*
G01*
G37*
%TD*%
%TO.C,C10*%
G36*
G01*
X104961800Y-127783000D02*
X104961800Y-128883000D01*
G75*
G02*
X104711800Y-129133000I-250000J0D01*
G01*
X102211800Y-129133000D01*
G75*
G02*
X101961800Y-128883000I0J250000D01*
G01*
X101961800Y-127783000D01*
G75*
G02*
X102211800Y-127533000I250000J0D01*
G01*
X104711800Y-127533000D01*
G75*
G02*
X104961800Y-127783000I0J-250000D01*
G01*
G37*
G36*
G01*
X100561800Y-127783000D02*
X100561800Y-128883000D01*
G75*
G02*
X100311800Y-129133000I-250000J0D01*
G01*
X97811800Y-129133000D01*
G75*
G02*
X97561800Y-128883000I0J250000D01*
G01*
X97561800Y-127783000D01*
G75*
G02*
X97811800Y-127533000I250000J0D01*
G01*
X100311800Y-127533000D01*
G75*
G02*
X100561800Y-127783000I0J-250000D01*
G01*
G37*
%TD*%
%TO.C,C11*%
G36*
G01*
X95791900Y-123185200D02*
X96266900Y-123185200D01*
G75*
G02*
X96504400Y-123422700I0J-237500D01*
G01*
X96504400Y-123997700D01*
G75*
G02*
X96266900Y-124235200I-237500J0D01*
G01*
X95791900Y-124235200D01*
G75*
G02*
X95554400Y-123997700I0J237500D01*
G01*
X95554400Y-123422700D01*
G75*
G02*
X95791900Y-123185200I237500J0D01*
G01*
G37*
G36*
G01*
X95791900Y-121435200D02*
X96266900Y-121435200D01*
G75*
G02*
X96504400Y-121672700I0J-237500D01*
G01*
X96504400Y-122247700D01*
G75*
G02*
X96266900Y-122485200I-237500J0D01*
G01*
X95791900Y-122485200D01*
G75*
G02*
X95554400Y-122247700I0J237500D01*
G01*
X95554400Y-121672700D01*
G75*
G02*
X95791900Y-121435200I237500J0D01*
G01*
G37*
%TD*%
%TO.C,C12*%
G36*
G01*
X96266900Y-129112000D02*
X95791900Y-129112000D01*
G75*
G02*
X95554400Y-128874500I0J237500D01*
G01*
X95554400Y-128299500D01*
G75*
G02*
X95791900Y-128062000I237500J0D01*
G01*
X96266900Y-128062000D01*
G75*
G02*
X96504400Y-128299500I0J-237500D01*
G01*
X96504400Y-128874500D01*
G75*
G02*
X96266900Y-129112000I-237500J0D01*
G01*
G37*
G36*
G01*
X96266900Y-127362000D02*
X95791900Y-127362000D01*
G75*
G02*
X95554400Y-127124500I0J237500D01*
G01*
X95554400Y-126549500D01*
G75*
G02*
X95791900Y-126312000I237500J0D01*
G01*
X96266900Y-126312000D01*
G75*
G02*
X96504400Y-126549500I0J-237500D01*
G01*
X96504400Y-127124500D01*
G75*
G02*
X96266900Y-127362000I-237500J0D01*
G01*
G37*
%TD*%
%TO.C,C13*%
G36*
G01*
X97620700Y-67785200D02*
X98095700Y-67785200D01*
G75*
G02*
X98333200Y-68022700I0J-237500D01*
G01*
X98333200Y-68597700D01*
G75*
G02*
X98095700Y-68835200I-237500J0D01*
G01*
X97620700Y-68835200D01*
G75*
G02*
X97383200Y-68597700I0J237500D01*
G01*
X97383200Y-68022700D01*
G75*
G02*
X97620700Y-67785200I237500J0D01*
G01*
G37*
G36*
G01*
X97620700Y-66035200D02*
X98095700Y-66035200D01*
G75*
G02*
X98333200Y-66272700I0J-237500D01*
G01*
X98333200Y-66847700D01*
G75*
G02*
X98095700Y-67085200I-237500J0D01*
G01*
X97620700Y-67085200D01*
G75*
G02*
X97383200Y-66847700I0J237500D01*
G01*
X97383200Y-66272700D01*
G75*
G02*
X97620700Y-66035200I237500J0D01*
G01*
G37*
%TD*%
%TO.C,C14*%
G36*
G01*
X89035500Y-60105600D02*
X89510500Y-60105600D01*
G75*
G02*
X89748000Y-60343100I0J-237500D01*
G01*
X89748000Y-60918100D01*
G75*
G02*
X89510500Y-61155600I-237500J0D01*
G01*
X89035500Y-61155600D01*
G75*
G02*
X88798000Y-60918100I0J237500D01*
G01*
X88798000Y-60343100D01*
G75*
G02*
X89035500Y-60105600I237500J0D01*
G01*
G37*
G36*
G01*
X89035500Y-61855600D02*
X89510500Y-61855600D01*
G75*
G02*
X89748000Y-62093100I0J-237500D01*
G01*
X89748000Y-62668100D01*
G75*
G02*
X89510500Y-62905600I-237500J0D01*
G01*
X89035500Y-62905600D01*
G75*
G02*
X88798000Y-62668100I0J237500D01*
G01*
X88798000Y-62093100D01*
G75*
G02*
X89035500Y-61855600I237500J0D01*
G01*
G37*
%TD*%
%TO.C,C15*%
G36*
G01*
X96774900Y-92042000D02*
X96299900Y-92042000D01*
G75*
G02*
X96062400Y-91804500I0J237500D01*
G01*
X96062400Y-91229500D01*
G75*
G02*
X96299900Y-90992000I237500J0D01*
G01*
X96774900Y-90992000D01*
G75*
G02*
X97012400Y-91229500I0J-237500D01*
G01*
X97012400Y-91804500D01*
G75*
G02*
X96774900Y-92042000I-237500J0D01*
G01*
G37*
G36*
G01*
X96774900Y-93792000D02*
X96299900Y-93792000D01*
G75*
G02*
X96062400Y-93554500I0J237500D01*
G01*
X96062400Y-92979500D01*
G75*
G02*
X96299900Y-92742000I237500J0D01*
G01*
X96774900Y-92742000D01*
G75*
G02*
X97012400Y-92979500I0J-237500D01*
G01*
X97012400Y-93554500D01*
G75*
G02*
X96774900Y-93792000I-237500J0D01*
G01*
G37*
%TD*%
%TO.C,C16*%
G36*
G01*
X89815300Y-79439100D02*
X89340300Y-79439100D01*
G75*
G02*
X89102800Y-79201600I0J237500D01*
G01*
X89102800Y-78626600D01*
G75*
G02*
X89340300Y-78389100I237500J0D01*
G01*
X89815300Y-78389100D01*
G75*
G02*
X90052800Y-78626600I0J-237500D01*
G01*
X90052800Y-79201600D01*
G75*
G02*
X89815300Y-79439100I-237500J0D01*
G01*
G37*
G36*
G01*
X89815300Y-77689100D02*
X89340300Y-77689100D01*
G75*
G02*
X89102800Y-77451600I0J237500D01*
G01*
X89102800Y-76876600D01*
G75*
G02*
X89340300Y-76639100I237500J0D01*
G01*
X89815300Y-76639100D01*
G75*
G02*
X90052800Y-76876600I0J-237500D01*
G01*
X90052800Y-77451600D01*
G75*
G02*
X89815300Y-77689100I-237500J0D01*
G01*
G37*
%TD*%
%TO.C,C17*%
G36*
G01*
X96156832Y-50524400D02*
X95681832Y-50524400D01*
G75*
G02*
X95444332Y-50286900I0J237500D01*
G01*
X95444332Y-49711900D01*
G75*
G02*
X95681832Y-49474400I237500J0D01*
G01*
X96156832Y-49474400D01*
G75*
G02*
X96394332Y-49711900I0J-237500D01*
G01*
X96394332Y-50286900D01*
G75*
G02*
X96156832Y-50524400I-237500J0D01*
G01*
G37*
G36*
G01*
X96156832Y-52274400D02*
X95681832Y-52274400D01*
G75*
G02*
X95444332Y-52036900I0J237500D01*
G01*
X95444332Y-51461900D01*
G75*
G02*
X95681832Y-51224400I237500J0D01*
G01*
X96156832Y-51224400D01*
G75*
G02*
X96394332Y-51461900I0J-237500D01*
G01*
X96394332Y-52036900D01*
G75*
G02*
X96156832Y-52274400I-237500J0D01*
G01*
G37*
%TD*%
%TO.C,C18*%
G36*
G01*
X89010100Y-39314400D02*
X89485100Y-39314400D01*
G75*
G02*
X89722600Y-39551900I0J-237500D01*
G01*
X89722600Y-40126900D01*
G75*
G02*
X89485100Y-40364400I-237500J0D01*
G01*
X89010100Y-40364400D01*
G75*
G02*
X88772600Y-40126900I0J237500D01*
G01*
X88772600Y-39551900D01*
G75*
G02*
X89010100Y-39314400I237500J0D01*
G01*
G37*
G36*
G01*
X89010100Y-41064400D02*
X89485100Y-41064400D01*
G75*
G02*
X89722600Y-41301900I0J-237500D01*
G01*
X89722600Y-41876900D01*
G75*
G02*
X89485100Y-42114400I-237500J0D01*
G01*
X89010100Y-42114400D01*
G75*
G02*
X88772600Y-41876900I0J237500D01*
G01*
X88772600Y-41301900D01*
G75*
G02*
X89010100Y-41064400I237500J0D01*
G01*
G37*
%TD*%
D14*
%TO.C,D1*%
X99155600Y-117538000D03*
X102455600Y-117538000D03*
%TD*%
%TO.C,D2*%
X99155600Y-133082800D03*
X102455600Y-133082800D03*
%TD*%
D15*
%TO.C,J7*%
X92575000Y-131355600D03*
D16*
X90035000Y-131355600D03*
X92575000Y-128815600D03*
X90035000Y-128815600D03*
X92575000Y-126275600D03*
X90035000Y-126275600D03*
X92575000Y-123735600D03*
X90035000Y-123735600D03*
X92575000Y-121195600D03*
X90035000Y-121195600D03*
%TD*%
%TO.C,R1*%
G36*
G01*
X93836966Y-36212100D02*
X93361966Y-36212100D01*
G75*
G02*
X93124466Y-35974600I0J237500D01*
G01*
X93124466Y-35474600D01*
G75*
G02*
X93361966Y-35237100I237500J0D01*
G01*
X93836966Y-35237100D01*
G75*
G02*
X94074466Y-35474600I0J-237500D01*
G01*
X94074466Y-35974600D01*
G75*
G02*
X93836966Y-36212100I-237500J0D01*
G01*
G37*
G36*
G01*
X93836966Y-38037100D02*
X93361966Y-38037100D01*
G75*
G02*
X93124466Y-37799600I0J237500D01*
G01*
X93124466Y-37299600D01*
G75*
G02*
X93361966Y-37062100I237500J0D01*
G01*
X93836966Y-37062100D01*
G75*
G02*
X94074466Y-37299600I0J-237500D01*
G01*
X94074466Y-37799600D01*
G75*
G02*
X93836966Y-38037100I-237500J0D01*
G01*
G37*
%TD*%
%TO.C,R2*%
G36*
G01*
X91517100Y-38037100D02*
X91042100Y-38037100D01*
G75*
G02*
X90804600Y-37799600I0J237500D01*
G01*
X90804600Y-37299600D01*
G75*
G02*
X91042100Y-37062100I237500J0D01*
G01*
X91517100Y-37062100D01*
G75*
G02*
X91754600Y-37299600I0J-237500D01*
G01*
X91754600Y-37799600D01*
G75*
G02*
X91517100Y-38037100I-237500J0D01*
G01*
G37*
G36*
G01*
X91517100Y-36212100D02*
X91042100Y-36212100D01*
G75*
G02*
X90804600Y-35974600I0J237500D01*
G01*
X90804600Y-35474600D01*
G75*
G02*
X91042100Y-35237100I237500J0D01*
G01*
X91517100Y-35237100D01*
G75*
G02*
X91754600Y-35474600I0J-237500D01*
G01*
X91754600Y-35974600D01*
G75*
G02*
X91517100Y-36212100I-237500J0D01*
G01*
G37*
%TD*%
%TO.C,R3*%
G36*
G01*
X91042100Y-49474400D02*
X91517100Y-49474400D01*
G75*
G02*
X91754600Y-49711900I0J-237500D01*
G01*
X91754600Y-50211900D01*
G75*
G02*
X91517100Y-50449400I-237500J0D01*
G01*
X91042100Y-50449400D01*
G75*
G02*
X90804600Y-50211900I0J237500D01*
G01*
X90804600Y-49711900D01*
G75*
G02*
X91042100Y-49474400I237500J0D01*
G01*
G37*
G36*
G01*
X91042100Y-51299400D02*
X91517100Y-51299400D01*
G75*
G02*
X91754600Y-51536900I0J-237500D01*
G01*
X91754600Y-52036900D01*
G75*
G02*
X91517100Y-52274400I-237500J0D01*
G01*
X91042100Y-52274400D01*
G75*
G02*
X90804600Y-52036900I0J237500D01*
G01*
X90804600Y-51536900D01*
G75*
G02*
X91042100Y-51299400I237500J0D01*
G01*
G37*
%TD*%
%TO.C,R4*%
G36*
G01*
X82812337Y-83270400D02*
X83287337Y-83270400D01*
G75*
G02*
X83524837Y-83507900I0J-237500D01*
G01*
X83524837Y-84007900D01*
G75*
G02*
X83287337Y-84245400I-237500J0D01*
G01*
X82812337Y-84245400D01*
G75*
G02*
X82574837Y-84007900I0J237500D01*
G01*
X82574837Y-83507900D01*
G75*
G02*
X82812337Y-83270400I237500J0D01*
G01*
G37*
G36*
G01*
X82812337Y-85095400D02*
X83287337Y-85095400D01*
G75*
G02*
X83524837Y-85332900I0J-237500D01*
G01*
X83524837Y-85832900D01*
G75*
G02*
X83287337Y-86070400I-237500J0D01*
G01*
X82812337Y-86070400D01*
G75*
G02*
X82574837Y-85832900I0J237500D01*
G01*
X82574837Y-85332900D01*
G75*
G02*
X82812337Y-85095400I237500J0D01*
G01*
G37*
%TD*%
%TO.C,R5*%
G36*
G01*
X96156832Y-38066300D02*
X95681832Y-38066300D01*
G75*
G02*
X95444332Y-37828800I0J237500D01*
G01*
X95444332Y-37328800D01*
G75*
G02*
X95681832Y-37091300I237500J0D01*
G01*
X96156832Y-37091300D01*
G75*
G02*
X96394332Y-37328800I0J-237500D01*
G01*
X96394332Y-37828800D01*
G75*
G02*
X96156832Y-38066300I-237500J0D01*
G01*
G37*
G36*
G01*
X96156832Y-36241300D02*
X95681832Y-36241300D01*
G75*
G02*
X95444332Y-36003800I0J237500D01*
G01*
X95444332Y-35503800D01*
G75*
G02*
X95681832Y-35266300I237500J0D01*
G01*
X96156832Y-35266300D01*
G75*
G02*
X96394332Y-35503800I0J-237500D01*
G01*
X96394332Y-36003800D01*
G75*
G02*
X96156832Y-36241300I-237500J0D01*
G01*
G37*
%TD*%
%TO.C,R6*%
G36*
G01*
X93361966Y-51299400D02*
X93836966Y-51299400D01*
G75*
G02*
X94074466Y-51536900I0J-237500D01*
G01*
X94074466Y-52036900D01*
G75*
G02*
X93836966Y-52274400I-237500J0D01*
G01*
X93361966Y-52274400D01*
G75*
G02*
X93124466Y-52036900I0J237500D01*
G01*
X93124466Y-51536900D01*
G75*
G02*
X93361966Y-51299400I237500J0D01*
G01*
G37*
G36*
G01*
X93361966Y-49474400D02*
X93836966Y-49474400D01*
G75*
G02*
X94074466Y-49711900I0J-237500D01*
G01*
X94074466Y-50211900D01*
G75*
G02*
X93836966Y-50449400I-237500J0D01*
G01*
X93361966Y-50449400D01*
G75*
G02*
X93124466Y-50211900I0J237500D01*
G01*
X93124466Y-49711900D01*
G75*
G02*
X93361966Y-49474400I237500J0D01*
G01*
G37*
%TD*%
%TO.C,R7*%
G36*
G01*
X81222300Y-62665100D02*
X81222300Y-63140100D01*
G75*
G02*
X80984800Y-63377600I-237500J0D01*
G01*
X80484800Y-63377600D01*
G75*
G02*
X80247300Y-63140100I0J237500D01*
G01*
X80247300Y-62665100D01*
G75*
G02*
X80484800Y-62427600I237500J0D01*
G01*
X80984800Y-62427600D01*
G75*
G02*
X81222300Y-62665100I0J-237500D01*
G01*
G37*
G36*
G01*
X79397300Y-62665100D02*
X79397300Y-63140100D01*
G75*
G02*
X79159800Y-63377600I-237500J0D01*
G01*
X78659800Y-63377600D01*
G75*
G02*
X78422300Y-63140100I0J237500D01*
G01*
X78422300Y-62665100D01*
G75*
G02*
X78659800Y-62427600I237500J0D01*
G01*
X79159800Y-62427600D01*
G75*
G02*
X79397300Y-62665100I0J-237500D01*
G01*
G37*
%TD*%
%TO.C,R8*%
G36*
G01*
X81222300Y-64976500D02*
X81222300Y-65451500D01*
G75*
G02*
X80984800Y-65689000I-237500J0D01*
G01*
X80484800Y-65689000D01*
G75*
G02*
X80247300Y-65451500I0J237500D01*
G01*
X80247300Y-64976500D01*
G75*
G02*
X80484800Y-64739000I237500J0D01*
G01*
X80984800Y-64739000D01*
G75*
G02*
X81222300Y-64976500I0J-237500D01*
G01*
G37*
G36*
G01*
X79397300Y-64976500D02*
X79397300Y-65451500D01*
G75*
G02*
X79159800Y-65689000I-237500J0D01*
G01*
X78659800Y-65689000D01*
G75*
G02*
X78422300Y-65451500I0J237500D01*
G01*
X78422300Y-64976500D01*
G75*
G02*
X78659800Y-64739000I237500J0D01*
G01*
X79159800Y-64739000D01*
G75*
G02*
X79397300Y-64976500I0J-237500D01*
G01*
G37*
%TD*%
%TO.C,R9*%
G36*
G01*
X79371900Y-120221500D02*
X79371900Y-120696500D01*
G75*
G02*
X79134400Y-120934000I-237500J0D01*
G01*
X78634400Y-120934000D01*
G75*
G02*
X78396900Y-120696500I0J237500D01*
G01*
X78396900Y-120221500D01*
G75*
G02*
X78634400Y-119984000I237500J0D01*
G01*
X79134400Y-119984000D01*
G75*
G02*
X79371900Y-120221500I0J-237500D01*
G01*
G37*
G36*
G01*
X81196900Y-120221500D02*
X81196900Y-120696500D01*
G75*
G02*
X80959400Y-120934000I-237500J0D01*
G01*
X80459400Y-120934000D01*
G75*
G02*
X80221900Y-120696500I0J237500D01*
G01*
X80221900Y-120221500D01*
G75*
G02*
X80459400Y-119984000I237500J0D01*
G01*
X80959400Y-119984000D01*
G75*
G02*
X81196900Y-120221500I0J-237500D01*
G01*
G37*
%TD*%
%TO.C,R10*%
G36*
G01*
X82918100Y-120696500D02*
X82918100Y-120221500D01*
G75*
G02*
X83155600Y-119984000I237500J0D01*
G01*
X83655600Y-119984000D01*
G75*
G02*
X83893100Y-120221500I0J-237500D01*
G01*
X83893100Y-120696500D01*
G75*
G02*
X83655600Y-120934000I-237500J0D01*
G01*
X83155600Y-120934000D01*
G75*
G02*
X82918100Y-120696500I0J237500D01*
G01*
G37*
G36*
G01*
X84743100Y-120696500D02*
X84743100Y-120221500D01*
G75*
G02*
X84980600Y-119984000I237500J0D01*
G01*
X85480600Y-119984000D01*
G75*
G02*
X85718100Y-120221500I0J-237500D01*
G01*
X85718100Y-120696500D01*
G75*
G02*
X85480600Y-120934000I-237500J0D01*
G01*
X84980600Y-120934000D01*
G75*
G02*
X84743100Y-120696500I0J237500D01*
G01*
G37*
%TD*%
%TO.C,R11*%
G36*
G01*
X83918500Y-62665100D02*
X83918500Y-63140100D01*
G75*
G02*
X83681000Y-63377600I-237500J0D01*
G01*
X83181000Y-63377600D01*
G75*
G02*
X82943500Y-63140100I0J237500D01*
G01*
X82943500Y-62665100D01*
G75*
G02*
X83181000Y-62427600I237500J0D01*
G01*
X83681000Y-62427600D01*
G75*
G02*
X83918500Y-62665100I0J-237500D01*
G01*
G37*
G36*
G01*
X85743500Y-62665100D02*
X85743500Y-63140100D01*
G75*
G02*
X85506000Y-63377600I-237500J0D01*
G01*
X85006000Y-63377600D01*
G75*
G02*
X84768500Y-63140100I0J237500D01*
G01*
X84768500Y-62665100D01*
G75*
G02*
X85006000Y-62427600I237500J0D01*
G01*
X85506000Y-62427600D01*
G75*
G02*
X85743500Y-62665100I0J-237500D01*
G01*
G37*
%TD*%
%TO.C,R12*%
G36*
G01*
X85743500Y-64976500D02*
X85743500Y-65451500D01*
G75*
G02*
X85506000Y-65689000I-237500J0D01*
G01*
X85006000Y-65689000D01*
G75*
G02*
X84768500Y-65451500I0J237500D01*
G01*
X84768500Y-64976500D01*
G75*
G02*
X85006000Y-64739000I237500J0D01*
G01*
X85506000Y-64739000D01*
G75*
G02*
X85743500Y-64976500I0J-237500D01*
G01*
G37*
G36*
G01*
X83918500Y-64976500D02*
X83918500Y-65451500D01*
G75*
G02*
X83681000Y-65689000I-237500J0D01*
G01*
X83181000Y-65689000D01*
G75*
G02*
X82943500Y-65451500I0J237500D01*
G01*
X82943500Y-64976500D01*
G75*
G02*
X83181000Y-64739000I237500J0D01*
G01*
X83681000Y-64739000D01*
G75*
G02*
X83918500Y-64976500I0J-237500D01*
G01*
G37*
%TD*%
%TO.C,R13*%
G36*
G01*
X80221900Y-118359700D02*
X80221900Y-117884700D01*
G75*
G02*
X80459400Y-117647200I237500J0D01*
G01*
X80959400Y-117647200D01*
G75*
G02*
X81196900Y-117884700I0J-237500D01*
G01*
X81196900Y-118359700D01*
G75*
G02*
X80959400Y-118597200I-237500J0D01*
G01*
X80459400Y-118597200D01*
G75*
G02*
X80221900Y-118359700I0J237500D01*
G01*
G37*
G36*
G01*
X78396900Y-118359700D02*
X78396900Y-117884700D01*
G75*
G02*
X78634400Y-117647200I237500J0D01*
G01*
X79134400Y-117647200D01*
G75*
G02*
X79371900Y-117884700I0J-237500D01*
G01*
X79371900Y-118359700D01*
G75*
G02*
X79134400Y-118597200I-237500J0D01*
G01*
X78634400Y-118597200D01*
G75*
G02*
X78396900Y-118359700I0J237500D01*
G01*
G37*
%TD*%
%TO.C,R14*%
G36*
G01*
X82918100Y-118359700D02*
X82918100Y-117884700D01*
G75*
G02*
X83155600Y-117647200I237500J0D01*
G01*
X83655600Y-117647200D01*
G75*
G02*
X83893100Y-117884700I0J-237500D01*
G01*
X83893100Y-118359700D01*
G75*
G02*
X83655600Y-118597200I-237500J0D01*
G01*
X83155600Y-118597200D01*
G75*
G02*
X82918100Y-118359700I0J237500D01*
G01*
G37*
G36*
G01*
X84743100Y-118359700D02*
X84743100Y-117884700D01*
G75*
G02*
X84980600Y-117647200I237500J0D01*
G01*
X85480600Y-117647200D01*
G75*
G02*
X85718100Y-117884700I0J-237500D01*
G01*
X85718100Y-118359700D01*
G75*
G02*
X85480600Y-118597200I-237500J0D01*
G01*
X84980600Y-118597200D01*
G75*
G02*
X84743100Y-118359700I0J237500D01*
G01*
G37*
%TD*%
%TO.C,R15*%
G36*
G01*
X93361966Y-57765000D02*
X93836966Y-57765000D01*
G75*
G02*
X94074466Y-58002500I0J-237500D01*
G01*
X94074466Y-58502500D01*
G75*
G02*
X93836966Y-58740000I-237500J0D01*
G01*
X93361966Y-58740000D01*
G75*
G02*
X93124466Y-58502500I0J237500D01*
G01*
X93124466Y-58002500D01*
G75*
G02*
X93361966Y-57765000I237500J0D01*
G01*
G37*
G36*
G01*
X93361966Y-55940000D02*
X93836966Y-55940000D01*
G75*
G02*
X94074466Y-56177500I0J-237500D01*
G01*
X94074466Y-56677500D01*
G75*
G02*
X93836966Y-56915000I-237500J0D01*
G01*
X93361966Y-56915000D01*
G75*
G02*
X93124466Y-56677500I0J237500D01*
G01*
X93124466Y-56177500D01*
G75*
G02*
X93361966Y-55940000I237500J0D01*
G01*
G37*
%TD*%
%TO.C,R16*%
G36*
G01*
X96299900Y-76639100D02*
X96774900Y-76639100D01*
G75*
G02*
X97012400Y-76876600I0J-237500D01*
G01*
X97012400Y-77376600D01*
G75*
G02*
X96774900Y-77614100I-237500J0D01*
G01*
X96299900Y-77614100D01*
G75*
G02*
X96062400Y-77376600I0J237500D01*
G01*
X96062400Y-76876600D01*
G75*
G02*
X96299900Y-76639100I237500J0D01*
G01*
G37*
G36*
G01*
X96299900Y-78464100D02*
X96774900Y-78464100D01*
G75*
G02*
X97012400Y-78701600I0J-237500D01*
G01*
X97012400Y-79201600D01*
G75*
G02*
X96774900Y-79439100I-237500J0D01*
G01*
X96299900Y-79439100D01*
G75*
G02*
X96062400Y-79201600I0J237500D01*
G01*
X96062400Y-78701600D01*
G75*
G02*
X96299900Y-78464100I237500J0D01*
G01*
G37*
%TD*%
%TO.C,R17*%
G36*
G01*
X95681832Y-57765000D02*
X96156832Y-57765000D01*
G75*
G02*
X96394332Y-58002500I0J-237500D01*
G01*
X96394332Y-58502500D01*
G75*
G02*
X96156832Y-58740000I-237500J0D01*
G01*
X95681832Y-58740000D01*
G75*
G02*
X95444332Y-58502500I0J237500D01*
G01*
X95444332Y-58002500D01*
G75*
G02*
X95681832Y-57765000I237500J0D01*
G01*
G37*
G36*
G01*
X95681832Y-55940000D02*
X96156832Y-55940000D01*
G75*
G02*
X96394332Y-56177500I0J-237500D01*
G01*
X96394332Y-56677500D01*
G75*
G02*
X96156832Y-56915000I-237500J0D01*
G01*
X95681832Y-56915000D01*
G75*
G02*
X95444332Y-56677500I0J237500D01*
G01*
X95444332Y-56177500D01*
G75*
G02*
X95681832Y-55940000I237500J0D01*
G01*
G37*
%TD*%
%TO.C,R18*%
G36*
G01*
X92135166Y-77614100D02*
X91660166Y-77614100D01*
G75*
G02*
X91422666Y-77376600I0J237500D01*
G01*
X91422666Y-76876600D01*
G75*
G02*
X91660166Y-76639100I237500J0D01*
G01*
X92135166Y-76639100D01*
G75*
G02*
X92372666Y-76876600I0J-237500D01*
G01*
X92372666Y-77376600D01*
G75*
G02*
X92135166Y-77614100I-237500J0D01*
G01*
G37*
G36*
G01*
X92135166Y-79439100D02*
X91660166Y-79439100D01*
G75*
G02*
X91422666Y-79201600I0J237500D01*
G01*
X91422666Y-78701600D01*
G75*
G02*
X91660166Y-78464100I237500J0D01*
G01*
X92135166Y-78464100D01*
G75*
G02*
X92372666Y-78701600I0J-237500D01*
G01*
X92372666Y-79201600D01*
G75*
G02*
X92135166Y-79439100I-237500J0D01*
G01*
G37*
%TD*%
%TO.C,R19*%
G36*
G01*
X91517100Y-73040200D02*
X91042100Y-73040200D01*
G75*
G02*
X90804600Y-72802700I0J237500D01*
G01*
X90804600Y-72302700D01*
G75*
G02*
X91042100Y-72065200I237500J0D01*
G01*
X91517100Y-72065200D01*
G75*
G02*
X91754600Y-72302700I0J-237500D01*
G01*
X91754600Y-72802700D01*
G75*
G02*
X91517100Y-73040200I-237500J0D01*
G01*
G37*
G36*
G01*
X91517100Y-71215200D02*
X91042100Y-71215200D01*
G75*
G02*
X90804600Y-70977700I0J237500D01*
G01*
X90804600Y-70477700D01*
G75*
G02*
X91042100Y-70240200I237500J0D01*
G01*
X91517100Y-70240200D01*
G75*
G02*
X91754600Y-70477700I0J-237500D01*
G01*
X91754600Y-70977700D01*
G75*
G02*
X91517100Y-71215200I-237500J0D01*
G01*
G37*
%TD*%
%TO.C,R20*%
G36*
G01*
X96156832Y-71215200D02*
X95681832Y-71215200D01*
G75*
G02*
X95444332Y-70977700I0J237500D01*
G01*
X95444332Y-70477700D01*
G75*
G02*
X95681832Y-70240200I237500J0D01*
G01*
X96156832Y-70240200D01*
G75*
G02*
X96394332Y-70477700I0J-237500D01*
G01*
X96394332Y-70977700D01*
G75*
G02*
X96156832Y-71215200I-237500J0D01*
G01*
G37*
G36*
G01*
X96156832Y-73040200D02*
X95681832Y-73040200D01*
G75*
G02*
X95444332Y-72802700I0J237500D01*
G01*
X95444332Y-72302700D01*
G75*
G02*
X95681832Y-72065200I237500J0D01*
G01*
X96156832Y-72065200D01*
G75*
G02*
X96394332Y-72302700I0J-237500D01*
G01*
X96394332Y-72802700D01*
G75*
G02*
X96156832Y-73040200I-237500J0D01*
G01*
G37*
%TD*%
%TO.C,R21*%
G36*
G01*
X89815300Y-91967000D02*
X89340300Y-91967000D01*
G75*
G02*
X89102800Y-91729500I0J237500D01*
G01*
X89102800Y-91229500D01*
G75*
G02*
X89340300Y-90992000I237500J0D01*
G01*
X89815300Y-90992000D01*
G75*
G02*
X90052800Y-91229500I0J-237500D01*
G01*
X90052800Y-91729500D01*
G75*
G02*
X89815300Y-91967000I-237500J0D01*
G01*
G37*
G36*
G01*
X89815300Y-93792000D02*
X89340300Y-93792000D01*
G75*
G02*
X89102800Y-93554500I0J237500D01*
G01*
X89102800Y-93054500D01*
G75*
G02*
X89340300Y-92817000I237500J0D01*
G01*
X89815300Y-92817000D01*
G75*
G02*
X90052800Y-93054500I0J-237500D01*
G01*
X90052800Y-93554500D01*
G75*
G02*
X89815300Y-93792000I-237500J0D01*
G01*
G37*
%TD*%
%TO.C,R22*%
G36*
G01*
X92135166Y-91967000D02*
X91660166Y-91967000D01*
G75*
G02*
X91422666Y-91729500I0J237500D01*
G01*
X91422666Y-91229500D01*
G75*
G02*
X91660166Y-90992000I237500J0D01*
G01*
X92135166Y-90992000D01*
G75*
G02*
X92372666Y-91229500I0J-237500D01*
G01*
X92372666Y-91729500D01*
G75*
G02*
X92135166Y-91967000I-237500J0D01*
G01*
G37*
G36*
G01*
X92135166Y-93792000D02*
X91660166Y-93792000D01*
G75*
G02*
X91422666Y-93554500I0J237500D01*
G01*
X91422666Y-93054500D01*
G75*
G02*
X91660166Y-92817000I237500J0D01*
G01*
X92135166Y-92817000D01*
G75*
G02*
X92372666Y-93054500I0J-237500D01*
G01*
X92372666Y-93554500D01*
G75*
G02*
X92135166Y-93792000I-237500J0D01*
G01*
G37*
%TD*%
D13*
%TO.C,RV1*%
X78655637Y-37032699D03*
X87444037Y-37032699D03*
D12*
X85589837Y-44043099D03*
X83049837Y-44043099D03*
X80509837Y-44043099D03*
%TD*%
D13*
%TO.C,RV3*%
X78655637Y-70052699D03*
X87444037Y-70052699D03*
D12*
X85589837Y-77063099D03*
X83049837Y-77063099D03*
X80509837Y-77063099D03*
%TD*%
%TO.C,RV4*%
X80509837Y-91871300D03*
X83049837Y-91871300D03*
X85589837Y-91871300D03*
D13*
X87444037Y-84860900D03*
X78655637Y-84860900D03*
%TD*%
%TO.C,RV5*%
X95165637Y-107443343D03*
X103954037Y-107443343D03*
D12*
X102099837Y-114453743D03*
X99559837Y-114453743D03*
X97019837Y-114453743D03*
%TD*%
D13*
%TO.C,RV6*%
X78655637Y-107443343D03*
X87444037Y-107443343D03*
D12*
X85589837Y-114453743D03*
X83049837Y-114453743D03*
X80509837Y-114453743D03*
%TD*%
%TO.C,U1*%
G36*
G01*
X95320600Y-39325600D02*
X95620600Y-39325600D01*
G75*
G02*
X95770600Y-39475600I0J-150000D01*
G01*
X95770600Y-40775600D01*
G75*
G02*
X95620600Y-40925600I-150000J0D01*
G01*
X95320600Y-40925600D01*
G75*
G02*
X95170600Y-40775600I0J150000D01*
G01*
X95170600Y-39475600D01*
G75*
G02*
X95320600Y-39325600I150000J0D01*
G01*
G37*
G36*
G01*
X94050600Y-39325600D02*
X94350600Y-39325600D01*
G75*
G02*
X94500600Y-39475600I0J-150000D01*
G01*
X94500600Y-40775600D01*
G75*
G02*
X94350600Y-40925600I-150000J0D01*
G01*
X94050600Y-40925600D01*
G75*
G02*
X93900600Y-40775600I0J150000D01*
G01*
X93900600Y-39475600D01*
G75*
G02*
X94050600Y-39325600I150000J0D01*
G01*
G37*
G36*
G01*
X92780600Y-39325600D02*
X93080600Y-39325600D01*
G75*
G02*
X93230600Y-39475600I0J-150000D01*
G01*
X93230600Y-40775600D01*
G75*
G02*
X93080600Y-40925600I-150000J0D01*
G01*
X92780600Y-40925600D01*
G75*
G02*
X92630600Y-40775600I0J150000D01*
G01*
X92630600Y-39475600D01*
G75*
G02*
X92780600Y-39325600I150000J0D01*
G01*
G37*
G36*
G01*
X91510600Y-39325600D02*
X91810600Y-39325600D01*
G75*
G02*
X91960600Y-39475600I0J-150000D01*
G01*
X91960600Y-40775600D01*
G75*
G02*
X91810600Y-40925600I-150000J0D01*
G01*
X91510600Y-40925600D01*
G75*
G02*
X91360600Y-40775600I0J150000D01*
G01*
X91360600Y-39475600D01*
G75*
G02*
X91510600Y-39325600I150000J0D01*
G01*
G37*
G36*
G01*
X91510600Y-46525600D02*
X91810600Y-46525600D01*
G75*
G02*
X91960600Y-46675600I0J-150000D01*
G01*
X91960600Y-47975600D01*
G75*
G02*
X91810600Y-48125600I-150000J0D01*
G01*
X91510600Y-48125600D01*
G75*
G02*
X91360600Y-47975600I0J150000D01*
G01*
X91360600Y-46675600D01*
G75*
G02*
X91510600Y-46525600I150000J0D01*
G01*
G37*
G36*
G01*
X92780600Y-46525600D02*
X93080600Y-46525600D01*
G75*
G02*
X93230600Y-46675600I0J-150000D01*
G01*
X93230600Y-47975600D01*
G75*
G02*
X93080600Y-48125600I-150000J0D01*
G01*
X92780600Y-48125600D01*
G75*
G02*
X92630600Y-47975600I0J150000D01*
G01*
X92630600Y-46675600D01*
G75*
G02*
X92780600Y-46525600I150000J0D01*
G01*
G37*
G36*
G01*
X94050600Y-46525600D02*
X94350600Y-46525600D01*
G75*
G02*
X94500600Y-46675600I0J-150000D01*
G01*
X94500600Y-47975600D01*
G75*
G02*
X94350600Y-48125600I-150000J0D01*
G01*
X94050600Y-48125600D01*
G75*
G02*
X93900600Y-47975600I0J150000D01*
G01*
X93900600Y-46675600D01*
G75*
G02*
X94050600Y-46525600I150000J0D01*
G01*
G37*
G36*
G01*
X95320600Y-46525600D02*
X95620600Y-46525600D01*
G75*
G02*
X95770600Y-46675600I0J-150000D01*
G01*
X95770600Y-47975600D01*
G75*
G02*
X95620600Y-48125600I-150000J0D01*
G01*
X95320600Y-48125600D01*
G75*
G02*
X95170600Y-47975600I0J150000D01*
G01*
X95170600Y-46675600D01*
G75*
G02*
X95320600Y-46525600I150000J0D01*
G01*
G37*
%TD*%
%TO.C,U2*%
G36*
G01*
X95320600Y-60077400D02*
X95620600Y-60077400D01*
G75*
G02*
X95770600Y-60227400I0J-150000D01*
G01*
X95770600Y-61527400D01*
G75*
G02*
X95620600Y-61677400I-150000J0D01*
G01*
X95320600Y-61677400D01*
G75*
G02*
X95170600Y-61527400I0J150000D01*
G01*
X95170600Y-60227400D01*
G75*
G02*
X95320600Y-60077400I150000J0D01*
G01*
G37*
G36*
G01*
X94050600Y-60077400D02*
X94350600Y-60077400D01*
G75*
G02*
X94500600Y-60227400I0J-150000D01*
G01*
X94500600Y-61527400D01*
G75*
G02*
X94350600Y-61677400I-150000J0D01*
G01*
X94050600Y-61677400D01*
G75*
G02*
X93900600Y-61527400I0J150000D01*
G01*
X93900600Y-60227400D01*
G75*
G02*
X94050600Y-60077400I150000J0D01*
G01*
G37*
G36*
G01*
X92780600Y-60077400D02*
X93080600Y-60077400D01*
G75*
G02*
X93230600Y-60227400I0J-150000D01*
G01*
X93230600Y-61527400D01*
G75*
G02*
X93080600Y-61677400I-150000J0D01*
G01*
X92780600Y-61677400D01*
G75*
G02*
X92630600Y-61527400I0J150000D01*
G01*
X92630600Y-60227400D01*
G75*
G02*
X92780600Y-60077400I150000J0D01*
G01*
G37*
G36*
G01*
X91510600Y-60077400D02*
X91810600Y-60077400D01*
G75*
G02*
X91960600Y-60227400I0J-150000D01*
G01*
X91960600Y-61527400D01*
G75*
G02*
X91810600Y-61677400I-150000J0D01*
G01*
X91510600Y-61677400D01*
G75*
G02*
X91360600Y-61527400I0J150000D01*
G01*
X91360600Y-60227400D01*
G75*
G02*
X91510600Y-60077400I150000J0D01*
G01*
G37*
G36*
G01*
X91510600Y-67277400D02*
X91810600Y-67277400D01*
G75*
G02*
X91960600Y-67427400I0J-150000D01*
G01*
X91960600Y-68727400D01*
G75*
G02*
X91810600Y-68877400I-150000J0D01*
G01*
X91510600Y-68877400D01*
G75*
G02*
X91360600Y-68727400I0J150000D01*
G01*
X91360600Y-67427400D01*
G75*
G02*
X91510600Y-67277400I150000J0D01*
G01*
G37*
G36*
G01*
X92780600Y-67277400D02*
X93080600Y-67277400D01*
G75*
G02*
X93230600Y-67427400I0J-150000D01*
G01*
X93230600Y-68727400D01*
G75*
G02*
X93080600Y-68877400I-150000J0D01*
G01*
X92780600Y-68877400D01*
G75*
G02*
X92630600Y-68727400I0J150000D01*
G01*
X92630600Y-67427400D01*
G75*
G02*
X92780600Y-67277400I150000J0D01*
G01*
G37*
G36*
G01*
X94050600Y-67277400D02*
X94350600Y-67277400D01*
G75*
G02*
X94500600Y-67427400I0J-150000D01*
G01*
X94500600Y-68727400D01*
G75*
G02*
X94350600Y-68877400I-150000J0D01*
G01*
X94050600Y-68877400D01*
G75*
G02*
X93900600Y-68727400I0J150000D01*
G01*
X93900600Y-67427400D01*
G75*
G02*
X94050600Y-67277400I150000J0D01*
G01*
G37*
G36*
G01*
X95320600Y-67277400D02*
X95620600Y-67277400D01*
G75*
G02*
X95770600Y-67427400I0J-150000D01*
G01*
X95770600Y-68727400D01*
G75*
G02*
X95620600Y-68877400I-150000J0D01*
G01*
X95320600Y-68877400D01*
G75*
G02*
X95170600Y-68727400I0J150000D01*
G01*
X95170600Y-67427400D01*
G75*
G02*
X95320600Y-67277400I150000J0D01*
G01*
G37*
%TD*%
%TO.C,U3*%
G36*
G01*
X95320600Y-88029200D02*
X95620600Y-88029200D01*
G75*
G02*
X95770600Y-88179200I0J-150000D01*
G01*
X95770600Y-89479200D01*
G75*
G02*
X95620600Y-89629200I-150000J0D01*
G01*
X95320600Y-89629200D01*
G75*
G02*
X95170600Y-89479200I0J150000D01*
G01*
X95170600Y-88179200D01*
G75*
G02*
X95320600Y-88029200I150000J0D01*
G01*
G37*
G36*
G01*
X94050600Y-88029200D02*
X94350600Y-88029200D01*
G75*
G02*
X94500600Y-88179200I0J-150000D01*
G01*
X94500600Y-89479200D01*
G75*
G02*
X94350600Y-89629200I-150000J0D01*
G01*
X94050600Y-89629200D01*
G75*
G02*
X93900600Y-89479200I0J150000D01*
G01*
X93900600Y-88179200D01*
G75*
G02*
X94050600Y-88029200I150000J0D01*
G01*
G37*
G36*
G01*
X92780600Y-88029200D02*
X93080600Y-88029200D01*
G75*
G02*
X93230600Y-88179200I0J-150000D01*
G01*
X93230600Y-89479200D01*
G75*
G02*
X93080600Y-89629200I-150000J0D01*
G01*
X92780600Y-89629200D01*
G75*
G02*
X92630600Y-89479200I0J150000D01*
G01*
X92630600Y-88179200D01*
G75*
G02*
X92780600Y-88029200I150000J0D01*
G01*
G37*
G36*
G01*
X91510600Y-88029200D02*
X91810600Y-88029200D01*
G75*
G02*
X91960600Y-88179200I0J-150000D01*
G01*
X91960600Y-89479200D01*
G75*
G02*
X91810600Y-89629200I-150000J0D01*
G01*
X91510600Y-89629200D01*
G75*
G02*
X91360600Y-89479200I0J150000D01*
G01*
X91360600Y-88179200D01*
G75*
G02*
X91510600Y-88029200I150000J0D01*
G01*
G37*
G36*
G01*
X91510600Y-80829200D02*
X91810600Y-80829200D01*
G75*
G02*
X91960600Y-80979200I0J-150000D01*
G01*
X91960600Y-82279200D01*
G75*
G02*
X91810600Y-82429200I-150000J0D01*
G01*
X91510600Y-82429200D01*
G75*
G02*
X91360600Y-82279200I0J150000D01*
G01*
X91360600Y-80979200D01*
G75*
G02*
X91510600Y-80829200I150000J0D01*
G01*
G37*
G36*
G01*
X92780600Y-80829200D02*
X93080600Y-80829200D01*
G75*
G02*
X93230600Y-80979200I0J-150000D01*
G01*
X93230600Y-82279200D01*
G75*
G02*
X93080600Y-82429200I-150000J0D01*
G01*
X92780600Y-82429200D01*
G75*
G02*
X92630600Y-82279200I0J150000D01*
G01*
X92630600Y-80979200D01*
G75*
G02*
X92780600Y-80829200I150000J0D01*
G01*
G37*
G36*
G01*
X94050600Y-80829200D02*
X94350600Y-80829200D01*
G75*
G02*
X94500600Y-80979200I0J-150000D01*
G01*
X94500600Y-82279200D01*
G75*
G02*
X94350600Y-82429200I-150000J0D01*
G01*
X94050600Y-82429200D01*
G75*
G02*
X93900600Y-82279200I0J150000D01*
G01*
X93900600Y-80979200D01*
G75*
G02*
X94050600Y-80829200I150000J0D01*
G01*
G37*
G36*
G01*
X95320600Y-80829200D02*
X95620600Y-80829200D01*
G75*
G02*
X95770600Y-80979200I0J-150000D01*
G01*
X95770600Y-82279200D01*
G75*
G02*
X95620600Y-82429200I-150000J0D01*
G01*
X95320600Y-82429200D01*
G75*
G02*
X95170600Y-82279200I0J150000D01*
G01*
X95170600Y-80979200D01*
G75*
G02*
X95320600Y-80829200I150000J0D01*
G01*
G37*
%TD*%
M02*
