M48
; DRILL file {KiCad (5.1.9)-1} date 03/03/21 00:59:29
; FORMAT={-:-/ absolute / inch / decimal}
; #@! TF.CreationDate,2021-03-03T00:59:29+01:00
; #@! TF.GenerationSoftware,Kicad,Pcbnew,(5.1.9)-1
; #@! TF.FileFunction,Plated,1,2,PTH
FMAT,2
INCH
T1C0.0157
T2C0.0300
T3C0.0350
T4C0.0450
T5C0.0810
%
G90
G05
T1
X3.055Y-4.057
X3.0711Y-3.8065
X3.0757Y-2.8625
X3.0865Y-4.0931
X3.0907Y-1.5995
X3.0977Y-1.3325
X3.1067Y-2.4045
X3.1647Y-2.3895
X3.1666Y-4.5839
X3.1952Y-2.4335
X3.207Y-4.585
X3.215Y-4.697
X3.231Y-4.374
X3.3227Y-2.7015
X3.3617Y-2.6495
X3.3677Y-1.3585
X3.3757Y-2.1805
X3.4207Y-2.9435
X3.427Y-4.716
X3.4437Y-2.1695
X3.4452Y-2.6635
X3.4547Y-1.5695
X3.4907Y-2.8575
X3.4977Y-2.1735
X3.5127Y-3.2335
X3.5137Y-4.0515
X3.5167Y-1.7985
X3.5197Y-1.9645
X3.5244Y-3.9892
X3.5637Y-1.5385
X3.5637Y-2.5165
X3.5637Y-3.2795
X3.6067Y-3.4085
X3.6087Y-3.1455
X3.6957Y-1.7815
X3.7177Y-2.9525
X3.7197Y-3.2725
X3.7287Y-3.4095
X3.7297Y-2.5905
X3.7647Y-4.1035
X3.8Y-4.392
X3.8227Y-1.4785
X3.8227Y-4.7325
X3.8277Y-2.2475
X3.8287Y-2.5465
X3.8307Y-1.3225
X3.8657Y-4.9685
X3.9247Y-3.7575
X3.998Y-3.816
X4.0327Y-3.0395
X4.0485Y-3.8845
X4.0807Y-3.7245
T2
X3.5447Y-4.7715
X3.5447Y-4.8715
X3.5447Y-4.9715
X3.5447Y-5.0715
X3.5447Y-5.1715
X3.6447Y-4.7715
X3.6447Y-4.8715
X3.6447Y-4.9715
X3.6447Y-5.0715
X3.6447Y-5.1715
T3
X3.1697Y-1.734
X3.1697Y-2.317
X3.1697Y-3.034
X3.1697Y-3.617
X3.1697Y-4.5061
X3.2697Y-1.734
X3.2697Y-2.317
X3.2697Y-3.034
X3.2697Y-3.617
X3.2697Y-4.5061
X3.3697Y-1.734
X3.3697Y-2.317
X3.3697Y-3.034
X3.3697Y-3.617
X3.3697Y-4.5061
X3.8197Y-4.5061
X3.9197Y-4.5061
X4.0197Y-4.5061
T4
X3.2697Y-4.8305
X3.2697Y-4.9255
X3.2697Y-5.2625
X3.9197Y-1.2445
X3.9197Y-1.5815
X3.9197Y-1.6765
X3.9197Y-1.8225
X3.9197Y-1.9175
X3.9197Y-2.2545
X3.9197Y-2.5445
X3.9197Y-2.8815
X3.9197Y-2.9765
X3.9197Y-3.1225
X3.9197Y-3.2175
X3.9197Y-3.5545
T5
X3.0967Y-1.458
X3.0967Y-2.041
X3.0967Y-2.758
X3.0967Y-3.341
X3.0967Y-4.2301
X3.4427Y-1.458
X3.4427Y-2.041
X3.4427Y-2.758
X3.4427Y-3.341
X3.4427Y-4.2301
X3.7467Y-4.2301
X4.0927Y-4.2301
T0
M30
